<svg version="1.1" xmlns="http://www.w3.org/2000/svg" width="400" height="300" viewBox="0 0 400 300" xml:space="preserve">
  <path d="m374.3 173.57-17.047-10.164-17.047-10.165-17.047-10.164-17.047-10.165-17.047-10.164-17.047-10.164-17.047-10.165-17.047-10.164-17.047-10.164-17.536-10.456-17.715 10.555-17.715 10.555-17.715 10.555-17.715 10.555-17.715 10.555-17.718 10.55-17.715 10.555-17.715 10.555-17.715 10.555L25.7 177.47l17.047 10.165L59.795 197.8l17.047 10.165 17.047 10.164 17.047 10.164 17.047 10.165 17.047 10.164 17.047 10.164 17.047 10.165 17.535 10.456 17.715-10.555 17.715-10.555 17.715-10.555 17.715-10.555 17.715-10.555 17.715-10.555 17.715-10.555 17.715-10.555 17.715-10.555L374.3 173.57zm-17.535-9.874 16.559 9.874-17.227 10.264-16.559-9.873 17.227-10.265zm-159.436 94.411-16.559-9.874 17.226-10.264 16.559 9.873c-4.293 2.559-12.933 7.708-17.226 10.265zm-135.89-81.026 17.227-10.264 16.559 9.874-17.227 10.264-16.559-9.874zm157.791-74.275-17.226 10.264-16.559-9.873 17.227-10.264 16.558 9.873zm85.057 71.253-16.559-9.874 17.226-10.264 16.559 9.873-17.226 10.265zm-106.29 63.329-16.559-9.873 17.227-10.264 16.559 9.874-17.227 10.263zM96.201 176.69l17.226-10.264 16.559 9.873-17.226 10.264-16.559-9.873zm105.802-63.038 16.559 9.874-17.227 10.264-16.559-9.873 17.227-10.265zm84.748 50.533-17.227 10.264-16.559-9.873 17.226-10.264c4.129 2.46 12.434 7.413 16.56 9.873zm-88.086 52.483-16.559-9.873 17.226-10.264 16.559 9.873-17.226 10.264zM130.963 176.3l17.226-10.264 16.559 9.873-17.226 10.264-16.559-9.873zm70.372-41.928 16.559 9.873-17.227 10.264-16.559-9.874 17.227-10.263zm50.654 30.203-17.227 10.264-16.559-9.873 17.227-10.264 16.559 9.873zm-52.657 31.374-16.559-9.874L200 175.811l16.559 9.874-17.227 10.264zm-33.606-20.039 17.227-10.264 16.559 9.873-17.227 10.264c-4.128-2.46-12.433-7.413-16.559-9.873zm34.941-20.818 16.559 9.873L200 175.229l-16.559-9.873 17.226-10.264zm16.38 30.302-16.559-9.874 17.226-10.264 16.559 9.873-17.226 10.265zm17.895-30.984-17.227 10.264-16.559-9.873 17.227-10.264 16.559 9.873zm-34.763.391-17.226 10.264-16.559-9.874 17.226-10.264 16.559 9.874zm-17.715 10.554-17.227 10.264-16.559-9.873 17.227-10.264 16.559 9.873zm-34.453 21.11 17.226-10.264 16.559 9.873-17.226 10.264-16.559-9.873zm17.047 10.165 17.226-10.264 16.559 9.874-17.226 10.264-16.559-9.874zm51.322 9.483-16.559-9.873 17.227-10.264 16.559 9.873-17.227 10.264zm17.715-10.555-16.559-9.873 17.226-10.264 16.559 9.874-17.226 10.263zm17.715-10.554-16.559-9.874 17.227-10.264 16.559 9.873-17.227 10.265zm9.281-25.852-8.613 5.132-16.559-9.873 17.227-10.264 16.559 9.873-8.614 5.132zm-8.434-15.296-17.226 10.264-16.559-9.874 17.226-10.264 16.559 9.874zm-25.661-5.033-8.613 5.132-16.559-9.873 17.227-10.264 16.559 9.873-8.614 5.132zm-26.149-4.742-17.227 10.264-16.559-9.873 17.227-10.264 16.559 9.873zm-34.274.681 16.559 9.874-17.227 10.264-16.559-9.873 17.227-10.265zm-1.156 20.428-17.227 10.264-16.559-9.874 17.227-10.264 16.559 9.874zm-34.274.681 16.559 9.874-17.226 10.264-16.559-9.873 17.226-10.265zm-17.894 30.984 17.226-10.264 16.559 9.873-17.226 10.264-16.559-9.873zm17.047 10.164 17.226-10.264 16.559 9.874-17.227 10.264-16.558-9.874zm17.047 10.166 17.227-10.264 16.559 9.873-17.227 10.264-16.559-9.873zm17.047 10.164 17.227-10.264 16.559 9.873-17.227 10.264-16.559-9.873zm51.322 9.484-16.559-9.874 17.226-10.264 16.559 9.874-17.226 10.264zm17.715-10.555-16.559-9.874 17.227-10.264 16.559 9.873-17.227 10.265zm17.715-10.555-16.559-9.873 17.226-10.264 16.559 9.873-17.226 10.264zm17.715-10.555-16.559-9.873 17.226-10.264 16.559 9.874-17.226 10.263zm17.715-10.554-16.559-9.874 17.227-10.264 16.559 9.874-17.227 10.264zm17.894-30.984-17.226 10.264-16.559-9.873 17.226-10.264 16.559 9.873zm-34.273.099-16.559-9.873 17.226-10.264 16.559 9.874-17.226 10.263zm.179-20.428-17.226 10.264-16.559-9.874 17.226-10.264 16.559 9.874zm-34.274.099-16.559-9.873 17.226-10.264 16.559 9.873-17.226 10.264zm.179-20.428-17.226 10.264-16.559-9.874 17.226-10.264 16.559 9.874zm-51.321-9.484 16.559 9.873-17.226 10.264-16.559-9.874 17.226-10.263zm-17.715 10.554 16.559 9.874-17.227 10.264-16.559-9.874 17.227-10.264zm-17.716 10.555 16.559 9.874-17.226 10.264-16.559-9.873 17.226-10.265zm-17.715 10.555 16.559 9.873-17.227 10.264-16.559-9.873 17.227-10.264zm-17.715 10.555 16.559 9.873-17.226 10.264-16.559-9.874 17.226-10.263zM96.38 156.262l16.559 9.874L95.713 176.4l-16.559-9.874 17.226-10.264zm-17.894 30.983 17.227-10.264 16.559 9.873-17.227 10.264-16.559-9.873zm17.047 10.165 17.227-10.264 16.559 9.873-17.227 10.264-16.559-9.873zm17.048 10.165 17.227-10.264 16.559 9.874-17.226 10.264-16.56-9.874zm17.047 10.164 17.226-10.264 16.559 9.873-17.226 10.264-16.559-9.873zm17.047 10.165 17.226-10.264 16.559 9.874-17.226 10.264-16.559-9.874zm17.048 10.165 17.226-10.264 16.559 9.873-17.226 10.264-16.559-9.873zm51.321 9.483-16.559-9.873 17.227-10.264 16.559 9.873-17.227 10.264zm17.715-10.555-16.559-9.873 17.226-10.264 16.559 9.873-17.226 10.264zm17.715-10.554-16.559-9.873 17.227-10.264 16.559 9.874-17.227 10.263zm17.716-10.555-16.559-9.874 17.226-10.264 16.559 9.873-17.226 10.265zm17.714-10.555-16.559-9.873 17.226-10.264 16.559 9.873-17.226 10.264zm17.715-10.555-16.559-9.873 17.227-10.264 16.559 9.873-17.227 10.264zm17.716-10.555-16.559-9.873 17.226-10.264 16.559 9.874-17.226 10.263zm18.382-30.692 16.559 9.874-17.227 10.264-16.559-9.874 17.227-10.264zm-17.047-10.164 16.559 9.873-17.227 10.264-16.559-9.873 17.227-10.264zm-17.047-10.165 16.559 9.874-17.227 10.264-16.559-9.873c4.293-2.56 12.934-7.708 17.227-10.265zm-17.048-10.165 16.559 9.873-17.227 10.264-16.559-9.874 17.227-10.263zm-17.047-10.165 16.559 9.873-17.227 10.264-16.559-9.873 17.227-10.264zm-17.048-10.165 16.559 9.874-17.227 10.264-16.559-9.873 17.227-10.265zm-17.047-10.164 16.559 9.873-17.227 10.264-16.559-9.874 17.227-10.263zm-17.047-10.165 16.559 9.873-17.227 10.264-16.559-9.873 17.227-10.264zm-34.274.099 17.227-10.264 16.559 9.874-17.226 10.264-16.56-9.874zm-17.716 10.555 17.227-10.264 16.559 9.874-17.227 10.264-16.559-9.874zm-17.714 10.555 17.226-10.264 16.559 9.873-17.226 10.264-16.559-9.873zm-17.716 10.554 17.227-10.264 16.559 9.873-17.227 10.264-16.559-9.873zm-17.715 10.555 17.226-10.264 16.559 9.873-17.226 10.264-16.559-9.873zm-17.715 10.555 17.227-10.264 16.559 9.874-17.227 10.264-16.559-9.874zm-17.715 10.555 17.226-10.264 16.559 9.873-17.226 10.264-16.559-9.873zm-17.715 10.555 17.226-10.264 16.559 9.873-17.226 10.264-16.559-9.873zm-17.715 10.554 17.227-10.264 16.559 9.873-17.227 10.264-16.559-9.873zm-1.156 20.429-16.559-9.874 17.226-10.264 16.559 9.874-17.226 10.264zm17.048 10.165-16.559-9.873 17.226-10.264 16.559 9.873-17.226 10.264zm17.047 10.165L60.771 197.8l17.226-10.264 16.559 9.873-17.226 10.265zm17.047 10.164-16.559-9.873 17.226-10.264 16.559 9.874-17.226 10.263zm17.048 10.165-16.559-9.873 17.226-10.264 16.559 9.873-17.226 10.264zm17.047 10.165-16.559-9.874 17.226-10.264 16.559 9.873-17.226 10.265zm17.048 10.164-16.559-9.873 17.226-10.264 16.559 9.874-17.226 10.263zm17.047 10.165-16.559-9.873 17.226-10.264 16.559 9.873-17.226 10.264zm17.047 10.165-16.559-9.874 17.226-10.264 16.559 9.874-17.226 10.264zm34.274-.099-17.227 10.264-16.559-9.873 17.226-10.264 16.56 9.873zm17.715-10.555-17.226 10.264-16.559-9.873 17.226-10.264 16.559 9.873zm17.715-10.555-17.227 10.264-16.559-9.874 17.227-10.264 16.559 9.874zm17.715-10.555-17.226 10.264-16.559-9.873 17.226-10.264 16.559 9.873zm17.716-10.554-17.227 10.264-16.559-9.873 17.227-10.264 16.559 9.873zm17.714-10.555-17.226 10.264-16.559-9.873 17.226-10.264c4.128 2.46 12.433 7.412 16.559 9.873zm17.715-10.555-17.226 10.264-16.559-9.874 17.226-10.264 16.559 9.874zm17.716-10.555-17.227 10.264-16.559-9.874 17.227-10.264 16.559 9.874zm17.714-10.555-17.226 10.264-16.559-9.873 17.226-10.264 16.559 9.873z" fill="#03ef62"/>
  <path fill="#ff6ea9" d="M330.364 131.309h-.012c.002-.046.012-.092.012-.138 0-1.292-.761-2.457-2.142-3.28l-77.934-46.47c-2.96-1.765-8.133-1.556-11.532.469l-125.613 74.842c-1.864 1.11-2.933 2.622-2.933 4.146 0 .037.007.072.008.108h-.008v9.986h.007c.037 1.254.787 2.383 2.135 3.186l77.935 46.47c1.348.804 3.154 1.197 5.043 1.197 2.26 0 4.637-.564 6.488-1.666l125.614-74.842c1.846-1.1 2.908-2.593 2.929-4.103h.003v-9.905z"/>
  <path fill="#ff6ea9" d="M195.331 221.326c-1.868 0-3.568-.4-4.787-1.127l-77.935-46.47c-1.188-.708-1.859-1.691-1.891-2.771l-.007-.227v-9.245h.014l-.006-.523-.007-.094c0-1.335.98-2.69 2.688-3.708L239.013 82.32c1.703-1.015 3.974-1.596 6.232-1.596 1.868 0 3.568.4 4.788 1.127l77.934 46.469c1.224.73 1.898 1.742 1.898 2.851l-.012.116-.022.521h.034v9.238l-.003.161c-.019 1.333-.997 2.674-2.685 3.68L201.563 219.73c-1.704 1.014-3.975 1.596-6.232 1.596z"/>
  <path fill="#06bdfc" d="M330.36 117.53v-.189h-.013c-.069-1.219-.813-2.315-2.129-3.1l-77.934-46.47c-2.96-1.766-8.133-1.555-11.531.469l-79.806 47.55c-1.849 1.102-2.913 2.598-2.93 4.11h-.003v10h.003l-.003.036c0 1.292.761 2.458 2.142 3.281l77.934 46.47c1.348.804 3.154 1.197 5.043 1.197 2.26 0 4.637-.564 6.487-1.666l79.806-47.55c1.847-1.101 2.91-2.595 2.929-4.104h.003v-.029l.001-.011-.001-.013.002-9.981z"/>
  <path fill="#06bdfc" d="M241.135 180.385c-1.869 0-3.569-.4-4.788-1.127l-77.934-46.47c-1.224-.729-1.898-1.742-1.898-2.852l.003-10.03c.015-1.334.994-2.678 2.686-3.686l79.806-47.55c1.704-1.015 3.976-1.596 6.233-1.596 1.868 0 3.567.4 4.786 1.127l77.935 46.47c1.156.689 1.826 1.647 1.885 2.698l.012.219-.003 9.969c-.017 1.333-.996 2.674-2.685 3.681l-79.806 47.55c-1.704 1.015-3.975 1.597-6.232 1.597z"/>
  <path fill="#7933ff" d="M286.277 77.489c-.012-1.279-.77-2.433-2.139-3.249l-33.853-20.186c-2.961-1.766-8.134-1.557-11.531.469l-79.806 47.55c-1.863 1.11-2.933 2.621-2.933 4.145l.002.027-.002 9.973v.14h.01c.053 1.236.8 2.348 2.131 3.142l33.853 20.186c1.348.804 3.154 1.197 5.042 1.197 2.26 0 4.638-.564 6.488-1.667l79.806-47.549c1.817-1.082 2.87-2.545 2.923-4.03h.01V77.489h-.001z"/>
  <path fill="#7933ff" d="M197.053 140.383c-1.868 0-3.568-.4-4.787-1.127l-33.853-20.186c-1.171-.699-1.842-1.669-1.888-2.733l-.01-.227.002-9.866c-.002-1.369.978-2.723 2.687-3.741l79.806-47.55c1.702-1.015 3.973-1.597 6.23-1.597 1.868 0 3.569.401 4.789 1.128l33.853 20.186c1.211.722 1.885 1.725 1.895 2.824l.002 9.949-.01.176c-.046 1.313-1.022 2.632-2.679 3.618l-79.806 47.549c-1.701 1.015-3.973 1.597-6.231 1.597z"/>
  <path fill="#fcce0d" d="M243.242 83.868c-3.642 0-7.185-.551-10.531-1.638-3.166-1.076-10.53-4.297-10.686-10.994 0-3.616 2.398-7.029 6.754-9.622 4.289-2.556 10.17-4.022 16.138-4.022 5.692 0 11.028 1.304 15.022 3.672 5.476 3.294 6.339 7.026 6.1 9.576-.411 4.366-4.375 8.556-10.101 10.673-3.956 1.54-8.349 2.355-12.696 2.355zM241.484 153.658c-5.72 0-11.06-1.305-15.036-3.674-3.958-2.305-6.132-5.499-6.119-8.991.014-3.651 2.465-7.144 6.727-9.583 4.36-2.595 10.087-4.026 16.119-4.026 5.718 0 11.058 1.307 15.036 3.681 3.952 2.288 6.127 5.474 6.119 8.968-.009 3.662-2.461 7.163-6.727 9.605-4.353 2.591-10.08 4.02-16.119 4.02z"/>
  <path fill="#05192d" d="M219.055 178.215h-.01c-1.868-17.873-43.273-16.717-45.04.94h-.02v7.92h.01c.573 9.319 12.908 13.09 21.69 13 9.151.123 22.568-4.096 23.37-13.8v-7.77c.004-.028.017-.048 0-.07v-.22zm-1 8.02c-1.759 16.408-41.481 17.503-43.06.77h-.01v-3.55c7.411 12.839 35.971 11.864 43.07-.91v3.69zm0-7.75c-1.402 14.06-27.638 15.917-37.15 9.5-8.226-4.771-7.619-13.011.6-17.71 4.42-2.63 10.18-3.95 15.86-3.95 8.256-.065 20.211 3.363 20.69 12.16zM226.195 157.915c8.754 5.194 22.933 4.858 31.67-.35 4.37-2.61 6.85-6.06 6.99-9.73l.01-.02v-8.03h-.02c-1.856-17.882-43.271-16.712-45.04.93h-.01v7.93h.01c.05 3.54 2.31 6.83 6.39 9.27zm1.11-26.07c4.42-2.63 10.18-3.96 15.87-3.96 5.4 0 10.74 1.2 14.78 3.61 8.231 4.765 7.614 13.008-.6 17.71-8.62 5.13-22.36 5.29-30.65.35-8.226-4.79-7.619-13.006.6-17.71zm-6.51 13.18c7.403 12.853 35.972 11.849 43.07-.92v3.7h-.01c-1.755 16.408-41.488 17.5-43.06.76v-3.54z"/>
  <path fill="#05192d" d="M330.355 117.345c-.07-1.22-.82-2.31-2.13-3.1l-42.3-25.22c.22-.46.33-.92.35-1.39h.01v-10.14c-.02-1.28-.77-2.44-2.14-3.25l-33.86-20.19c-2.96-1.76-8.13-1.55-11.53.47l-79.8 47.55c-1.87 1.11-2.93 2.62-2.93 4.15v10.14h.01c.02.59.21 1.16.55 1.67-.368.614-.567 1.263-.56 1.91.074.572-.201 10.963.21 11.11l-43.09 25.67c-1.891 1.142-2.989 2.672-2.92 4.26h-.01v9.99c.04 1.25.79 2.38 2.14 3.18l77.93 46.47c3.23 1.864 8.323 1.444 11.53-.47l125.62-74.84c1.854-1.112 2.926-2.604 2.93-4.14v-9.87h-.01c.047-.674-.15-1.343-.52-1.92.345-.6.526-1.227.53-1.85v-10.19h-.01zm-2.64-2.24c2.679 1.612 1.851 4.169-.79 5.71l-2.23 1.33-14.03-8.37v-1c0-.01.01-.03.01-.05-.019.002-.007-.219-.01-.23h-.01c-.893-9.99-14.319-13.371-23.66-12.83l-8.52-5.08c1.541-1.034 5.948-3.167 6.94-4.7l42.3 25.22zm-18.05 2.88c1.978 19.06-41.538 20.612-43.06 3.29h-.01v-3.55c7.387 12.805 35.886 11.913 43.07-.91v1.17zm-33.15-33.4c-13.473 8.016-59.238 35.29-73.48 43.77-3.06 1.83-7.87 2.04-10.51.47l-6.9-4.11c-.317-.216-7.798-4.643-8.39-5.01-4.16-2.459-10.407-6.211-14.57-8.68l13.05-7.77v2.89h.01c.81 9.759 13.206 12.979 21.69 12.99 9.626.151 24.035-4.616 23.37-15.37.003-.981-.002-5.432 0-6.48h-.02c-.398-7.227-8.268-10.888-14.58-12.19l15.34-9.14v2.89h.01c1.56 18.018 43.457 16.779 45.05-.8l.01-.02v-3.08l13.04 7.78c-.669.396-2.482 1.471-3.12 1.86zm-99.8 13.93c1.005-12.096 21.353-15.069 31.31-11.96 10.784 2.597 17.334 12.864 5.25 20.15-7.233 4.271-17.837 5.125-26.22 2.35-4.833-1.644-10.204-4.994-10.34-10.54zm.06 4.1c7.585 12.765 35.849 11.725 43.01-1.01-.037.688.026 2.075 0 2.75.019 10.073-14.08 14.072-23.15 13.79-7.721-.211-18.868-3.116-19.9-11.78-.052-.769-.004-2.909-.02-3.71l.06-.04zm45.75-31.39c0-3.42 2.31-6.68 6.51-9.18 8.452-5.038 22.176-5.373 30.65-.35 10.629 6.394 5.369 15.915-3.92 19.35-7.22 2.809-15.536 3.102-22.9.71-4.827-1.641-10.212-4.985-10.34-10.53zm.06 4.1c7.559 12.733 35.819 11.75 42.99-.99l.02.02c.008.816-.006 2.933 0 3.71-1.316 10.086-15.577 13.224-24.33 12.74-7.471-.441-17.778-3.483-18.72-11.73-.052-.775-.004-2.904-.02-3.71l.06-.04zm61.05-.22c2.681 1.613 1.848 4.169-.8 5.71l-2.22 1.32-14.02-8.36v-3.79h-.02c-.08-2.7-1.43-5.25-3.91-7.38l20.97 12.5zm-44.36-19.72c3.06-1.82 7.87-2.04 10.5-.47l7.5 4.47c-7.08-2.93-16.58-3.02-24.15-.33l6.15-3.67zm-14.37 8.56c-2.11 2.09-3.27 4.48-3.37 6.97h-.01v3.88l-16.84 10.03c-5.74-.89-12.06-.37-17.4 1.54l37.62-22.42zm-65.44 38.99 19.63-11.69c-2.11 2.09-3.27 4.48-3.36 6.97h-.02v3.88l-14.02 8.35-3.02-1.8c-2.693-1.623-1.839-4.169.79-5.71zm-1.3 16.57 5.67 3.38-2.14 1.28c-1.803-1.213-5.755-2.55-4.42-5.32.26.24.56.46.89.66zm4.5 5.24 2.15-1.28c2.604 1.554 8.776 5.232 11.44 6.83l15.76 9.39c1.35.81 3.15 1.2 5.04 1.2 2.26 0 4.64-.56 6.49-1.67l62.51-37.23c2.62-1.576 8.842-5.266 11.44-6.82l7.77 4.63c-7.811.668-19.109 4.991-19.65 13.63h-.02v7.93h.01c1.464 18.481 46.474 16.83 45.06-2.78.031-.768-.022-2.84 0-3.63l13.05 7.78c-6.268 3.664-68.733 41.008-76.6 45.64-3.06 1.82-7.87 2.04-10.51.47l-62.5-37.27c-2.599-1.565-8.863-5.271-11.44-6.82zm-5.95 7.19c.672 1.188 5.912 3.823 7.05 4.63l-4.89 2.91c-5.74-.89-12.05-.37-17.4 1.54l15.24-9.08zm-25.81 25.38.06-.04c7.49 12.726 35.937 11.74 43.01-1.02v3.7c-1.775 16.407-41.505 17.501-43.06.76h-.01v-3.4zm36.56 4.04c-8.61 5.13-22.36 5.29-30.64.35-7.959-4.495-7.836-12.943.6-17.71 8.589-5.017 21.798-5.458 30.64-.35 8.237 4.781 7.61 13.003-.6 17.71zm-54.6 1.94c-2.686-1.607-1.842-4.168.79-5.71l19.67-11.72c-2.13 2.1-3.31 4.5-3.4 7h-.02v3.88l-14.02 8.35-3.02-1.8zm88.44 46c-3.06 1.83-7.87 2.04-10.5.47l-73.94-44.09 13.04-7.77v2.89h.01c.561 9.317 12.913 13.09 21.69 13 9.151.122 22.568-4.107 23.37-13.8v-7.77c.002-.034.017-.053 0-.08v-.21h-.01c-.019-6.481-8.166-11.091-14.58-12.19l4.36-2.6 71.35 42.55c1.35.8 3.16 1.19 5.04 1.19 2.26 0 4.64-.56 6.49-1.66l74.01-44.1 2.08 1.24-122.41 72.93zm128.06-78.13c.178 1.968-2.957 3.648-4.67 4.62l-2.08-1.24c1.325-.876 5.609-3.069 6.56-4.27.12.29.19.58.19.89z"/>
</svg>
