<svg version="1.1" xmlns="http://www.w3.org/2000/svg" width="400" height="300" viewBox="0 0 400 300" xml:space="preserve">
  <style>
    .st2{fill:#05192d}
  </style>
  <path d="m374.3 173.454-17.047-10.164-17.047-10.165-17.047-10.164-17.047-10.165-17.047-10.164-17.047-10.164-17.049-10.168-17.047-10.164-17.047-10.164-17.536-10.456-17.715 10.554-17.715 10.555-17.715 10.555-17.715 10.555-17.715 10.555-17.715 10.555L79.334 145.4l-17.715 10.555-17.715 10.555L25.7 177.354l17.047 10.165 17.047 10.164 17.047 10.165 17.047 10.164 17.047 10.164 17.047 10.165 17.047 10.164 17.047 10.164 17.047 10.165 17.535 10.456 17.715-10.555 17.715-10.555 17.715-10.555 17.715-10.555 17.715-10.555 17.715-10.555 17.715-10.555 17.715-10.555 17.715-10.555 18.207-10.841zm-17.535-9.874 16.559 9.874-17.227 10.264-16.559-9.873c4.293-2.56 12.934-7.708 17.227-10.265zm-159.436 94.411-16.559-9.874 17.226-10.264 16.559 9.873-17.226 10.265zm-135.89-81.027L78.666 166.7l16.559 9.874-17.227 10.264-16.559-9.874zM219.23 102.69l-17.226 10.264-16.559-9.873 17.227-10.264 16.558 9.873zm85.057 71.253-16.559-9.874 17.226-10.264 16.559 9.873-17.226 10.265zm-106.29 63.328-16.559-9.873 17.227-10.264 16.559 9.874-17.227 10.263zM96.201 176.574l17.226-10.264 16.559 9.873-17.226 10.264-16.559-9.873zm105.802-63.038 16.559 9.874-17.227 10.264-16.559-9.873 17.227-10.265zm84.748 50.533-17.227 10.264-16.559-9.873 17.226-10.264c4.129 2.46 12.434 7.412 16.56 9.873zm-88.086 52.483-16.559-9.873 17.226-10.264 16.559 9.873-17.226 10.264zm-67.702-40.368 17.226-10.264 16.559 9.873-17.226 10.264-16.559-9.873zm70.372-41.928 16.559 9.873-17.227 10.264-16.559-9.874 17.227-10.263zm50.654 30.203-17.227 10.264-16.559-9.873 17.227-10.264 16.559 9.873zm-52.657 31.373-16.559-9.874L200 175.694l16.559 9.874-17.227 10.264zm-33.606-20.038 17.227-10.264 16.559 9.873-17.227 10.264-16.559-9.873zm34.941-20.818 16.559 9.873L200 175.113l-16.559-9.873 17.226-10.264zm16.38 30.302-16.559-9.874 17.226-10.264 16.559 9.873-17.226 10.265zm17.895-30.984-17.227 10.264-16.559-9.873 17.227-10.264 16.559 9.873zm-34.763.39-17.226 10.264-16.559-9.874 17.226-10.264 16.559 9.874zm-17.715 10.555-17.227 10.264-16.559-9.873 17.227-10.264 16.559 9.873zm-34.453 21.11 17.226-10.264 16.559 9.873-17.226 10.264-16.559-9.873zm17.047 10.165 17.226-10.264 16.559 9.874-17.226 10.264-16.559-9.874zm51.322 9.483-16.559-9.873 17.227-10.264 16.559 9.873-17.227 10.264zm17.715-10.555-16.559-9.873 17.226-10.264 16.559 9.874-17.226 10.263zm17.715-10.554-16.559-9.874 17.227-10.264 16.559 9.873-17.227 10.265zm9.281-25.852-8.613 5.132-16.559-9.873 17.227-10.264 16.559 9.873-8.614 5.132zm-8.434-15.296-17.226 10.264-16.559-9.874 17.226-10.264 16.559 9.874zm-25.661-5.034-8.613 5.132-16.559-9.873 17.227-10.264 16.559 9.873-8.614 5.132zm-26.149-4.741-17.227 10.264-16.559-9.873 17.227-10.264 16.559 9.873zm-34.274.681 16.559 9.874-17.227 10.264-16.559-9.873c4.294-2.56 12.934-7.708 17.227-10.265zm-1.156 20.428-17.227 10.264-16.559-9.874 17.227-10.264 16.559 9.874zm-34.274.681 16.559 9.874-17.226 10.264-16.559-9.873 17.226-10.265zm-17.894 30.984 17.226-10.264 16.559 9.873-17.226 10.264-16.559-9.873zm17.047 10.164 17.226-10.264 16.559 9.874-17.227 10.264-16.558-9.874zm17.047 10.165 17.227-10.264 16.559 9.873-17.227 10.264-16.559-9.873zm17.047 10.165 17.227-10.264 16.559 9.873-17.227 10.264-16.559-9.873zm51.322 9.484-16.559-9.874 17.226-10.264 16.559 9.874-17.226 10.264zm17.715-10.555-16.559-9.874 17.227-10.264 16.559 9.873-17.227 10.265zm17.715-10.555-16.559-9.873 17.226-10.264 16.559 9.873-17.226 10.264zm17.715-10.555-16.559-9.873 17.226-10.264 16.559 9.874-17.226 10.263zm17.715-10.555-16.559-9.874 17.227-10.264 16.559 9.874-17.227 10.264zm17.894-30.983-17.226 10.264-16.559-9.873 17.226-10.264 16.559 9.873zm-34.273.099-16.559-9.873 17.226-10.264 16.559 9.874-17.226 10.263zm.179-20.429-17.226 10.264-16.559-9.874 17.226-10.264 16.559 9.874zm-34.274.1-16.559-9.873 17.226-10.264 16.559 9.873-17.226 10.264zm.179-20.429-17.226 10.264-16.559-9.874 17.226-10.264 16.559 9.874zm-51.321-9.484 16.559 9.873-17.226 10.264-16.559-9.874 17.226-10.263zm-17.715 10.555L183.8 123.8l-17.227 10.264-16.559-9.874 17.227-10.264zm-17.716 10.555 16.559 9.874-17.226 10.264-16.559-9.873 17.226-10.265zm-17.715 10.555 16.559 9.873-17.227 10.264-16.559-9.873 17.227-10.264zm-17.715 10.555 16.559 9.873-17.226 10.264-16.559-9.874 17.226-10.263zM96.38 156.145l16.559 9.874-17.226 10.264-16.559-9.874 17.226-10.264zm-17.894 30.984 17.227-10.264 16.559 9.873-17.227 10.264-16.559-9.873zm17.047 10.164 17.227-10.264 16.559 9.873-17.227 10.264-16.559-9.873zm17.048 10.165 17.227-10.264 16.559 9.874-17.226 10.264-16.56-9.874zm17.047 10.165 17.226-10.264 16.559 9.873-17.226 10.264-16.559-9.873zm17.047 10.165 17.226-10.264 16.559 9.874-17.226 10.264-16.559-9.874zm17.048 10.165 17.226-10.264 16.559 9.873-17.226 10.264-16.559-9.873zm51.321 9.483-16.559-9.873 17.227-10.264 16.559 9.873-17.227 10.264zm17.715-10.555-16.559-9.873 17.226-10.264 16.559 9.873-17.226 10.264zm17.715-10.555-16.559-9.873 17.227-10.264 16.559 9.874-17.227 10.263zm17.716-10.554-16.559-9.874 17.226-10.264 16.559 9.873-17.226 10.265zm17.714-10.555-16.559-9.873 17.226-10.264 16.559 9.873-17.226 10.264zm17.715-10.555-16.559-9.873 17.227-10.264 16.559 9.873-17.227 10.264zm17.716-10.555-16.559-9.873 17.226-10.264 16.559 9.874-17.226 10.263zm18.382-30.692 16.559 9.874-17.227 10.264-16.559-9.874 17.227-10.264zM322.67 143.25l16.559 9.873-17.227 10.264-16.559-9.873 17.227-10.264zm-17.047-10.165 16.559 9.874-17.227 10.264-16.559-9.873 17.227-10.265zm-17.048-10.164 16.559 9.873-17.227 10.264-16.559-9.874 17.227-10.263zm-17.047-10.165 16.559 9.873-17.227 10.264-16.559-9.873 17.227-10.264zm-17.048-10.165 16.559 9.874-17.227 10.264-16.559-9.873 17.227-10.265zm-17.047-10.164 16.559 9.873-17.227 10.264-16.559-9.874 17.227-10.263zm-17.047-10.165 16.559 9.873-17.227 10.264-16.559-9.873 17.227-10.264zm-34.274.099 17.227-10.264 16.559 9.874-17.226 10.264-16.56-9.874zm-17.716 10.555 17.227-10.264 16.559 9.874-17.227 10.264-16.559-9.874zm-17.714 10.555 17.226-10.264 16.559 9.873-17.226 10.264-16.559-9.873zm-17.716 10.554 17.227-10.264 16.559 9.873-17.227 10.264-16.559-9.873zm-17.715 10.555 17.226-10.264 16.559 9.873-17.226 10.264-16.559-9.873zm-17.715 10.555 17.227-10.264 16.559 9.874-17.227 10.264-16.559-9.874zM79.821 145.69l17.226-10.264 16.559 9.873-17.226 10.264-16.559-9.873zm-17.715 10.555 17.226-10.264 16.559 9.873-17.226 10.264-16.559-9.873zm-17.715 10.554 17.227-10.264 16.559 9.873-17.227 10.264-16.559-9.873zm-1.156 20.429-16.559-9.874 17.226-10.264 16.559 9.874-17.226 10.264zm17.048 10.164-16.559-9.873 17.226-10.264 16.559 9.873-17.226 10.264zm17.047 10.166-16.559-9.874 17.226-10.264 16.559 9.873-17.226 10.265zm17.047 10.164-16.559-9.873 17.226-10.264 16.559 9.874-17.226 10.263zm17.048 10.165-16.559-9.873 17.226-10.264 16.559 9.873-17.226 10.264zm17.047 10.165-16.559-9.874 17.226-10.264 16.559 9.873-17.226 10.265zm17.048 10.164-16.559-9.873 17.226-10.264 16.559 9.874-17.226 10.263zm17.047 10.165-16.559-9.873 17.226-10.264 16.559 9.873-17.226 10.264zm17.047 10.165-16.559-9.874 17.226-10.264 16.559 9.874-17.226 10.264zm34.274-.099-17.227 10.264-16.559-9.873 17.226-10.264 16.56 9.873zm17.715-10.555-17.226 10.264-16.559-9.873 17.226-10.264 16.559 9.873zm17.715-10.555-17.227 10.264-16.559-9.874 17.227-10.264 16.559 9.874zm17.715-10.555-17.226 10.264-16.559-9.873 17.226-10.264 16.559 9.873zm17.716-10.555-17.227 10.264-16.559-9.873 17.227-10.264 16.559 9.873zm17.714-10.554-17.226 10.264-16.559-9.873 17.226-10.264c4.128 2.46 12.433 7.412 16.559 9.873zm17.715-10.555-17.226 10.264-16.559-9.874 17.226-10.264 16.559 9.874zm17.716-10.555-17.227 10.264-16.559-9.874 17.227-10.264 16.559 9.874zm17.714-10.555-17.226 10.264-16.559-9.873 17.226-10.264 16.559 9.873z" fill="#03ef62"/>
  <path d="M100.032 155.526c-1.878 0-3.58-.401-4.793-1.128l-33.851-20.181c-1.15-.686-1.799-1.602-1.877-2.647l-.028-.375.019-9.714-.008-.097c-.002-1.362.977-2.718 2.684-3.737l125.62-74.839c1.704-1.015 3.978-1.598 6.238-1.598 1.867 0 3.564.4 4.78 1.127l33.85 20.19c1.223.727 1.896 1.739 1.896 2.851v.5l.009.001-.019 9.361.007.096c-.001.04-.016.227-.016.227-.088 1.287-1.06 2.571-2.666 3.524l-125.621 74.84c-1.695 1.016-3.963 1.599-6.224 1.599z" fill="#ff6ea9"/>
  <path class="st2" d="M235.071 65.446h-.02c0-.02.01-.05.01-.07 0-1.3-.76-2.46-2.14-3.28l-33.85-20.19c-2.96-1.77-8.14-1.55-11.53.47l-125.62 74.84c-1.86 1.11-2.93 2.62-2.93 4.15 0 .05.01.09.01.14l-.02 10.1h.03c.09 1.2.83 2.27 2.12 3.04l33.85 20.18c1.35.81 3.16 1.2 5.05 1.2 2.26 0 4.63-.56 6.48-1.67l125.62-74.84c1.77-1.05 2.81-2.47 2.91-3.92h.01v-.08c0-.05.01-.1.01-.14 0-.06-.01-.11-.01-.16l.02-9.77zm-63.77-2.23.06-.04c1.04 1.99 2.85 3.8 5.35 5.29 4.17 2.49 9.69 3.73 15.29 3.73 5.87 0 11.82-1.37 16.37-4.08 2.83-1.68 4.86-3.71 5.98-5.93l.02.01v3.66c-.13 3.31-2.44 6.47-6.51 8.9-8.61 5.13-22.36 5.29-30.64.35-3.8-2.26-5.9-5.28-5.92-8.49v-3.4zm43.07-5.12c0 .9-.16 1.78-.48 2.65-.11.31-.24.62-.4.93-1.03 2.06-2.94 3.98-5.63 5.58-8.61 5.13-22.36 5.29-30.64.35-2.35-1.4-4.05-3.08-5.01-4.93-.16-.3-.29-.61-.41-.92a7.49 7.49 0 0 1-.5-2.68c0-3.42 2.32-6.68 6.52-9.18 4.41-2.63 10.17-3.96 15.86-3.96 5.41 0 10.74 1.2 14.78 3.61 3.8 2.27 5.9 5.29 5.91 8.5v.05zm-26.32-14.86c1.68-1.01 3.9-1.52 5.99-1.52 1.7 0 3.33.34 4.51 1.05l7.5 4.47c-7.08-2.94-16.59-3.03-24.16-.33l6.16-3.67zm-14.37 8.56c-2.11 2.09-3.27 4.48-3.36 6.97h-.02v3.88l-16.83 10.03c-5.72-.89-12.01-.39-17.34 1.5l37.55-22.38zm-48.19 38.71.06-.03c1.05 1.99 2.86 3.8 5.35 5.28 4.18 2.49 9.7 3.73 15.29 3.73 5.87 0 11.82-1.36 16.37-4.08 2.85-1.69 4.88-3.73 6-5.96v3.7c-.13 3.32-2.44 6.48-6.51 8.9-8.61 5.14-22.36 5.29-30.64.35-3.8-2.26-5.9-5.28-5.91-8.49h-.01v-3.4zm36.56 4.04c-8.61 5.13-22.36 5.29-30.64.35-2.35-1.4-4.05-3.09-5-4.94-.16-.3-.3-.61-.41-.92-.33-.86-.5-1.76-.5-2.67 0-3.42 2.31-6.68 6.51-9.18 4.41-2.63 10.18-3.95 15.86-3.95 1.42 0 2.85.08 4.24.25.53.06 1.05.14 1.57.23 3.3.55 6.4 1.59 8.97 3.12 3.8 2.27 5.9 5.29 5.91 8.51v.05c-.01 3.41-2.32 6.66-6.51 9.15zm-34.16-15.47c-2.13 2.1-3.29 4.48-3.38 6.98h-.02v3.88l-16.83 10.03c-5.76-.89-12.08-.37-17.43 1.55l37.66-22.44zm-48.21 38.73.06-.04c1.05 2 2.86 3.8 5.35 5.28 4.18 2.5 9.7 3.73 15.29 3.73 5.87 0 11.82-1.36 16.38-4.08 2.84-1.69 4.87-3.73 5.99-5.95v3.69c-.12 3.32-2.43 6.48-6.5 8.91-8.62 5.13-22.36 5.28-30.65.35-3.79-2.27-5.89-5.28-5.91-8.49h-.01v-3.4zm36.57 4.04c-8.62 5.13-22.36 5.28-30.65.35-2.35-1.4-4.05-3.09-5.01-4.94-.15-.3-.29-.61-.4-.92a7.49 7.49 0 0 1-.5-2.68c0-3.41 2.31-6.67 6.51-9.18 4.42-2.63 10.18-3.95 15.86-3.95 1.42 0 2.84.08 4.23.26.53.05 1.06.13 1.58.22 3.31.55 6.4 1.59 8.97 3.12 3.81 2.27 5.91 5.29 5.91 8.51v.05c-.01 3.41-2.32 6.66-6.5 9.16zm-54.61 1.94c-1.06-.64-1.65-1.5-1.65-2.42 0-1.17.89-2.36 2.44-3.29l19.65-11.71c-2.12 2.1-3.29 4.49-3.38 6.99h-.02v3.88l-14.02 8.35-3.02-1.8zm44.36 19.71c-3.06 1.83-7.87 2.05-10.5.47l-29.86-17.8 13.04-7.77v2.89h.01c.06 3.54 2.32 6.83 6.4 9.26 4.18 2.5 9.7 3.73 15.29 3.73 5.87 0 11.82-1.36 16.38-4.08 4.37-2.6 6.85-6.05 6.99-9.72v-7.77c0-.01.01-.03.01-.05 0 0-.01-.01-.01-.02v-.21h-.01c-.1-3.5-2.35-6.75-6.38-9.15-2.38-1.42-5.19-2.43-8.2-3.04l15.33-9.13v2.88h.01c.05 3.55 2.32 6.84 6.4 9.27 4.18 2.49 9.7 3.73 15.29 3.73 5.87 0 11.82-1.36 16.37-4.08 4.38-2.6 6.86-6.06 7-9.72v-8.06h-.01c-.1-3.5-2.35-6.74-6.39-9.15-2.37-1.41-5.18-2.42-8.18-3.04l15.32-9.12v2.88h.01c.05 3.55 2.32 6.84 6.4 9.27 4.17 2.49 9.69 3.73 15.29 3.73 5.87 0 11.82-1.37 16.37-4.08 4.37-2.61 6.86-6.06 7-9.72v-3.1l13.04 7.77-122.41 72.93zm125.62-74.84-2.23 1.33-14.02-8.36v-3.79h-.02c-.08-2.72-1.45-5.28-3.95-7.41l21.01 12.52c1.06.64 1.65 1.5 1.65 2.43 0 1.16-.89 2.36-2.44 3.28z"/>
  <path d="M188.902 236.856c-1.865 0-3.564-.401-4.784-1.129l-77.941-46.47c-1.197-.713-1.87-1.708-1.896-2.802v-9.398l.01-.524-.007-.099c-.002-1.373.977-2.729 2.684-3.748l34-20.25c1.705-1.018 3.976-1.601 6.232-1.601 1.867 0 3.567.402 4.786 1.131l77.931 46.47c1.23.726 1.906 1.738 1.906 2.851a.828.828 0 0 0-.01.13v.5h.01v9.417l-.019.155c-.098 1.285-1.074 2.567-2.676 3.518l-33.991 20.25c-1.711 1.016-3.983 1.599-6.235 1.599z" fill="#7933ff"/>
  <path class="st2" d="M232.321 201.286c0-1.29-.76-2.46-2.15-3.28l-77.93-46.47c-2.96-1.77-8.13-1.56-11.53.47l-34 20.25c-1.86 1.11-2.93 2.63-2.93 4.15 0 .05.01.1.01.15h-.01v9.91c.03 1.27.78 2.41 2.14 3.22l77.94 46.47c1.34.8 3.15 1.2 5.04 1.2 2.26 0 4.64-.57 6.49-1.67l33.99-20.25c1.77-1.05 2.81-2.47 2.92-3.91h.02v-10.11h-.01c0-.05.01-.09.01-.13zm-20.69-3.17v3.65h-.01c-.12 3.32-2.43 6.48-6.5 8.9-8.62 5.14-22.36 5.29-30.65.35-3.79-2.26-5.89-5.27-5.91-8.48h-.01v-3.55c1.04 2.03 2.87 3.88 5.41 5.39 4.18 2.49 9.7 3.73 15.29 3.73 5.87 0 11.82-1.36 16.38-4.08 2.83-1.68 4.86-3.71 5.98-5.92l.02.01zm0-4.1c0 .89-.16 1.78-.48 2.64-.1.31-.24.62-.4.93-1.02 2.07-2.94 3.98-5.63 5.58-8.62 5.14-22.36 5.29-30.65.35-3.81-2.27-5.91-5.3-5.91-8.53 0-3.42 2.31-6.68 6.51-9.18 2.91-1.73 6.41-2.9 10.08-3.48.52-.09 1.05-.17 1.58-.23 1.39-.16 2.8-.24 4.21-.24 5.4 0 10.74 1.2 14.78 3.6 3.8 2.27 5.9 5.29 5.91 8.51v.05zm-8.35-10.88c-5.24-2.16-11.8-2.77-17.92-1.86l-16.82-10.02v-3.5c.01-.02.01-.04.01-.05s-.01-.02-.01-.03v-.21h-.01c-.08-2.71-1.44-5.27-3.93-7.4l38.68 23.07zm-78.81-10.29.06-.04c1.04 1.99 2.85 3.8 5.35 5.29 4.18 2.49 9.7 3.73 15.29 3.73 5.87 0 11.82-1.37 16.38-4.08 2.83-1.68 4.85-3.71 5.97-5.93l.02.01v3.66c-.12 3.31-2.43 6.47-6.5 8.9-8.62 5.13-22.36 5.29-30.65.35-3.79-2.26-5.89-5.28-5.91-8.49h-.01v-3.4zm42.19-1.55c-1.02 2.07-2.93 3.98-5.62 5.59-8.62 5.13-22.36 5.29-30.65.35-2.35-1.4-4.05-3.09-5-4.94-.16-.3-.3-.61-.41-.92-.33-.86-.5-1.76-.5-2.67 0-3.42 2.31-6.68 6.51-9.18 4.42-2.63 10.18-3.96 15.86-3.96 5.41 0 10.75 1.2 14.78 3.61 3.81 2.27 5.91 5.29 5.91 8.5v.05c-.01.9-.17 1.78-.49 2.64-.1.31-.24.62-.39.93zm-25.44-18.43c3.06-1.83 7.88-2.04 10.51-.47l7.5 4.47c-7.1-2.94-16.61-3.03-24.19-.32l6.18-3.68zm-34.79 25.96c-1.06-.63-1.65-1.49-1.65-2.42 0-1.16.89-2.36 2.44-3.29l19.66-11.71c-2.13 2.1-3.3 4.49-3.39 6.99h-.02v3.88l-14.02 8.35-3.02-1.8zm88.44 46c-3.06 1.83-7.87 2.04-10.5.47l-73.94-44.09 13.04-7.77v2.89h.02c.05 3.55 2.31 6.84 6.39 9.27 4.18 2.49 9.7 3.73 15.29 3.73 5.87 0 11.82-1.37 16.38-4.08 4.37-2.61 6.85-6.06 6.99-9.72v-3.11l15.3 9.13c-3.38.65-6.57 1.79-9.28 3.4-4.39 2.62-6.86 6.07-6.99 9.74h-.01l-.01 7.92h.02c.05 3.55 2.31 6.84 6.39 9.27 4.18 2.49 9.7 3.73 15.29 3.73 5.87 0 11.82-1.36 16.38-4.08 4.37-2.6 6.85-6.05 6.99-9.72l.01-.02v-3.08l13.04 7.78-30.8 18.34zm34-20.25-2.22 1.32-14.02-8.36v-3.79h-.02c-.08-2.7-1.44-5.25-3.91-7.38l20.96 12.5c1.07.63 1.66 1.49 1.66 2.42 0 1.16-.89 2.36-2.45 3.29z"/>
  <g>
    <path d="M258.362 195.365c-1.874 0-3.577-.397-4.795-1.12l-77.929-46.469c-1.222-.735-1.896-1.751-1.896-2.861v-9.99c.018-1.372.997-2.716 2.685-3.721l79.811-47.55c1.704-1.016 3.978-1.598 6.238-1.598 1.867 0 3.564.4 4.779 1.127l77.931 46.47c1.156.684 1.826 1.642 1.887 2.7l.009.155v9.996c-.018 1.373-.997 2.716-2.685 3.72l-79.811 47.55c-1.699 1.012-3.968 1.591-6.224 1.591z" fill="#06bdfc"/>
    <path class="st2" d="M275.681 145.616c-8.56-5.11-22.77-4.95-31.67.35-4.39 2.61-6.85 6.06-6.98 9.73h-.02v7.93h.01c.05 3.54 2.31 6.83 6.39 9.27 4.18 2.49 9.7 3.73 15.3 3.73 5.87 0 11.82-1.37 16.37-4.08 4.37-2.61 6.86-6.06 7-9.73v-8.05h-.02c-.1-3.5-2.34-6.75-6.38-9.15zm5.4 17.17c-.13 3.31-2.44 6.47-6.51 8.9-8.61 5.13-22.36 5.29-30.64.35-3.8-2.27-5.9-5.28-5.92-8.49v-3.54c1.04 2.03 2.87 3.87 5.4 5.39 4.18 2.49 9.7 3.73 15.3 3.73 5.87 0 11.82-1.37 16.37-4.08 2.84-1.7 4.88-3.74 6-5.96v3.7zm0-7.76c-.01 3.41-2.32 6.66-6.51 9.16-8.61 5.13-22.36 5.29-30.64.35-3.82-2.28-5.92-5.31-5.92-8.53 0-3.42 2.32-6.68 6.51-9.18 4.42-2.64 10.18-3.96 15.87-3.96 5.4 0 10.74 1.2 14.78 3.61 3.8 2.26 5.9 5.28 5.91 8.5v.05z"/>
    <path class="st2" d="M347.571 132.326c-.07-1.22-.81-2.32-2.13-3.1l-77.93-46.47c-2.96-1.77-8.14-1.55-11.53.47l-79.81 47.55c-1.85 1.1-2.91 2.6-2.93 4.11v10.03c0 1.3.76 2.46 2.14 3.29l77.93 46.47c1.35.8 3.16 1.19 5.05 1.19 2.26 0 4.63-.56 6.48-1.66l79.81-47.55c1.85-1.1 2.91-2.6 2.93-4.11V132.326h-.01zm-83.24 51.02c-3.06 1.82-7.87 2.04-10.5.47l-73.94-44.09 13.04-7.77v5.38h.01c.05 3.55 2.31 6.84 6.39 9.27 4.18 2.49 9.7 3.73 15.29 3.73 5.87 0 11.82-1.36 16.38-4.08 4.37-2.6 6.85-6.06 6.99-9.72l.01-.02v-8.04h-.02c-.1-3.5-2.34-6.74-6.38-9.15-3.24-1.93-7.27-3.11-11.53-3.54l18.66-11.12v5.38h.02c.05 3.55 2.31 6.84 6.39 9.27 4.18 2.49 9.7 3.73 15.29 3.73 5.87 0 11.82-1.37 16.38-4.08 4.37-2.6 6.85-6.06 6.99-9.72l.01-.02v-5.58l18.67 11.13c-4.61.46-9.06 1.75-12.66 3.89-4.39 2.62-6.85 6.07-6.99 9.74h-.01v7.93h.01c.05 3.54 2.31 6.83 6.39 9.26 4.18 2.5 9.7 3.73 15.29 3.73 5.87 0 11.82-1.36 16.38-4.08 4.37-2.6 6.85-6.05 6.99-9.72l.01-.02v-5.58l13.04 7.78-76.6 45.64zm-70.38-53.16c-.02-.15-.02-.31-.02-.47 0-3.42 2.31-6.68 6.51-9.18 4.42-2.63 10.18-3.95 15.87-3.95h.46c.61.01 1.22.03 1.83.08 4.6.28 9.02 1.45 12.49 3.52 3.8 2.27 5.9 5.29 5.91 8.51v.05c-.01 3.41-2.32 6.66-6.51 9.15-8.62 5.13-22.36 5.29-30.64.35-3.2-1.9-5.2-4.34-5.75-6.99a6.41 6.41 0 0 1-.15-1.07zm43.05 2.61v3.7h-.01c-.12 3.32-2.43 6.48-6.5 8.9-8.62 5.14-22.36 5.29-30.64.35-3.8-2.26-5.9-5.27-5.92-8.49v-3.54c1.03 2.03 2.86 3.88 5.4 5.39 4.18 2.49 9.7 3.73 15.29 3.73 5.87 0 11.82-1.36 16.38-4.08 2.84-1.69 4.88-3.73 6-5.96zm45.81-27.29v3.7h-.01c-.12 3.31-2.43 6.48-6.5 8.9-8.62 5.13-22.36 5.29-30.65.35-3.79-2.26-5.89-5.28-5.91-8.49h-.01v-3.54c1.04 2.03 2.87 3.88 5.41 5.39 4.18 2.49 9.7 3.73 15.29 3.73 5.87 0 11.82-1.37 16.38-4.08 2.84-1.69 4.88-3.73 6-5.96zm44.08 22.23c0 .14 0 .28-.02.42-.01.36-.06.72-.14 1.08-.57 2.85-2.78 5.53-6.35 7.66-8.62 5.13-22.36 5.28-30.65.34-3.81-2.27-5.91-5.3-5.91-8.53 0-3.41 2.31-6.67 6.51-9.18 3.84-2.28 8.68-3.58 13.61-3.88.62-.04 1.23-.06 1.85-.06.14-.01.27-.01.41-.01 5.4 0 10.74 1.2 14.78 3.6 3.8 2.27 5.9 5.29 5.91 8.51v.05zm0 4.06v3.69h-.01c-.12 3.32-2.43 6.48-6.5 8.91-8.62 5.13-22.36 5.28-30.65.34-3.79-2.26-5.89-5.27-5.91-8.48v-3.55c1.03 2.03 2.86 3.88 5.4 5.39 4.18 2.5 9.7 3.73 15.29 3.73 5.87 0 11.82-1.36 16.38-4.08 2.84-1.69 4.88-3.73 6-5.95zm19.69.72c0 1.16-.89 2.35-2.44 3.28l-2.23 1.33-14.02-8.36v-1.29h-.02c-.1-3.5-2.35-6.75-6.38-9.16-4.67-2.78-11.02-4-17.27-3.67l-20.41-12.17v-1.29h-.02c-.1-3.5-2.35-6.74-6.38-9.15-8.57-5.1-22.77-4.95-31.67.35-4.39 2.62-6.86 6.06-6.99 9.73h-.02v1.39l-20.39 12.15c-6.51-.36-13.32.99-18.41 4.02-4.39 2.62-6.85 6.06-6.99 9.73h-.01v1.39l-14.02 8.35-3.02-1.8c-1.06-.64-1.65-1.5-1.65-2.42v-.01c0-1.16.89-2.36 2.44-3.28l79.81-47.55c3.06-1.82 7.87-2.04 10.51-.47l77.93 46.47c1.06.63 1.65 1.49 1.65 2.42v.01z"/>
  </g>
</svg>
