<svg version="1.1" xmlns="http://www.w3.org/2000/svg" width="400" height="300" viewBox="0 0 400 300" xml:space="preserve">
  <path fill="#03ef62" d="m374.3 173.57-17.047-10.164-17.047-10.165-17.047-10.164-17.047-10.165-17.047-10.164-17.047-10.164-17.047-10.165-17.047-10.164-17.047-10.164-17.536-10.456-17.715 10.555-17.715 10.555-17.715 10.555-17.715 10.555-17.715 10.555-17.718 10.55-17.715 10.555-17.715 10.555-17.715 10.555L25.7 177.47l17.047 10.165L59.795 197.8l17.047 10.165 17.047 10.164 17.047 10.164 17.047 10.165 17.047 10.164 17.047 10.164 17.047 10.165 17.535 10.456 17.715-10.555 17.715-10.555 17.715-10.555 17.715-10.555 17.715-10.555 17.715-10.555 17.715-10.555 17.715-10.555 17.715-10.555L374.3 173.57zm-17.535-9.874 16.559 9.874-17.227 10.264-16.559-9.873 17.227-10.265zm-159.436 94.411-16.559-9.874 17.226-10.264 16.559 9.873c-4.293 2.559-12.933 7.708-17.226 10.265zm-135.89-81.026 17.227-10.264 16.559 9.874-17.227 10.264-16.559-9.874zm157.791-74.275-17.226 10.264-16.559-9.873 17.227-10.264 16.558 9.873zm85.057 71.253-16.559-9.874 17.226-10.264 16.559 9.873-17.226 10.265zm-106.29 63.329-16.559-9.873 17.227-10.264 16.559 9.874-17.227 10.263zM96.201 176.69l17.226-10.264 16.559 9.873-17.226 10.264-16.559-9.873zm105.802-63.038 16.559 9.874-17.227 10.264-16.559-9.873 17.227-10.265zm84.748 50.533-17.227 10.264-16.559-9.873 17.226-10.264c4.129 2.46 12.434 7.413 16.56 9.873zm-88.086 52.483-16.559-9.873 17.226-10.264 16.559 9.873-17.226 10.264zM130.963 176.3l17.226-10.264 16.559 9.873-17.226 10.264-16.559-9.873zm70.372-41.928 16.559 9.873-17.227 10.264-16.559-9.874 17.227-10.263zm50.654 30.203-17.227 10.264-16.559-9.873 17.227-10.264 16.559 9.873zm-52.657 31.374-16.559-9.874L200 175.811l16.559 9.874-17.227 10.264zm-33.606-20.039 17.227-10.264 16.559 9.873-17.227 10.264c-4.128-2.46-12.433-7.413-16.559-9.873zm34.941-20.818 16.559 9.873L200 175.229l-16.559-9.873 17.226-10.264zm16.38 30.302-16.559-9.874 17.226-10.264 16.559 9.873-17.226 10.265zm17.895-30.984-17.227 10.264-16.559-9.873 17.227-10.264 16.559 9.873zm-34.763.391-17.226 10.264-16.559-9.874 17.226-10.264 16.559 9.874zm-17.715 10.554-17.227 10.264-16.559-9.873 17.227-10.264 16.559 9.873zm-34.453 21.11 17.226-10.264 16.559 9.873-17.226 10.264-16.559-9.873zm17.047 10.165 17.226-10.264 16.559 9.874-17.226 10.264-16.559-9.874zm51.322 9.483-16.559-9.873 17.227-10.264 16.559 9.873-17.227 10.264zm17.715-10.555-16.559-9.873 17.226-10.264 16.559 9.874-17.226 10.263zm17.715-10.554-16.559-9.874 17.227-10.264 16.559 9.873-17.227 10.265zm9.281-25.852-8.613 5.132-16.559-9.873 17.227-10.264 16.559 9.873-8.614 5.132zm-8.434-15.296-17.226 10.264-16.559-9.874 17.226-10.264 16.559 9.874zm-25.661-5.033-8.613 5.132-16.559-9.873 17.227-10.264 16.559 9.873-8.614 5.132zm-26.149-4.742-17.227 10.264-16.559-9.873 17.227-10.264 16.559 9.873zm-34.274.681 16.559 9.874-17.227 10.264-16.559-9.873 17.227-10.265zm-1.156 20.428-17.227 10.264-16.559-9.874 17.227-10.264 16.559 9.874zm-34.274.681 16.559 9.874-17.226 10.264-16.559-9.873 17.226-10.265zm-17.894 30.984 17.226-10.264 16.559 9.873-17.226 10.264-16.559-9.873zm17.047 10.164 17.226-10.264 16.559 9.874-17.227 10.264-16.558-9.874zm17.047 10.166 17.227-10.264 16.559 9.873-17.227 10.264-16.559-9.873zm17.047 10.164 17.227-10.264 16.559 9.873-17.227 10.264-16.559-9.873zm51.322 9.484-16.559-9.874 17.226-10.264 16.559 9.874-17.226 10.264zm17.715-10.555-16.559-9.874 17.227-10.264 16.559 9.873-17.227 10.265zm17.715-10.555-16.559-9.873 17.226-10.264 16.559 9.873-17.226 10.264zm17.715-10.555-16.559-9.873 17.226-10.264 16.559 9.874-17.226 10.263zm17.715-10.554-16.559-9.874 17.227-10.264 16.559 9.874-17.227 10.264zm17.894-30.984-17.226 10.264-16.559-9.873 17.226-10.264 16.559 9.873zm-34.273.099-16.559-9.873 17.226-10.264 16.559 9.874-17.226 10.263zm.179-20.428-17.226 10.264-16.559-9.874 17.226-10.264 16.559 9.874zm-34.274.099-16.559-9.873 17.226-10.264 16.559 9.873-17.226 10.264zm.179-20.428-17.226 10.264-16.559-9.874 17.226-10.264 16.559 9.874zm-51.321-9.484 16.559 9.873-17.226 10.264-16.559-9.874 17.226-10.263zm-17.715 10.554 16.559 9.874-17.227 10.264-16.559-9.874 17.227-10.264zm-17.716 10.555 16.559 9.874-17.226 10.264-16.559-9.873 17.226-10.265zm-17.715 10.555 16.559 9.873-17.227 10.264-16.559-9.873 17.227-10.264zm-17.715 10.555 16.559 9.873-17.226 10.264-16.559-9.874 17.226-10.263zM96.38 156.262l16.559 9.874L95.713 176.4l-16.559-9.874 17.226-10.264zm-17.894 30.983 17.227-10.264 16.559 9.873-17.227 10.264-16.559-9.873zm17.047 10.165 17.227-10.264 16.559 9.873-17.227 10.264-16.559-9.873zm17.048 10.165 17.227-10.264 16.559 9.874-17.226 10.264-16.56-9.874zm17.047 10.164 17.226-10.264 16.559 9.873-17.226 10.264-16.559-9.873zm17.047 10.165 17.226-10.264 16.559 9.874-17.226 10.264-16.559-9.874zm17.048 10.165 17.226-10.264 16.559 9.873-17.226 10.264-16.559-9.873zm51.321 9.483-16.559-9.873 17.227-10.264 16.559 9.873-17.227 10.264zm17.715-10.555-16.559-9.873 17.226-10.264 16.559 9.873-17.226 10.264zm17.715-10.554-16.559-9.873 17.227-10.264 16.559 9.874-17.227 10.263zm17.716-10.555-16.559-9.874 17.226-10.264 16.559 9.873-17.226 10.265zm17.714-10.555-16.559-9.873 17.226-10.264 16.559 9.873-17.226 10.264zm17.715-10.555-16.559-9.873 17.227-10.264 16.559 9.873-17.227 10.264zm17.716-10.555-16.559-9.873 17.226-10.264 16.559 9.874-17.226 10.263zm18.382-30.692 16.559 9.874-17.227 10.264-16.559-9.874 17.227-10.264zm-17.047-10.164 16.559 9.873-17.227 10.264-16.559-9.873 17.227-10.264zm-17.047-10.165 16.559 9.874-17.227 10.264-16.559-9.873c4.293-2.56 12.934-7.708 17.227-10.265zm-17.048-10.165 16.559 9.873-17.227 10.264-16.559-9.874 17.227-10.263zm-17.047-10.165 16.559 9.873-17.227 10.264-16.559-9.873 17.227-10.264zm-17.048-10.165 16.559 9.874-17.227 10.264-16.559-9.873 17.227-10.265zm-17.047-10.164 16.559 9.873-17.227 10.264-16.559-9.874 17.227-10.263zm-17.047-10.165 16.559 9.873-17.227 10.264-16.559-9.873 17.227-10.264zm-34.274.099 17.227-10.264 16.559 9.874-17.226 10.264-16.56-9.874zm-17.716 10.555 17.227-10.264 16.559 9.874-17.227 10.264-16.559-9.874zm-17.714 10.555 17.226-10.264 16.559 9.873-17.226 10.264-16.559-9.873zm-17.716 10.554 17.227-10.264 16.559 9.873-17.227 10.264-16.559-9.873zm-17.715 10.555 17.226-10.264 16.559 9.873-17.226 10.264-16.559-9.873zm-17.715 10.555 17.227-10.264 16.559 9.874-17.227 10.264-16.559-9.874zm-17.715 10.555 17.226-10.264 16.559 9.873-17.226 10.264-16.559-9.873zm-17.715 10.555 17.226-10.264 16.559 9.873-17.226 10.264-16.559-9.873zm-17.715 10.554 17.227-10.264 16.559 9.873-17.227 10.264-16.559-9.873zm-1.156 20.429-16.559-9.874 17.226-10.264 16.559 9.874-17.226 10.264zm17.048 10.165-16.559-9.873 17.226-10.264 16.559 9.873-17.226 10.264zm17.047 10.165L60.771 197.8l17.226-10.264 16.559 9.873-17.226 10.265zm17.047 10.164-16.559-9.873 17.226-10.264 16.559 9.874-17.226 10.263zm17.048 10.165-16.559-9.873 17.226-10.264 16.559 9.873-17.226 10.264zm17.047 10.165-16.559-9.874 17.226-10.264 16.559 9.873-17.226 10.265zm17.048 10.164-16.559-9.873 17.226-10.264 16.559 9.874-17.226 10.263zm17.047 10.165-16.559-9.873 17.226-10.264 16.559 9.873-17.226 10.264zm17.047 10.165-16.559-9.874 17.226-10.264 16.559 9.874-17.226 10.264zm34.274-.099-17.227 10.264-16.559-9.873 17.226-10.264 16.56 9.873zm17.715-10.555-17.226 10.264-16.559-9.873 17.226-10.264 16.559 9.873zm17.715-10.555-17.227 10.264-16.559-9.874 17.227-10.264 16.559 9.874zm17.715-10.555-17.226 10.264-16.559-9.873 17.226-10.264 16.559 9.873zm17.716-10.554-17.227 10.264-16.559-9.873 17.227-10.264 16.559 9.873zm17.714-10.555-17.226 10.264-16.559-9.873 17.226-10.264c4.128 2.46 12.433 7.412 16.559 9.873zm17.715-10.555-17.226 10.264-16.559-9.874 17.226-10.264 16.559 9.874zm17.716-10.555-17.227 10.264-16.559-9.874 17.227-10.264 16.559 9.874zm17.714-10.555-17.226 10.264-16.559-9.873 17.226-10.264 16.559 9.873z"/>
  <path d="M301.04 227.679c-.669 0-1.399-.229-2.11-.661l-110.534-65.862c-2.869-1.711-5.164-6.19-5.116-9.984l.061-5.557-.016-.063c-.851-3.321-1.239-6.424-1.125-8.973.049-2.952.479-5.513 1.278-7.626l.031-.083.452-42.614-.016-.063c-.842-3.288-1.231-6.388-1.125-8.965.05-2.958.483-5.519 1.288-7.622l.032-.084.241-23.279c.018-1.803.591-3.238 1.571-3.938l.072-.052c.041-.024.219-.138.219-.138l9.898-5.942.078-.041c.396-.226.836-.34 1.311-.34.672 0 1.388.224 2.125.666l110.521 65.86c2.865 1.709 5.165 6.189 5.126 9.986l-1.11 104.929c-.018 1.943-.661 3.427-1.766 4.085h-.022l-9.538 5.68c-.578.466-1.172.681-1.826.681z" fill="#ff6ea9"/>
  <path d="M264.949 249.214c-.629 0-1.309-.216-2.078-.661l-70.215-41.847c-2.869-1.712-5.164-6.19-5.116-9.984l.058-5.566-.016-.064c-.846-3.29-1.235-6.386-1.124-8.954.043-2.928.475-5.49 1.284-7.627l.031-.083.447-42.632-.016-.064c-.844-3.287-1.231-6.38-1.121-8.943.043-2.924.474-5.484 1.281-7.621l.031-.083.244-23.293c.071-2.312.746-3.634 2.185-4.279l9.677-5.841a2.638 2.638 0 0 1 1.297-.328c.67 0 1.382.223 2.115.662l70.211 41.85c2.866 1.695 5.165 6.169 5.126 9.976l-1.1 104.93c-.027 1.963-.686 3.458-1.81 4.105l-.07.023-.096.086c-.52.285-1.983 1.16-6.504 3.864l-2.788 1.667h-.034l-.078.06-.072.029-.016.041a2.19 2.19 0 0 1-.349.227l-.219.093a2.806 2.806 0 0 1-1.165.257z" fill="#06bdfc"/>
  <path d="M188.286 246.786c-2.26-.659-15.93-8.989-23.398-13.54-5.671-3.457-7.795-4.741-8.353-4.978-2.855-1.726-5.133-6.186-5.085-9.966l.058-5.563-.016-.064c-.846-3.291-1.235-6.387-1.125-8.955.043-2.929.475-5.491 1.285-7.628l.031-.083.447-42.63-.016-.064c-.844-3.287-1.232-6.379-1.122-8.944.043-2.926.474-5.485 1.282-7.622l.031-.083.244-23.294c.019-1.972.687-3.47 1.833-4.108.026-.014 10.056-6.029 10.056-6.029a2.594 2.594 0 0 1 1.255-.308c.665 0 1.402.228 2.13.66l29.909 17.829c2.865 1.709 5.164 6.184 5.125 9.976l-1.11 104.93c-.038 2.121-.742 3.611-1.982 4.192l.104-.023c-.231.096-1.026.575-4.988 2.961l-4.835 2.912a2.62 2.62 0 0 1-1.436.414h-.322l-.002.008z" fill="#7933ff"/>
  <path fill="#03ef62" d="M169.824 174.87c-1.641 0-3.391-.554-5.204-1.647-7.693-4.59-13.863-17.552-13.752-28.893-.057-4.902 1.312-9.137 3.754-11.607 1.461-1.478 3.27-2.259 5.23-2.259 1.653 0 3.406.542 5.211 1.61 7.701 4.594 13.867 17.561 13.745 28.906.147 4.582-1.293 9.024-3.76 11.571-1.468 1.517-3.274 2.319-5.224 2.319z"/>
  <path fill="#05192d" d="m310.43 101.885-110.52-65.86c-1.42-.85-2.82-.97-3.94-.33h-.01l-9.96 5.98c-.04.02-.29.19-.34.21v.01c-1.12.8-1.76 2.36-1.78 4.34l-.24 23.19c-1.835 5.093-1.69 11.036-.18 16.89l-.27 25.85-15.11-9.01c-1.4-.83-2.79-.96-3.9-.35l-.28.17c-.07.04-9.69 5.81-9.76 5.85-1.31.73-2.07 2.39-2.09 4.54l-.24 23.22c-1.821 5.078-1.688 11.013-.18 16.85l-.45 42.48c-1.816 5.098-1.689 11.045-.17 16.9l-.06 5.48c-.05 3.96 2.36 8.63 5.36 10.42 1 .26 31.77 19.73 32.3 18.56.6 0 1.19-.16 1.7-.49l9.67-5.82c1.48-.69 2.23-2.4 2.27-4.64l.25-23.18 60.12 35.84c1.27.73 2.47.98 3.71.42v.01c.25-.11.49-.24.69-.42.009.003.03-.007.03-.01.03-.01 9.44-5.65 9.47-5.65.01-.02.03-.02.04-.03 1.3-.72 2.06-2.38 2.09-4.54l.24-23.1 19.78 11.78c1.48.9 3.14 1.06 4.45-.02l9.42-5.61c.03 0 .04-.02.07-.03 1.3-.73 2.06-2.39 2.08-4.55l1.11-104.93c.04-3.95-2.37-8.63-5.37-10.42zm-125.55-55.64c-.015-3.026 1.812-5 4.51-3.36l4.43 2.64-.16 14.93c-2.654 1.743-7.491 3.751-9 6.81l.22-21.02zm32.87 43.42-7.46-4.45c-2.712-10.94-8.966-21.356-18.68-22.37.682-.412 2.933-1.735 3.85-2.3 12.05-6.474 23.138 17.355 22.29 29.12zm-34.43-12.44c-.292-6.093 3.057-14.971 10.31-13.14 7.943 2.521 12.696 10.939 15.41 20.39l-4.87-2.91c-1.537-.9-2.989-.97-4.19-.16l-9.36 5.65c-3.236 1.966-2.267 3.917-2.53 8.66-2.952-5.529-4.824-12.142-4.77-18.49zm24.35 28.77c10.686 5.165 20.042 29.866 10.41 40.54-1.259 1.118-3.766 2.305-5.141 3.25 7.398-13.466-2.205-39.818-17.06-41.38.45-.274 2.146-1.293 2.92-1.74h.01c2.643-2.024 5.841-2.35 8.861-.67zm.23 59.81c8.349 5.124 13.646 18.4 13.5 28.47-.06 6.14-1.97 10.72-5.22 12.54-.993.545-2.993 1.807-3.87 2.32 6.271-11.227.394-30.385-9.37-38.23l.07-6.66c1.643.005 3.418.693 4.89 1.56zm-4.97 6.37c7.793 6.944 13.649 22.595 9.76 33.92-1.644 4.267-5.21 7.421-10.18 5.5l.42-39.42zm-4.94-51.19-9.22-5.5c.04-.11.08-.22.12-.32l.01-.01c1.751-4.485 5.615-6.893 9.99-5.21 7.112 2.897 11.763 10.793 14.35 19.8 1.792 6.677 2.46 16.335-2.66 21.23-1.981 1.81-4.397 2.392-7.44 1.27l.22-20.85c.04-3.95-2.37-8.62-5.37-10.41zm-.07-14.96c-.878.521-4.636 2.755-5.58 3.32-1.38.8-2.53 1.98-3.42 3.5.011-1.035.153-14.921.16-15.4.195-2.092-.561-7.647 1.22-9.02l.76-.46c.89-.29 1.69-.06 2.59.47l4.43 2.63-.16 14.96zm-13.49-16.48c.94 2.8 2.18 5.58 3.64 8.11-.03 4.14-.1 10.2-.17 17.32l-3.71-2.22.24-23.21zm-31.38 23.83c.011-3.086 1.804-4.965 4.51-3.36l4.43 2.64-.16 14.95c-2.662 1.747-7.498 3.743-9 6.82l.22-21.05zm28.69 25.72c4.121 8.241 7.481 24.065-1.02 29.95-.78.43-3.14 1.88-3.87 2.32 7.277-12.657-1.858-39.839-17.06-41.38.669-.409 2.935-1.747 3.85-2.3 7.406-4.37 14.575 4.459 18.1 11.41zm-30.24 5.27c-.041-2.617.365-5.31 1.3-7.62l.01-.01c1.751-4.485 5.614-6.893 9.99-5.21 9.409 3.902 15.521 17.386 15.64 29.48.292 11.503-8.087 18.309-17.05 8.93-5.902-5.907-9.999-16.546-9.89-25.57zm1.1 12.31c1.9 5.65 4.98 11.23 8.78 14.77l-.17 15.5c-2.647 1.746-7.509 3.745-9 6.81l.39-37.08zm24.44 72.44c5.544-12.651-2.734-35.135-14.85-39.19h-.01a11.937 11.937 0 0 0-3.02-.59c.687-.391 2.931-1.746 3.85-2.3 12.055-6.385 22.947 17.028 22.3 28.82-.06 6.14-1.97 10.72-5.22 12.54-.978.559-2.988 1.804-3.87 2.32.3-.51.58-1.04.82-1.6zm-26.17-25.4c-.033-2.624.363-5.31 1.31-7.63v-.01c2.066-5.552 7.396-7.261 12.13-4.19 9.153 5.511 16.539 23.566 12.29 35.79-1.924 4.907-6.168 8.172-12.22 4.5-7.784-4.55-13.736-18.105-13.51-28.46zm5.96 24.14c-3.525-2.143-5.323-7.482-4.86-11.81 1.66 4.91 4.21 9.78 7.35 13.29l-2.49-1.48zm32.91 18.11c-.816.498-1.883.379-3-.28l-18.68-11.13c1.68.18 3.44-.08 5.23-.91l5.65-3.4 12.36 7.36c-.16 2.13.57 7.27-1.56 8.36zm1.57-9.52-11.39-6.79c15.933-8.179-.787-53.127-17.7-43.3l.15-14.04c7.554 5.942 11.805 1.772 18.61-2.27 3.016-1.582 4.911-4.983 5.65-9.66 1.143-8.018-1.047-16.447-4.94-23.48-3.81-6.92-11.567-14.742-18.84-9.9l.14-13.76c3.594 2.165 21.584 12.827 24.77 14.79 2.623 1.784 4.611 5.907 4.6 9.35l-.04 3.81-.02 1.94-.27 25.37c-.194 18.646-.521 49.306-.72 67.94zm12.85-23.47c1.68.18 3.43-.09 5.22-.91l5.66-3.41 12.62 7.53c1.6 5.67 4.45 11.54 8.09 15.61l-31.59-18.82zm54.61-9.3c3.409 7.719 5.135 22.764-2.28 27.16-.992.536-2.998 1.804-3.87 2.32 7.656-13.531-2.888-40.38-17.06-41.38.751-.466 3.019-1.791 3.85-2.3 8.328-4.797 16.185 6.461 19.36 14.2zm-18.06-9.35c7.56 4.51 13.62 17.28 13.5 28.47.348 7.308-4.32 17.294-13.43 11.82-5.465-3.203-10.311-11.186-12.3-19.1-3.115-9.626-.644-28.177 12.23-21.19zm25.17 54.19c-.01.01-.02.01-.03.02l-.03.02c-.76.3-1.7.15-2.69-.44l-18.67-11.12c1.69.18 3.44-.09 5.23-.91l5.65-3.4 12.36 7.37c-.2 2.29.71 7.42-1.82 8.46zm1.83-9.62-11.4-6.8c4.182-2.081 6.276-6.86 6.4-13.79.199-10.386-5.492-24.217-13.99-29.34-3.59-2.1-7.05-2.32-9.92-.28-1.666.933-5.081 3.061-6.78 4.03-6.022 3.22-6.806 14.637-4.72 22.09l-11.29-6.73c14.304-8.07 2.551-43.908-12.99-44.83l.11-9.96c2.165.646 4.59.493 6.88-.57.087-.058 6.817-4.104 7.13-4.29 15.08-8.704-1.482-52.781-18.2-43l.14-13.75c14.722 8.751 37.07 22.093 51.98 30.98 3.136 1.825 9.616 5.76 12.81 7.63 2.824 1.738 4.885 5.951 4.88 9.53-.072 1.29-.004 4.644-.06 5.89-.302 28.35-.68 64.818-.98 93.19zm-9.65-125.2-7.46-4.45c-2.53-11.13-9.83-21.83-18.68-22.37.55-.34 3.25-1.93 3.85-2.3 12.048-6.476 23.139 17.356 22.29 29.12zm-20.99-24.27c5.48 3.27 10.17 10.88 12.29 19.08l-24.52-14.62c2.02-5.26 6.45-7.88 12.23-4.46zm40.31 24.02c7.56 4.51 13.62 17.28 13.5 28.47.24 7.44-3.92 15.61-11.35 12.84l.22-20.92c.04-3.96-2.36-8.63-5.37-10.41l-9.23-5.51c2.01-5.27 6.44-7.89 12.23-4.47zm-5.15-2.55c.54-.34 3.25-1.93 3.85-2.3 12.055-6.385 22.947 17.028 22.3 28.82-.06 6.14-1.97 10.72-5.22 12.54-.78.42-3.14 1.88-3.87 2.32 7.62-12.84-2.71-40.5-17.06-41.38zm18.18 99.67c-.71.43-1.41.86-1.75 1.06 6.26-11.218.413-30.324-9.33-38.19l.08-6.7c14.286.739 26.986 36.715 11 43.83zm-11.09-35.87c7.77 6.971 13.603 22.577 9.72 33.89-1.637 4.253-5.179 7.41-10.13 5.52l.41-39.41zm23.2 51.92-.72.43c-.75.26-1.66.11-2.62-.45l-18.68-11.13c1.69.18 3.44-.09 5.23-.91l5.66-3.41 12.35 7.36c-.15 2.01.48 6.83-1.22 8.11zm1.23-9.26-11.39-6.79c14.649-8.638 1.924-44.206-12.94-44.82l.1-9.96c2.17.62 4.47.51 6.84-.58l7.06-4.25c3.798-2.002 5.87-6.892 5.96-13.53.617-12.597-10.904-36.791-23.91-29.62l-6.78 4.031c-1.96 1.13-3.45 3.04-4.41 5.57l-5.24-3.13c1.064-12.669-10.63-37.765-23.88-30.491l-6.78 4.031c-1.96 1.13-3.44 3.03-4.4 5.56l-5.25-3.13c1.076-12.714-10.753-38.003-24.05-30.39l.14-13.74 105.1 62.63c2.68 1.6 4.91 5.98 4.88 9.55l-1.05 99.059z"/>
  <path fill="#05192d" d="M249.34 129.615c-4.248-2.482-7.548-2.155-11.35.57-.701.414-4.567 2.713-5.35 3.18-14.41 9.501.679 50.73 17.67 43.37l7.06-4.25c3.798-2.001 5.87-6.893 5.96-13.53.13-11.51-6.15-24.66-13.99-29.34zm7.77 41.87c-.77.42-3.13 1.88-3.87 2.32 7.63-12.84-2.7-40.5-17.06-41.38.734-.438 2.949-1.758 3.85-2.3 2.611-1.9 6.086-1.339 8.8.35 7.56 4.51 13.62 17.28 13.5 28.47-.06 6.14-1.97 10.72-5.22 12.54z"/>
</svg>
