<svg version="1.1" id="Layer_1" xmlns="http://www.w3.org/2000/svg" x="0" y="0" viewBox="0 0 159 98" xml:space="preserve">
  <style>
    .st0{fill-rule:evenodd;clip-rule:evenodd;fill:#fff}
  </style>
  <path class="st0" d="M95 0h4v29h-4V0zm-8.611 12.709c-.762-.624-1.884-1.083-3.326-1.083-3.848 0-6.494 3.333-6.494 7.376 0 4.042 2.685 7.376 6.494 7.376a5.606 5.606 0 0 0 3.567-1.252 4.899 4.899 0 0 0 1.604-2.459h3.686C91.599 25.008 88.592 30 83.061 30 77.368 30 73 25.085 73 19.001S77.368 8 83.061 8c5.812 0 8.658 4.834 8.939 7.376h-3.768a5.44 5.44 0 0 0-1.843-2.667zm24.854 13.751c3.457 0 5.224-2.376 5.554-3.502h3.825c-.246 1.792-2.919 7.042-9.379 7.042C105.115 30 101 25.208 101 19.001 101 12.877 105.239 8 111.087 8 116.845 8 121 12.877 121 18.667c0 .543-.04 1.083-.082 1.541h-16.184c.37 3.619 2.631 6.252 6.498 6.252h.011zm-6.416-9.292h12.453c-.527-3.168-2.757-5.626-6.201-5.626-3.373 0-5.636 2.376-6.252 5.626zm34.526 12.583H143v-21.5h-3.647v3.666C137.795 9.49 135.296 8 131.975 8h-.042C126.978 8 123 12.828 123 19.001c0 6.25 3.976 10.999 8.933 10.999h.042c3.321 0 5.82-1.499 7.378-3.915v3.666zm-6.149-18.126c3.649 0 6.149 3.25 6.149 7.376s-2.5 7.376-6.149 7.376h-.04c-4.015 0-6.515-3.042-6.515-7.376 0-4.251 2.458-7.376 6.515-7.376h.04zm22.796-.01V8.119h-.002a19.672 19.672 0 0 0-2.03-.119c-2.353 0-4.138 1.287-5.355 3.179V8.234H145V29h3.616V17.369c0-4.065 2.514-5.876 5.435-5.876.448 0 1.665.041 1.949.122zm-16.647 43.136H143v-21.5h-3.647v3.666C137.795 34.49 135.296 33 131.975 33h-.042C126.978 33 123 37.828 123 44.001c0 6.25 3.976 10.999 8.933 10.999h.042c3.321 0 5.82-1.499 7.378-3.917v3.668zm-6.149-18.126c3.649 0 6.149 3.251 6.149 7.376s-2.5 7.374-6.149 7.374h-.04c-4.015 0-6.515-3.042-6.515-7.374 0-4.251 2.458-7.376 6.515-7.376h.04zm18.345 15.001a4.188 4.188 0 0 1-2.881-1.083 3.694 3.694 0 0 1-1.308-2.793H144c0 3.25 2.561 7.25 7.561 7.25C156.2 55 159 52.12 159 48.501c0-3.042-1.925-5.334-5.926-6.25l-2.4-.543c-1.8-.417-2.681-1.167-2.681-2.667 0-1.541 1.441-2.665 3.521-2.665a3.473 3.473 0 0 1 2.481.958 3.368 3.368 0 0 1 1.079 2.458h3.415c0-3.125-2.628-6.75-6.948-6.792-4.241-.04-7.081 2.793-7.081 6.084 0 3.625 2.44 5.166 5 5.792l2.248.541c2.6.626 3.761 1.375 3.761 3.125 0 1.709-1.441 3.084-3.92 3.084zM80.353 78.753H84V49h-3.647v11.981c-1.64-2.312-4.14-3.8-7.213-3.8-4.952 0-9.139 4.795-9.139 10.911S68.189 79 73.14 79a8.7 8.7 0 0 0 7.213-3.718v3.471zm-6.148-17.935c3.844 0 6.147 3.182 6.147 7.273s-2.295 7.315-6.147 7.315-6.558-3.224-6.558-7.315 2.714-7.273 6.558-7.273zM106 78.751h-3.654v-3.666C100.789 77.501 98.29 79 94.972 79h-.042C89.975 79 86 74.251 86 68.001 86 61.828 89.977 57 94.93 57h.042c3.317 0 5.817 1.501 7.374 3.917v-3.666H106v21.5zm-3.654-10.75c0-4.125-2.499-7.376-6.145-7.376h-.038c-4.054 0-6.513 3.125-6.513 7.376 0 4.334 2.499 7.376 6.513 7.376h.042c3.646 0 6.145-3.25 6.145-7.376h-.004zM121 74.628v3.402a8.18 8.18 0 0 0-.367.161c-.657.299-1.776.809-3.005.809-3.373 0-6.052-2.186-6.052-5.828V60.986H108v-3.117h3.576V52h3.615v5.869h5.767v3.117h-5.767v12.058c0 1.861 1.218 2.509 2.802 2.509a6.034 6.034 0 0 0 3.007-.931v.006zm22 4.123h-3.647v-3.666c-1.558 2.416-4.057 3.915-7.378 3.915h-.042C126.976 79 123 74.251 123 68.001 123 61.828 126.978 57 131.933 57h.042c3.321 0 5.82 1.501 7.378 3.917v-3.666H143v21.5zm-3.647-10.75c0-4.125-2.5-7.376-6.149-7.376h-.04c-4.057 0-6.515 3.125-6.515 7.376 0 4.334 2.5 7.376 6.515 7.376h.04c3.649 0 6.149-3.25 6.149-7.376zM27.473 37.044v19.617L6.71 68.535V25.104l20.763 11.94zm6.712 41.217V60.578L62 44.673l-6.762-3.886-21.053 12.038V35.091a3.38 3.38 0 0 0-1.687-2.922L7.176 17.594a4.846 4.846 0 0 0-4.904.152A4.87 4.87 0 0 0 0 21.875v49.873c-.002 1.678.858 3.239 2.277 4.13s3.195.985 4.7.251c.064-.031.129-.067.191-.102l20.314-11.61v15.806a3.38 3.38 0 0 0 1.698 2.928L55.201 98l6.766-3.89-27.782-15.849z"/>
</svg>
