<svg xmlns="http://www.w3.org/2000/svg" width="18" height="18" viewBox="0 0 18 18">
  <path fill="#27346A" fill-rule="evenodd" clip-rule="evenodd" d="M9.09374,17.25781l0.5488-3.47993l0.03541-0.19284c0.02642-0.1677,0.11229-0.32109,0.24165-0.43155
	c0.12935-0.11046,0.2943-0.17137,0.46439-0.17137h0.43577c0.72641,0,1.39373-0.07761,1.98363-0.23064
	c0.62934-0.16312,1.18915-0.41724,1.66364-0.75466c0.50311-0.35779,0.92567-0.82035,1.25612-1.37447
	c0.34862-0.58458,0.60458-1.28841,0.7609-2.0917c0.13816-0.70934,0.16403-1.34438,0.07724-1.88767
	c-0.09192-0.57393-0.31302-1.06365-0.65705-1.45593c-0.20862-0.23761-0.47559-0.44348-0.79338-0.61191L15.10334,4.5711
	l-0.00018-0.00917c0.11101-0.70806,0.10679-1.29869-0.01266-1.80712c-0.12-0.50953-0.36293-0.96805-0.74329-1.40144
	C13.55915,0.4554,12.12579,0,10.08711,0H4.48814c-0.18715,0-0.3688,0.06697-0.51118,0.18862
	C3.83458,0.31027,3.74027,0.47926,3.71091,0.66421L1.37958,15.44794c-0.02128,0.13486,0.01743,0.27192,0.10624,0.3754
	c0.08881,0.10403,0.21798,0.16367,0.35449,0.16367h3.47351L5.3107,16.00353l-0.23853,1.51263
	c-0.01835,0.11761,0.01541,0.23688,0.09266,0.32715c0.07725,0.09046,0.18972,0.14257,0.30862,0.14257h2.91334
	c0.16348,0,0.32183-0.05853,0.44605-0.16477s0.20678-0.25357,0.23229-0.41485L9.09374,17.25781" />
  <path fill="#2790C3" fill-rule="evenodd" clip-rule="evenodd" d="M15.11728,4.56248L15.11728,4.56248c-0.0167,0.10697-0.03523,0.21578-0.05725,0.32788
	c-0.73815,3.79093-3.26434,5.10155-6.49069,5.10155h-1.6429c-0.39412,0-0.72696,0.28697-0.78842,0.67632l-1.07979,6.84592
	C5.01804,17.76918,5.21528,18,5.47344,18h2.91352c0.34476,0,0.63834-0.25082,0.6921-0.59155l0.02862-0.14807l0.5488-3.4803
	l0.03541-0.19229c0.05376-0.34073,0.34733-0.59155,0.6921-0.59155h0.43577c2.82251,0,5.03256-1.14677,5.67842-4.46303
	c0.26972-1.38566,0.13027-2.54233-0.58329-3.35553C15.69911,4.93183,15.43049,4.72834,15.11728,4.56248" />
  <path fill="#1F264F" fill-rule="evenodd" clip-rule="evenodd" d="M14.34464,4.25459c-0.11247-0.03303-0.22862-0.06257-0.34843-0.08917
	c-0.11981-0.0266-0.24293-0.05009-0.36953-0.07046c-0.44329-0.07137-0.92805-0.1055-1.44804-0.1055H7.78991
	c-0.1077,0-0.21045,0.02459-0.30256,0.06862C7.28497,4.15514,7.1347,4.34688,7.09782,4.58119l-0.93283,5.91437l-0.02697,0.17266
	c0.06147-0.38935,0.3943-0.67632,0.78842-0.67632h1.6429c3.22636,0,5.75254-1.31061,6.49069-5.10155
	c0.02202-0.11211,0.04055-0.22091,0.05725-0.32788c-0.18642-0.09871-0.38898-0.18385-0.60659-0.25614
	C14.4562,4.28817,14.40097,4.27092,14.34464,4.25459" />
</svg>
