<svg version="1.1" xmlns="http://www.w3.org/2000/svg" viewBox="0 0 173 36" xml:space="preserve">
  <path fill="#fff" fill-rule="evenodd" clip-rule="evenodd" d="M42.56 27.099a5.694 5.694 0 1 1 0-11.387 5.694 5.694 0 0 1 0 11.387zm5.704-20.622v8.853a8.335 8.335 0 1 0 0 12.149v1.835h2.632V6.477h-2.632zm73.28 20.622a5.694 5.694 0 1 1 0-11.387 5.694 5.694 0 0 1 0 11.387zm8.333-5.694v-8.246h-2.631v2.171a8.334 8.334 0 0 0-11.66.243 8.333 8.333 0 0 0 0 11.663 8.334 8.334 0 0 0 11.66.243v1.835h2.632v-7.909h-.001zm20.987-7.634a1.294 1.294 0 0 1 1.109-.622h.507c1.075 0 1.947.872 1.947 1.947v14.218h-2.686V17.269c-1.239 2-5.674 9.25-7.003 11.424a1.299 1.299 0 0 1-1.108.621h-.548a1.298 1.298 0 0 1-1.298-1.298V17.238a1886.566 1886.566 0 0 0-7.31 11.954l-.074.122h-2.574v-16.16h2.684v.034l-.062 11.147 6.438-10.56a1.3 1.3 0 0 1 1.109-.622h.511c1.073 0 1.944.869 1.947 1.942 0 2.971.014 8.382.014 9.17l6.397-10.494zm-37.92 12.541a8.33 8.33 0 1 1-9.05-12.906 8.332 8.332 0 0 1 9.26 3.403l-2.524 1.312a5.533 5.533 0 1 0-.379 6.879l2.693 1.312zm51.542.8a5.694 5.694 0 0 1-5.68-5.352v-.682a5.695 5.695 0 1 1 5.684 6.035l-.004-.001zm.004-14.026a8.3 8.3 0 0 0-5.684 2.24v-2.168h-2.632V35.91h2.632v-8.4a8.331 8.331 0 0 0 10.017 1.025 8.331 8.331 0 0 0-4.333-15.45v.001zM75.277 15.68v9.938c0 .589.478 1.067 1.067 1.067h3.064v2.629h-3.062a3.7 3.7 0 0 1-3.696-3.696l-.01-9.938h-2.838v-2.56h2.838V8.702h2.635v4.427h4.672v2.55h-4.67v.001zm12.757 11.418a5.694 5.694 0 1 1 0-11.389 5.694 5.694 0 0 1 0 11.389zm5.702-13.941v2.173a8.335 8.335 0 1 0 0 12.149v1.835h2.632v-16.16l-2.632.003zM60.285 27.099a5.694 5.694 0 1 1 0-11.387 5.694 5.694 0 0 1 0 11.387zm5.702-13.941v2.171a8.335 8.335 0 1 0 0 12.149v1.835h2.63v-16.16l-2.63.005zM11.699 8.514v8.333L2.858 21.89V3.44l8.841 5.074zm2.861 17.507v-7.51l11.84-6.757-2.88-1.65-8.96 5.112V7.68a1.442 1.442 0 0 0-.718-1.242L3.056.256C3.027.238 2.998.224 2.97.21A2.064 2.064 0 0 0 0 2.07v21.184a2.067 2.067 0 0 0 2.971 1.865l.082-.042 8.64-4.933v6.72c.002.513.277.987.722 1.243L23.502 34.4l2.88-1.651-11.822-6.728z"/>
</svg>
