<svg xmlns="http://www.w3.org/2000/svg" viewBox="0 0 40 40" xml:space="preserve">
  <path d="M3.811 17.682a3.28 3.28 0 0 0 0 4.637l13.871 13.87a3.28 3.28 0 0 0 4.637 0l13.87-13.87a3.28 3.28 0 0 0 0-4.637L22.319 3.811a3.28 3.28 0 0 0-4.637 0l-2.975 2.975 4.119 4.248a2.79 2.79 0 0 1 3.667 3.782l3.344 3.449a2.788 2.788 0 1 1 1.028 5.382 2.79 2.79 0 0 1-2.564-3.888l-3.228-3.338v8.298a2.79 2.79 0 1 1-2.145 0V16.14a2.791 2.791 0 0 1-1.547-3.536l-4.175-4.317-9.395 9.395z" fill-rule="evenodd" clip-rule="evenodd"/>
</svg>
