<svg xmlns="http://www.w3.org/2000/svg" viewBox="0 0 40 40" xml:space="preserve">
  <path d="M16.163 4.313c1.113-.195 2.377-.307 3.701-.313s2.705.093 4.035.313c2.102.347 3.872 1.909 3.872 3.987v7.304c0 2.142-1.719 3.897-3.872 3.897h-7.736c-2.627 0-4.839 2.234-4.839 4.765v3.505H8.662c-2.251 0-3.566-1.618-4.117-3.889-.743-3.05-.711-4.874 0-7.795.617-2.549 2.588-3.889 4.839-3.889H20.036v-.974H12.29V8.3c0-2.213.595-3.414 3.873-3.987zm7.651 16.121c2.572 0 4.828-2.205 4.828-4.826v-3.38h2.901c2.249 0 3.309 1.657 3.864 3.859.773 3.059.807 5.352 0 7.737-.781 2.316-1.618 3.859-3.864 3.859H19.958v.967h7.72v2.901c0 2.196-1.919 3.313-3.864 3.868-2.928.837-5.274.708-7.721 0-2.043-.592-3.865-1.805-3.865-3.868v-7.248c0-2.086 1.75-3.869 3.865-3.869h7.721zM15.657 6.743a1.6 1.6 0 1 1 0 3.2c-.884 0-1.6-.714-1.6-1.596 0-.885.716-1.604 1.6-1.604zm9.372 24.909c0-.882-.717-1.595-1.6-1.595-.881 0-1.6.713-1.6 1.595 0 .885.719 1.605 1.6 1.605.883 0 1.6-.72 1.6-1.605z" fill-rule="evenodd" clip-rule="evenodd"/>
</svg>
