<svg xmlns="http://www.w3.org/2000/svg" viewBox="0 0 40 40" xml:space="preserve">
  <path d="M11.574 16.435c-.457.281-.867-.133-1.295-.356-.461-.253-.958-.435-1.558-.423-1.661-.15-2.633 1.829-.985 2.639 1.258.624 2.901.797 3.971 1.81 1.437 1.343 1.111 3.994-.235 5.316C9.495 27.368 5.831 26.85 4 24.895l.041-.069.678-1.136c.504-.69 1.169-.107 1.713.264.543.337 1.12.575 1.851.56 1.449.131 2.463-1.248 1.747-2.484-1.186-1.234-3.368-.969-4.579-2.258-.969-.939-1.176-2.605-.647-3.894 1.19-2.916 5.61-2.976 7.63-.932-.158.245-.605 1.353-.86 1.489zm9.609 10.145c-7.592 1.187-10.289-9.556-3.587-12.551 7.409-2.851 12.277 6.467 6.552 11.364l3.236 3.579c-.572-.034-2.408.096-2.919-.119-.571-.121-2.01-2.054-2.431-2.442-.276.074-.56.13-.851.169zm2.845-6.491c.26-5.814-7.908-5.795-7.662 0-.248 5.784 7.926 5.8 7.662 0zM36 24.357v2.146h-7.498V13.676h2.519v10.681H36z" fill-rule="evenodd" clip-rule="evenodd"/>
</svg>
