<svg xmlns="http://www.w3.org/2000/svg" viewBox="0 0 40 40" xml:space="preserve">
  <path d="M19.565 4v2.971h-2.646v.899h2.646v2.97h.951V7.87h2.646v-.899h-2.646V4h-.951zm-7.119 7.456h3.988v1.284h-3.988v4.361h-1.398V12.74H7.059v-1.284h3.989V7.095h1.398v4.361zm16.585.001h3.941v1.322h-3.941v4.322h-1.494v-4.322h-3.941v-1.322h3.941V7.095h1.494v4.362zm-3.752 7.613H20.88v-4.849h-1.73v4.849h-4.399v1.723h4.399v4.847h1.73v-4.847h4.399V19.07zm-8.845 7.916h-3.942v-4.341H11v4.341H7.059v1.323H11v4.342h1.492v-4.342h3.942v-1.323zm6.918 4.817h-2.674v-3.027h-1.274v3.027H16.73v1.169h2.674V36h1.274v-3.028h2.674v-1.169zM36 19.347h-2.674V16.32h-1.274v3.027h-2.675v1.169h2.675v3.027h1.274v-3.027H36v-1.169zm-6.969 7.639h3.941v1.323h-3.941v4.342h-1.494v-4.342h-3.941v-1.323h3.941v-4.341h1.494v4.341zM6.655 19.463V16.55h.934v2.913h2.655v.898l-2.655.016v2.935h-.934v-2.929L4 20.399v-.936h2.655z" fill-rule="evenodd" clip-rule="evenodd"/>
</svg>
