<svg xmlns="http://www.w3.org/2000/svg" viewBox="0 0 40 40" xml:space="preserve">
  <path d="M21.098 10.562v11.779h2.11c.122-.423.33-.857.623-1.298a.78.78 0 0 1 1.299.863c-.697 1.048-.65 1.743.089 2.38a.78.78 0 0 1-1.018 1.181c-.542-.468-.887-.996-1.037-1.567h-2.066v5.538a4.379 4.379 0 0 0 7.867 2.644c-1.422-.29-2.541-1.325-3.28-3.038a.914.914 0 0 1 .482-1.2.916.916 0 0 1 1.205.475c.725 1.681 1.719 2.259 3.21 1.933a4.381 4.381 0 0 0 2.87-6.219 4.382 4.382 0 0 0-.043-7.981l.007-.013c-1.488-.434-3.128.199-3.969 1.658l-.024.037c.354.301.643.709.857 1.221a.78.78 0 0 1-1.438.602c-.355-.848-.956-1.09-2.099-.77a.78.78 0 0 1-.42-1.502c.615-.172 1.182-.225 1.69-.16a.794.794 0 0 1 .083-.207c1.212-2.102 3.615-3.016 5.786-2.367a4.379 4.379 0 0 0-4.056-4.918 3.451 3.451 0 0 0-2.746 3.034.78.78 0 0 1-1.551-.161c.047-.449.151-.877.304-1.279a3.357 3.357 0 0 1-1.559-.272.78.78 0 1 1 .627-1.427c.564.248 1.274.186 2.171-.236a.736.736 0 0 1 .147-.052 4.994 4.994 0 0 1 1.937-1.049 4.374 4.374 0 0 0-3.681-2.009 4.38 4.38 0 0 0-4.363 4.024l-.014-.008v.364zm-2.196 0v3.765l-.044.001c-2.702.144-4.278-.833-4.944-3.004a.78.78 0 0 0-1.491.458c.884 2.88 3.116 4.272 6.479 4.104v13.552c0 2.419-1.96 4.38-4.377 4.38-1.515 0-2.85-.77-3.636-1.941a3.481 3.481 0 0 1 3.126-5.016.78.78 0 1 0 0-1.559 5.04 5.04 0 0 0-1.641.273c.262-.841.361-1.584.292-2.235a.78.78 0 1 0-1.55.163c.09.856-.3 2.148-1.205 3.832a.848.848 0 0 0-.07.18 5.019 5.019 0 0 0-.862 2.605 4.383 4.383 0 0 1-2.431-6.087 4.38 4.38 0 0 1-2.484-4.729 3.586 3.586 0 0 1 6.438-1.317c-.391.361-.686.85-.871 1.465a.78.78 0 1 0 1.493.45c.281-.935.897-1.26 2.137-1.05a.78.78 0 0 0 .261-1.537c-.589-.1-1.127-.104-1.605-.015a5.14 5.14 0 0 0-4.346-2.391c-.468 0-.921.062-1.352.179a4.379 4.379 0 0 1 4.029-5.459 4.379 4.379 0 0 1 4.277-3.447 4.379 4.379 0 0 1 4.363 4.024l.014-.008v.364z" fill-rule="evenodd" clip-rule="evenodd"/>
</svg>
