<svg xmlns="http://www.w3.org/2000/svg" viewBox="0 0 36 38" xml:space="preserve">
  <path d="M9.38 4.458a17.556 17.556 0 0 0-3.11 2.477 17.594 17.594 0 0 0-2.491 3.131l6.136 6.136 5.605-5.605-6.14-6.139zm-7.286 9.155 5.205 5.205-5.378 5.378a17.109 17.109 0 0 1 .173-10.583zm1.42 14.156-.001.001a16.616 16.616 0 0 0 2.521 3.234 16.597 16.597 0 0 0 2.961 2.354l.053-.056 6.368-6.368L9.882 21.4l-6.368 6.369zm14.484 1.748-5.491 5.491c3.519 1.173 7.368 1.149 10.918-.065l-5.427-5.426zm2.616-2.615 5.605-5.605 6.272 6.272c.03.03.06.058.092.085a17.555 17.555 0 0 1-2.48 3.114c-.969.969-2.022 1.8-3.135 2.493a1.677 1.677 0 0 0-.082-.088l-6.272-6.271zm3.022-8.187-5.605 5.605-5.534-5.534 5.605-5.605 5.534 5.534zm5.198-.034 5.435 5.435c1.223-3.557 1.25-7.416.074-10.943l-5.509 5.508zm3.859-9.019a1.572 1.572 0 0 0-.073.069l-6.368 6.368-5.534-5.534 6.368-6.368.018-.018a16.622 16.622 0 0 1 5.589 5.483zM12.922 2.769a17.109 17.109 0 0 1 10.608-.182l-5.395 5.395-5.213-5.213z" fill-rule="evenodd" clip-rule="evenodd" fill="#05192d"/>
</svg>
