<svg xmlns="http://www.w3.org/2000/svg" viewBox="0 0 120 20" xml:space="preserve">
  <path d="M2.14 0A2.14 2.14 0 0 0 0 2.14v15.331a2.14 2.14 0 0 0 2.14 2.14h16.557a2.14 2.14 0 0 0 2.14-2.14V2.14A2.14 2.14 0 0 0 18.697 0H2.14zm.929 3.172a.536.536 0 0 0-.535.535v1.936c0 .295.24.535.535.535h5.812c.295 0 .535-.24.535-.535V3.707a.536.536 0 0 0-.535-.535H3.069zm-.535 5.727c0-.295.24-.535.535-.535h5.812c.295 0 .535.24.535.535v1.936c0 .295-.24.535-.535.535H3.069a.536.536 0 0 1-.535-.535V8.899zm.535 4.656a.536.536 0 0 0-.535.535v1.935c0 .296.24.535.535.535h5.812c.295 0 .535-.24.535-.535V14.09a.536.536 0 0 0-.535-.535H3.069zm8.476-9.848c0-.295.24-.535.535-.535h5.812c.295 0 .535.24.535.535v1.936c0 .295-.24.535-.535.535H12.08a.536.536 0 0 1-.535-.535V3.707zm.535 4.657a.536.536 0 0 0-.535.535v1.936c0 .295.24.535.535.535h5.812c.295 0 .535-.24.535-.535V8.899a.536.536 0 0 0-.535-.535H12.08zm-.535 5.726c0-.295.24-.535.535-.535h5.812c.295 0 .535.24.535.535v1.935c0 .296-.24.535-.535.535H12.08a.536.536 0 0 1-.535-.535V14.09zm20.411-5.833a.41.41 0 0 0 .142-.173l.368-.708a2.95 2.95 0 0 0-1.025-.624 3.75 3.75 0 0 0-1.315-.223c-.42 0-.793.065-1.12.195-.327.13-.603.303-.828.518a2.198 2.198 0 0 0-.688 1.599c0 .368.053.677.159.928.106.251.246.46.421.627.175.167.373.303.596.407.223.104.449.193.68.267.23.074.457.143.68.206.223.063.422.14.596.231.175.091.315.203.421.337a.81.81 0 0 1 .159.518c0 .379-.117.67-.351.872-.234.203-.565.304-.992.304-.279 0-.517-.038-.716-.114a2.874 2.874 0 0 1-.518-.254 8.444 8.444 0 0 1-.382-.254.533.533 0 0 0-.301-.114c-.071 0-.135.018-.192.053s-.107.079-.148.131l-.435.719c.156.16.333.305.532.435s.412.241.641.334c.228.093.467.164.716.215.249.05.501.075.758.075.446 0 .841-.068 1.187-.203.346-.136.638-.321.878-.557.24-.236.422-.513.546-.83a2.77 2.77 0 0 0 .187-1.023c0-.334-.053-.619-.159-.853a1.822 1.822 0 0 0-.421-.594 2.362 2.362 0 0 0-.596-.401 6.52 6.52 0 0 0-.683-.279c-.232-.08-.46-.155-.683-.226a3.83 3.83 0 0 1-.596-.24c-.175-.089-.315-.197-.421-.323s-.159-.284-.159-.474c0-.149.026-.285.078-.41a.835.835 0 0 1 .237-.32c.106-.089.236-.159.39-.209.154-.05.335-.075.543-.075.23 0 .43.029.599.086.169.058.317.122.443.192.126.071.236.135.329.192a.486.486 0 0 0 .251.086.327.327 0 0 0 .192-.046zm4.281 6.42V11.84h1.126c.524 0 .981-.065 1.371-.195s.715-.312.975-.546c.26-.234.455-.514.585-.839.13-.325.195-.683.195-1.073 0-.375-.061-.721-.184-1.037a2.083 2.083 0 0 0-.568-.814 2.676 2.676 0 0 0-.975-.529c-.394-.126-.86-.189-1.399-.189h-2.625v8.059h1.499zm1.126-4.007h-1.126V7.778h1.126c.275 0 .515.033.719.098.204.065.373.159.507.281.134.123.234.271.301.446.067.175.1.37.1.585 0 .227-.033.432-.1.616s-.167.34-.301.468a1.332 1.332 0 0 1-.507.295 2.254 2.254 0 0 1-.719.103zm6.769 4.007v-3.149h.641c.149 0 .261.02.337.061a.6.6 0 0 1 .209.206l1.694 2.58c.063.097.14.171.231.223a.658.658 0 0 0 .332.078h1.349L46.908 11.7a1.485 1.485 0 0 0-.49-.463c.282-.089.534-.208.755-.357.221-.149.407-.321.557-.518.151-.197.266-.416.346-.658.08-.241.12-.498.12-.769 0-.342-.058-.655-.176-.939-.117-.284-.301-.529-.552-.733s-.572-.363-.964-.476c-.392-.113-.863-.17-1.413-.17h-2.458v8.059h1.499zm.936-4.224h-.936V7.778h.958c.554 0 .965.11 1.235.329.269.219.404.533.404.942 0 .204-.033.392-.1.563a1.168 1.168 0 0 1-.304.443c-.136.124-.308.222-.518.293s-.457.105-.739.105zm10.827-2.642V6.619h-5.083v8.059h5.083V13.48h-3.572V11.2h2.814v-1.154h-2.814V7.811h3.572zm8.151 6.866h1.159L62.04 6.619h-1.533l-3.165 8.059h1.165a.528.528 0 0 0 .495-.34l.602-1.644h3.338l.602 1.644a.555.555 0 0 0 .181.243.515.515 0 0 0 .321.096zm-1.488-3.043h-2.569l.981-2.669c.048-.123.097-.266.148-.429.05-.163.101-.34.153-.529a10.388 10.388 0 0 0 .307.948l.98 2.679zm11.267.641a4.353 4.353 0 0 0 .295-1.627c0-.591-.098-1.133-.295-1.627-.197-.494-.474-.919-.83-1.273s-.786-.632-1.287-.83a4.482 4.482 0 0 0-1.666-.298h-3.076v8.059h3.076a4.54 4.54 0 0 0 1.666-.295 3.713 3.713 0 0 0 1.287-.83c.356-.359.633-.785.83-1.279zm-1.416-2.817c.119.351.178.748.178 1.19 0 .442-.06.839-.178 1.19a2.534 2.534 0 0 1-.507.892c-.219.243-.486.43-.8.56-.314.13-.668.195-1.062.195h-1.566V7.811h1.566c.394 0 .748.065 1.062.195.314.13.58.317.8.56.219.244.388.541.507.892zm7.993-1.201a.41.41 0 0 0 .142-.173l.368-.708a2.95 2.95 0 0 0-1.025-.624 3.75 3.75 0 0 0-1.315-.223c-.42 0-.793.065-1.12.195-.327.13-.603.303-.828.518a2.198 2.198 0 0 0-.688 1.599c0 .368.053.677.159.928.106.251.246.46.421.627.175.167.373.303.596.407.223.104.45.193.68.267.23.074.457.143.68.206.223.063.422.14.596.231.175.091.315.203.421.337a.81.81 0 0 1 .159.518c0 .379-.117.67-.351.872-.234.203-.565.304-.992.304-.279 0-.517-.038-.716-.114a2.874 2.874 0 0 1-.518-.254 8.444 8.444 0 0 1-.382-.254.533.533 0 0 0-.301-.114c-.071 0-.135.018-.192.053s-.107.079-.148.131l-.435.719c.156.16.333.305.532.435s.412.241.641.334c.229.093.467.164.716.215.249.05.502.075.758.075.446 0 .841-.068 1.187-.203.346-.136.638-.321.878-.557.24-.236.422-.513.546-.83a2.77 2.77 0 0 0 .187-1.023c0-.334-.053-.619-.159-.853a1.822 1.822 0 0 0-.421-.594 2.362 2.362 0 0 0-.596-.401 6.61 6.61 0 0 0-.683-.279c-.232-.08-.46-.155-.683-.226a3.83 3.83 0 0 1-.596-.24 1.326 1.326 0 0 1-.421-.323.711.711 0 0 1-.159-.474c0-.149.026-.285.078-.41a.835.835 0 0 1 .237-.32c.106-.089.236-.159.39-.209.154-.05.335-.075.543-.075.23 0 .43.029.599.086.169.058.317.122.443.192.126.071.236.135.329.192a.483.483 0 0 0 .251.086.327.327 0 0 0 .192-.046zm8.02 6.42h1.51V6.619h-1.51v3.466h-3.778V6.619h-1.51v8.059h1.51v-3.522h3.778v3.521zm9.149-6.866V6.619h-5.083v8.059h5.083V13.48h-3.572V11.2h2.814v-1.154h-2.814V7.811h3.572zm7.31 0V6.619h-5.083v8.059h5.083V13.48h-3.572V11.2h2.814v-1.154h-2.814V7.811h3.572zm7.906.039V6.619h-6.359V7.85h2.436v6.827h1.499V7.85h2.424zm6.059.407a.41.41 0 0 0 .142-.173l.368-.708a2.954 2.954 0 0 0-1.026-.624 3.746 3.746 0 0 0-1.315-.223c-.42 0-.793.065-1.12.195-.327.13-.603.303-.828.518a2.207 2.207 0 0 0-.512.741 2.2 2.2 0 0 0-.176.858c0 .368.053.677.159.928.106.251.246.46.421.627.174.167.373.303.596.407.223.104.45.193.68.267.23.074.457.143.68.206.223.063.422.14.596.231.175.091.315.203.421.337a.81.81 0 0 1 .159.518c0 .379-.117.67-.351.872-.234.203-.565.304-.992.304-.279 0-.518-.038-.716-.114a2.919 2.919 0 0 1-.519-.254 7.84 7.84 0 0 1-.381-.254.535.535 0 0 0-.301-.114.366.366 0 0 0-.193.053.543.543 0 0 0-.147.131l-.435.719c.156.16.333.305.532.435s.413.241.641.334c.229.093.467.164.716.215.249.05.502.075.758.075.446 0 .842-.068 1.187-.203.346-.136.638-.321.878-.557.239-.236.422-.513.546-.83.124-.318.187-.659.187-1.023 0-.334-.053-.619-.159-.853a1.822 1.822 0 0 0-.421-.594 2.362 2.362 0 0 0-.596-.401 6.61 6.61 0 0 0-.683-.279c-.232-.08-.46-.155-.683-.226a3.91 3.91 0 0 1-.596-.24 1.326 1.326 0 0 1-.421-.323.71.71 0 0 1-.158-.474c0-.149.026-.285.078-.41a.843.843 0 0 1 .236-.32c.106-.089.236-.159.391-.209.154-.05.335-.075.543-.075.23 0 .43.029.599.086.169.058.317.122.443.192.126.071.236.135.329.192a.483.483 0 0 0 .251.086.327.327 0 0 0 .192-.046z" fill-rule="evenodd" clip-rule="evenodd" fill="#05192d"/>
</svg>
