<svg xmlns="http://www.w3.org/2000/svg" viewBox="0 0 140 27" xml:space="preserve">
  <path d="M13.168 2.445V0h.805v2.445h2.238v.74h-2.238V5.63h-.805V3.185H10.93v-.74h2.238zM10.52 6.137H7.145v-3.59H5.962v3.59H2.588v1.057h3.374v3.589h1.183V7.194h3.374V6.137zm13.991.001h-3.334v-3.59h-1.263v3.59H16.58v1.089h3.334v3.557h1.263V7.226h3.334V6.138zm-10.23 6.266h3.722v1.418h-3.722v3.99h-1.463v-3.99H9.095v-1.418h3.722V8.413h1.463v3.991zM7.184 18.92h3.335v1.089H7.184v3.574H5.922v-3.574H2.588V18.92h3.334v-3.573h1.262v3.573zm6.926 3.965h2.263v.962H14.11v2.493h-1.078v-2.493H10.77v-.962h2.262v-2.492h1.078v2.492zm10.7-10.253h2.262v.962H24.81v2.492h-1.078v-2.492H21.47v-.962h2.263V10.14h1.078v2.492zm-.299 6.288h-3.334v-3.573h-1.263v3.573H16.58v1.089h3.334v3.574h1.263v-3.574h3.334V18.92zM2.247 10.33v2.397H0v.771l2.247-.013v2.411h.79V13.48l2.247-.013v-.739H3.036V10.33h-.789zM88.01 21.097h-1.853V4.736h1.853v16.361zM74.188 10.616c-.501 0-1.284.101-2.166.443V6.486h-1.871l.053 12.465c1.118.374 2.183.581 3.268.581 3.13 0 4.905-1.647 4.905-4.466 0-2.717-1.689-4.45-4.189-4.45zm2.223 4.469c0 1.761-1.002 2.749-2.751 2.749-.52 0-1.06-.103-1.638-.312v-4.76c.475-.214 1.124-.447 1.808-.447 1.573 0 2.581 1.039 2.581 2.77zM40.147 27a1.71 1.71 0 0 1-.888-.243v-.562c.322.196.584.318.873.318.251 0 .382-.078.382-.225 0-.151-.116-.2-.34-.276-.644-.222-.958-.434-.958-.891 0-.421.378-.728.966-.728.281 0 .577.066.869.207v.517c-.326-.162-.6-.252-.835-.252-.247 0-.375.075-.375.203 0 .104.112.196.344.281l.114.042.002.001c.186.068.362.132.52.227.225.137.337.351.337.63-.001.46-.367.751-1.011.751zm11.677-1.304c0 .373.139.698.402.942.258.241.584.362.987.362.405 0 .735-.121.993-.361.262-.244.402-.566.402-.942a1.26 1.26 0 0 0-.402-.946c-.258-.241-.587-.358-.993-.358-.403 0-.73.117-.988.358a1.26 1.26 0 0 0-.401.945zm.66 0c0-.455.306-.775.73-.775s.731.321.731.775-.307.772-.731.772-.73-.318-.73-.772zm13.474 1.26h.641v-1.038h.951v-.472h-.951v-.548h1.015v-.464h-1.656v2.522zm14.282 0h-.674v-2.053h-.846v-.469h2.367v.469h-.847v2.053zm12.204.022h.261l.581-1.578.577 1.578h.266l1.038-2.545h-.671l-.494 1.378-.502-1.378h-.428l-.501 1.37-.497-1.37h-.667l1.037 2.545zm12.393-.022h.682l.206-.491h1.1l.185.491h.678l-.998-2.523h-.737l-1.116 2.523zm1.071-.923.397-.961.36.961h-.757zm12.803.923h-.64v-2.523h.942c.686 0 1.02.226 1.02.731 0 .277-.138.473-.447.609.127.049.228.156.304.318l.409.865h-.723l-.327-.727c-.1-.225-.212-.304-.464-.304a.46.46 0 0 0-.038.002.434.434 0 0 1-.036.002v1.027zm0-1.489h.307c.239 0 .352-.094.352-.295 0-.186-.121-.292-.352-.292h-.307v.587zm13.945 1.489h-1.742v-2.523h1.712v.464h-1.072v.515h1.024v.469h-1.024v.602h1.102v.473zM96.173 14.968c-.08 2.346 1.31 4.324 4.164 4.597 1.453.139 2.606-.096 3.712-.627v-1.744c-.84.52-2.39.765-3.489.681-1.319-.1-2.284-.851-2.437-2.436h6.4c.132-2.862-1.408-4.803-4.067-4.803-2.534.001-4.197 1.799-4.283 4.332zm6.319-.872h-4.254c.366-1.142 1.423-1.834 2.514-1.765 1.083.069 1.692.648 1.74 1.765zm31.464 2.118c0 1.323-.793 1.913-1.967 1.913s-1.969-.59-1.969-1.913v-5.412h-1.871v5.64c0 1.885 1.483 3.035 3.839 3.035 2.357 0 3.84-1.15 3.84-3.035v-5.64h-1.872v5.412zM52.92 15.066c0 2.819 1.775 4.476 4.905 4.466 1.188-.004 2.481-.243 3.268-.581l.053-8.375h-1.871v.623c-.625-.399-1.322-.583-2.166-.583-2.499 0-4.189 1.733-4.189 4.45zm6.319 2.567a6.735 6.735 0 0 1-1.603.201c-1.748.024-2.75-.988-2.75-2.749 0-1.731 1.008-2.77 2.581-2.77.63 0 1.208.191 1.807.596l-.035 4.722zm57.721 1.899c-3.13.01-4.905-1.647-4.905-4.466 0-2.718 1.69-4.451 4.188-4.451.843 0 1.541.184 2.167.583v-.623h1.871l-.054 8.375c-.786.339-2.079.578-3.267.582zm-.187-1.698a6.811 6.811 0 0 0 1.602-.201l.035-4.722c-.6-.405-1.179-.596-1.808-.596-1.573 0-2.58 1.039-2.58 2.77 0 1.761 1.001 2.753 2.751 2.749zM38.993 7.076h1.853v5.189h5.006v1.705h-5.006v5.627h-1.853V13.97h-5.006v-1.705h5.006V7.076zm99.704 5.385h-.197v-1.222l.015-.002c.099-.014.195-.028.336-.028.189 0 .312.04.387.093.073.054.113.136.113.253 0 .16-.109.258-.242.298v.008c.108.02.183.117.207.298.029.19.06.263.078.302h-.206c-.03-.039-.06-.151-.084-.311-.03-.156-.11-.214-.268-.214h-.139v.525zm0-.676h.144c.164 0 .301-.059.301-.21 0-.107-.078-.214-.301-.214a.869.869 0 0 0-.144.01v.414zm1.303.038c0-.609-.484-1.095-1.091-1.095h-.004c-.609 0-1.101.486-1.101 1.095 0 .619.492 1.1 1.101 1.1.611 0 1.095-.481 1.095-1.1zm-1.984 0c0-.51.4-.925.889-.925h.004c.495 0 .888.414.888.93s-.393.931-.888.925c-.493 0-.893-.409-.893-.93z" fill-rule="evenodd" clip-rule="evenodd" fill="#05192d"/>
</svg>
