<svg xmlns="http://www.w3.org/2000/svg" width="18" height="18" viewBox="0 0 18 18">
  <path fill="#000" d="M7.04059,9.677h1.52377c3.604,0,5.85276-1.63805,6.50376-4.97505c0.021-0.11,0.2402-1.4036-0.089-2.272
	C14.15214,0.24841,11.82336,0,10.04836,0H4.48814c-0.398,0-0.737,0.29-0.799,0.683l-1.02,6.571l-1.269,8.185
	c-0.046,0.295,0.182,0.561,0.48,0.561h2.81445l0.849-5.043C5.66059,10.217,6.29059,9.677,7.04059,9.677z M15.97398,5.24756
	c-0.792,3.771-3.32262,5.61444-7.41062,5.61444h-1.658c-0.164,0-0.302,0.118-0.328,0.282L5.47236,18h2.907
	c0.348,0,0.645-0.253,0.699-0.597l0.584-3.664l0.036-0.194c0.054-0.344,0.351-0.597,0.699-0.597h0.44
	c2.85,0,5.02551-1.15526,5.67751-4.50326C16.78288,7.06474,16.66798,6.06556,15.97398,5.24756z" />
</svg>
