<svg xmlns="http://www.w3.org/2000/svg" viewBox="0 0 40 40" xml:space="preserve">
  <path d="M30.572 12.851 28.75 14.09A10.51 10.51 0 0 1 30.558 20c0 5.83-4.727 10.558-10.558 10.558C14.169 30.559 9.442 25.83 9.442 20c0-5.458 4.143-9.948 9.456-10.499v2.934c-3.703.535-6.551 3.713-6.551 7.565A7.653 7.653 0 0 0 20 27.653a7.653 7.653 0 0 0 6.347-11.931l-1.823 1.239a5.45 5.45 0 0 1-4.525 8.488 5.45 5.45 0 0 1-1.102-10.787v2.791a2.775 2.775 0 1 0 2.203.001V7.24h-2.203v.056C12.367 7.855 7.239 13.325 7.239 20c0 7.048 5.713 12.76 12.761 12.76 7.048 0 12.761-5.712 12.761-12.76 0-2.649-.807-5.109-2.189-7.149z" fill="#05192d"/>
</svg>
