<svg xmlns="http://www.w3.org/2000/svg" viewBox="0 0 40 40" xml:space="preserve">
  <path d="M36.152 22.641v-4.513a3.11 3.11 0 0 0 1.752-2.792 3.12 3.12 0 0 0-3.121-3.121c-1.12 0-2.095.595-2.646 1.482l-8.242-.06a3.115 3.115 0 0 0-2.613-1.422 3.111 3.111 0 0 0-.944 6.081v4.178a3.105 3.105 0 0 0-2.005 1.983H7.21v-6.013l2.469-2.469a.865.865 0 0 0 0-1.222l-3.055-3.055a.865.865 0 0 0-1.222 0l-3.055 3.055a.865.865 0 0 0 0 1.222l2.539 2.539v7.104l.002.066a1.16 1.16 0 0 0 1.16 1.095h12.43a3.113 3.113 0 0 0 5.926-1.345 3.112 3.112 0 0 0-1.742-2.787v-4.524a3.113 3.113 0 0 0 1.679-2.161l7.4.055a3.113 3.113 0 0 0 2.089 2.277v4.183a3.11 3.11 0 0 0-2.168 2.957 3.12 3.12 0 1 0 6.242 0 3.109 3.109 0 0 0-1.752-2.793z" fill="#05192d"/>
</svg>
