<svg version="1.1" xmlns="http://www.w3.org/2000/svg" viewBox="0 0 119.735 15.534" xml:space="preserve">
  <path fill="#000" fill-rule="evenodd" clip-rule="evenodd" d="M10.416 4.828v.109H5.879c-.581.109-1.052.58-1.052 1.198 0 .436.218.799.58 1.016.182.145.4.218.654.218h3.811l-1.089 4.864h-2.65a5.928 5.928 0 0 1-1.815-.291C1.815 11.179 0 8.856 0 6.134A6.126 6.126 0 0 1 6.134 0h5.372l-1.09 4.828zm6.86-4.574C16.732.109 16.151 0 15.57 0h-2.759l-1.089 4.936h3.883c.218 0 .436.036.617.145.363.218.617.616.617 1.052 0 .653-.508 1.162-1.125 1.234h-4.537l-.762 3.375-1.052 4.791h4.536l.726-3.302h.944c3.375 0 6.097-2.759 6.097-6.098.002-2.793-1.849-5.117-4.39-5.879zM35.496 3.412c-1.706.182-2.758 1.162-3.158 2.649-.326 1.161.581 2.686 2.323 2.686.291 0 .581-.036.835-.036 1.561-.145 2.541-.799 3.049-2.649.327-1.198-.29-2.686-2.359-2.686a3.992 3.992 0 0 0-.69.036zm79.484 4.827 1.09-4.791h3.665l-.218 1.016h-2.286l-.255 1.053h2.178l-.217.98h-2.178l-.254 1.198h2.359l-.218.943h-3.775l.109-.399zm0-4.61.109-.181h-1.451l-2.287 4.101h-.037l-.652-4.101h-1.488l.943 5.19h1.742l3.121-5.009zM97.124 7.695c.98-.182 1.415-.871 1.597-1.633.254-.907-.182-1.67-1.197-1.67-.145 0-.291.036-.399.036-.835.182-1.379.872-1.597 1.634-.253.871 0 1.67 1.053 1.67.18-.001.361-.001.543-.037zm0-4.283c.218-.036.435-.036.689-.036 2.106 0 2.722 1.488 2.395 2.686-.508 1.851-1.488 2.504-3.084 2.649-.254 0-.545.036-.835.036-1.778 0-2.649-1.524-2.323-2.686.4-1.488 1.452-2.467 3.158-2.649zm5.154.036h1.379l-.944 4.21h2.141l-.217.98h-3.558l1.199-5.19zm4.608 0h1.417l-1.199 5.19h-1.379l1.161-5.19zM77.815 6.315h.653l-.254-1.778-.399.653-.617 1.125h.617zm0-2.867h1.488l1.016 5.19h-1.524l-.181-1.415H76.69l-.835 1.415H74.44l.218-.327 2.94-4.863h.217zm4.864 0h1.379l-.943 4.21h2.177l-.254.98h-3.521l1.162-5.19zm4.464 0h2.033l.291 3.484h.036l1.779-3.484h1.924l-1.089 5.19h-1.235l.835-3.956-2.069 3.956h-1.161l-.327-3.956h-.036l-.799 3.956H86.09l1.053-5.19zM74.658 5.626c.073-.145.109-.291.145-.435.109-.508.073-.908-.145-1.198-.291-.363-.871-.544-1.815-.544H71.21l-1.198 5.19h1.379l.436-1.778h.545c.109 0 .253 0 .362-.036.907-.074 1.597-.51 1.924-1.199zm-1.924.218c-.109 0-.218.036-.326.036h-.363l.327-1.416h.362c.472 0 .799.182.69.69-.073.399-.363.617-.69.69zm-11.76 2.467 1.125-4.863h3.666l-.218 1.016H63.26l-.254 1.053h2.178l-.218.98h-2.177l-.254 1.198h2.359l-.218.943h-3.774l.072-.327zm0-4.536.073-.326h-4.355L56.474 4.5h1.524l-.943 4.138h1.379l.944-4.138h1.452l.144-.725zm5.699 1.778h2.032l-.218.98h-2.032l.218-.98zm-13.538.762h.617l-.254-1.778-.363.653-.653 1.125h.653zm0-2.867h1.452l1.053 5.19h-1.524l-.218-1.415h-1.923l-.835 1.415h-1.416l3.158-5.19h.253zM35.496 7.695c-.145.036-.327.036-.544.036-1.016 0-1.27-.798-1.053-1.67.218-.762.762-1.452 1.597-1.634.145 0 .254-.036.399-.036 1.016 0 1.452.762 1.198 1.67-.218.762-.617 1.452-1.597 1.634zm4.972-4.247h1.415l-.944 4.21h2.141l-.218.98h-3.557l1.163-5.19zm7.985 5.045a8.657 8.657 0 0 1-2.069.254c-1.38 0-2.831-.726-2.396-2.649.472-1.96 1.996-2.722 3.92-2.722.363 0 1.053.036 1.524.218l-.362 1.161c-.363-.254-.871-.363-1.198-.363-1.125 0-2.178.472-2.432 1.706-.254 1.016.363 1.633 1.379 1.633.181 0 .363-.036.508-.072l.218-1.053h-.799l.218-.98h2.141l-.652 2.867zm-17.458.036c-.435.109-.871.218-1.597.218-1.379 0-2.831-.726-2.396-2.649.399-1.815 1.887-2.722 3.593-2.722.545 0 1.052.109 1.488.254l-.363 1.125c-.399-.218-.798-.363-1.27-.363-.98 0-1.778.726-1.996 1.706-.254 1.016.326 1.633 1.343 1.633.472 0 .944-.109 1.379-.254l-.181 1.052z"/>
</svg>
