<svg version="1.1" xmlns="http://www.w3.org/2000/svg" viewBox="0 0 108 24.16" xml:space="preserve">
  <path fill="#000" d="M47.796 14.667h-7.072v1.623h.232c.058-.232.464-.696.986-.696h1.565v8.29h1.565v-8.29c.703.066 2.37-.28 2.551.58v.058h.232l-.059-1.565zm-46.085-.522c-2.25 2.183-2.101 6.252.232 8.232 2.558 2.042 5.212 2.187 8.58.464l.058-.058.174-2.319-.29-.058c-1.103 2.48-3.143 2.66-3.884 2.609-3.188 0-4.638-2.667-4.638-5.101 0-2.377 1.449-4.812 4.638-4.812.985 0 2.783.348 3.71 2.493l.058.116.29-.116-.116-2.377-.058-.058c-1.507-.638-2.725-.927-3.942-.927-1.972.057-3.653.695-4.812 1.912zm10.551.753.058-.232 2.493.058c1.217 0 2.087.29 2.667.812 1.375 1.359.372 3.3-1.044 3.71.463.295.66.591.869.87.48.766 1.526 2.466 1.797 2.782.406.464.696.58.87.638l.464.116-.116.058-.348.058c-.29.116-1.043.116-1.391.058-1.313-.218-1.794-1.906-2.493-2.841l-.174-.348-.058-.058c-.348-.522-.58-.869-1.159-.927h-.638v4.174h-1.507V15.71c0-.407-.174-.754-.29-.812zm4.289 2.202c0-.174-.058-1.507-1.623-1.565a1.71 1.71 0 0 0-.812.058v3.304c1.1.065 2.392-.118 2.435-1.797zm11.361-2.202v-.232l3.072-.058c7.156-.051 6.561 9.433-.232 9.217h-2.609v-8.232c.001-.289-.115-.637-.231-.695zm2.608.696h-.812v7.42c1.485.08 3.272-.071 4.058-1.217 1.595-2.477.847-6.457-3.246-6.203zm8.812-.927h-1.797v.232c.174.058.29.406.29.754v8.174h1.507v-9.16zm30.726 0h-1.797v.232c.174.058.29.406.29.754v8.174h1.507v-9.16zm-44.116 0h-5.101l.058.232c.116.058.29.406.29.811v8.116h5.101l.348-1.623-.232-.058-.058.116c-.34.963-2.598.754-3.71.696v-3.71h2.609v-.869h-2.609v-2.841h2.087c.464 0 .986.464 1.044.754v.058H26l-.058-1.682zm65.39 0h-5.101v.232c.116.058.29.348.29.811v8.116h5.101l.348-1.623-.232-.058-.058.116c-.34.963-2.598.754-3.71.696v-3.71h2.609v-.869H87.97v-2.841h2.087c.609.012 1.012.474.986.812h.232l.057-1.682zM52.26 12.986c-.522.406-1.159 1.101-1.217 2.319-.026 1.477.907 2.311 2.435 3.073.058.058.174.116.58.29 1.275.638 2.145 1.101 2.145 2.377 0 .464-.174 1.101-.638 1.565-.406.406-.927.58-1.565.58-1.913 0-2.609-1.681-2.783-2.435l-.058-.116-.348.058.116 2.377.174-.058c.638.348 1.623.927 3.13.986 1.89.046 3.868-1.503 3.826-3.478 0-1.913-1.391-2.667-2.841-3.42l-.29-.174c-1.507-.754-2.203-1.217-2.203-2.145 0-.638.522-1.681 1.797-1.681 1.507 0 2.319 1.159 2.493 1.855l.058.116.348-.058-.116-2.087-.058-.058c-.87-.58-1.971-.696-2.435-.696-1.043.056-1.913.346-2.55.81zm20.292 4c0 1.275.754 1.913 1.971 2.551l.464.232c1.461.613 2.185 1.49 1.159 2.899-.29.29-.696.464-1.217.406-1.449 0-1.971-1.159-2.203-1.797l-.058-.116-.29.058.058 1.913.058.058c1.01.805 3.559 1.185 4.754-.174.522-.522.754-1.159.754-1.855 0-1.623-1.101-2.203-2.261-2.783-1.161-.549-2.006-1.043-1.913-1.739 0-.522.348-1.217 1.391-1.217 1.217 0 1.739.927 1.855 1.391l.058.116.29-.058-.116-1.681-.058-.058c-1.874-1.098-4.576-.48-4.696 1.854zm6.839 0c0 1.275.754 1.913 1.971 2.551l.464.232c1.461.613 2.185 1.49 1.159 2.899-.29.29-.696.464-1.217.406-1.449 0-1.971-1.159-2.203-1.797l-.058-.116-.29.058.058 1.913.058.058c1.736 1.336 5.46.928 5.507-2.029 0-1.623-1.102-2.203-2.261-2.783-1.161-.549-2.006-1.043-1.913-1.739-.007-.702.57-1.256 1.333-1.217 1.217 0 1.739.927 1.855 1.391l.058.116.29-.058-.116-1.681-.058-.058c-1.817-1.087-4.496-.482-4.637 1.854zM66.29 14.667h-1.217v.232c.058.058.232.174.232.754v5.217c0 .986-.348 2.203-2.145 2.203-1.681 0-2.029-.986-2.029-2.493v-5.913h-1.913v.232c.116.058.348.29.348.811v4.87c0 3.014 1.971 3.362 3.478 3.362.754 0 3.13-.232 3.13-3.073l.116-6.202zM104.492 12.058c1.101.348 2.203.812 3.42 1.507C104.956 8.696 99.739 3.42 94.579 0c1.333 1.333 3.478 4.232 4.058 7.304a69.724 69.724 0 0 1 5.855 4.754zm-5.005-.774c1.388-.022 3.081.162 5.006.774a80.318 80.318 0 0 1 3.13 3.13c-5.971-2.029-10.551-1.391-13.565-.522C92.667 8.29 89.304 2.319 86.29.29a69.393 69.393 0 0 1 12.348 7.014l.008.047-.067-.047c.232 1.333.174 2.725-.348 4.058h.001v.001l.18-.019c.337-.032.696-.054 1.075-.06z"/>
</svg>
