<svg xmlns="http://www.w3.org/2000/svg" viewBox="0 0 86.311 16" xml:space="preserve">
  <path d="M24.374 12.623c-.397.135-.812.257-1.226.341a7.53 7.53 0 0 1-1.501.153c-1.653 0-2.947-.55-3.159-1.86h7.052c.052-.252.145-.86.145-1.501 0-2.977-1.481-5.71-5.261-5.71-3.671 0-5.626 2.879-5.626 6.105 0 3.719 2.6 5.846 6.23 5.846.924 0 1.6-.083 2.158-.196a8.78 8.78 0 0 0 1.757-.55l-.569-2.628zM20.36 6.717c1.398 0 1.82 1.277 1.82 1.978h-3.767c-.001-.993.689-1.978 1.947-1.978zm58.762 5.906c-.397.135-.812.257-1.226.341-.487.099-.99.153-1.501.153-1.653 0-2.947-.55-3.159-1.86h7.052c.052-.252.145-.86.145-1.501 0-2.977-1.482-5.71-5.26-5.71-3.671 0-5.626 2.879-5.626 6.105 0 3.719 2.599 5.846 6.229 5.846.924 0 1.6-.083 2.158-.196a8.771 8.771 0 0 0 1.756-.55l-.568-2.628zm-4.014-5.906c1.398 0 1.82 1.277 1.82 1.978h-3.767c0-.993.69-1.978 1.947-1.978zM27.412.255v15.497h3.824V.255h-3.824zm11.453 15.741c2.984 0 6.005-1.879 6.005-6.076 0-2.499-1.481-5.855-5.817-5.855-4.464 0-6.093 3.253-6.093 6.046-.001 3.505 2.433 5.885 5.905 5.885zm.051-2.836c-1.242 0-2.058-1.228-2.058-3.127 0-1.513.547-3.128 2.071-3.128 1.471 0 1.993 1.674 1.993 3.111 0 1.908-.793 3.144-2.006 3.144zm7.616-8.844v11.435h3.824V4.316h-3.824zm0-4.056v2.969h3.824V.26h-3.824zm6.852.945v3.11h-1.469v2.834h1.469v4.685c0 2.576 1.178 4.153 3.867 4.153.504 0 1.074-.052 1.598-.13.485-.073.916-.161 1.104-.223.003-.003-.028-2.987-.028-2.998-.123.042-.99.188-1.307.188-.308 0-.765-.039-1.091-.373-.233-.238-.4-.626-.4-1.257V7.149H59.6V4.315h-2.472V.783l-3.744.422zm8.848 0v3.11h-1.47v2.834h1.47v4.685c0 2.576 1.178 4.153 3.867 4.153.504 0 1.073-.052 1.597-.13.486-.073.916-.161 1.105-.223.003-.003-.028-2.987-.028-2.998-.123.042-.99.188-1.307.188-.308 0-.764-.039-1.091-.373-.233-.238-.4-.626-.4-1.257V7.149h2.471V4.315h-2.471V.783l-3.743.422zM82.08 13.884a2.115 2.115 0 1 1 4.23 0 2.115 2.115 0 0 1-4.23 0zM5.532 12.681a7.926 7.926 0 0 1-.551.019H3.768c.002-.001 0-9.524 0-9.524.419-.037.952-.062 1.308-.062 2.223 0 4.592 1.442 4.592 4.774.001 3.476-2.226 4.635-4.136 4.793zM0 15.768h4.328c.293 0 .647-.007.925-.021 5.923-.306 8.387-3.811 8.387-7.859C13.64 2.832 10.23 0 4.344 0 2.834 0 1.491.051 0 .177v15.591z" fill="#05192d"/>
</svg>
