<svg xmlns="http://www.w3.org/2000/svg" viewBox="0 0 89.09 24" xml:space="preserve">
  <path d="M12.064 0v24L0 12 12.064 0zm-.001 0h23.945L23.99 12.055 12.017.046 12.063 0zm23.908 24V0l12.064 12-12.064 12zm.002 0H12.028l12.018-12.056 11.972 12.01-.045.046z" fill-rule="evenodd" clip-rule="evenodd" fill="#05192d"/>
  <path d="M51.91 16.958h2.216v-4.215h4.287v4.215h2.217V6.908h-2.217v4.097h-4.287V6.908H51.91v10.05zm9.923-3.117c.014 2.421 1.86 3.342 3.953 3.342 2.65 0 4.324-1.309 4.324-3.153 0-2.28-2.229-2.671-2.994-2.9-2.424-.724-2.769-.858-2.769-1.632 0-.845.835-1.224 1.518-1.224.971 0 1.573.433 1.67 1.449h2.216c.03-2.173-1.584-2.997-3.79-2.997-1.931 0-3.915.929-3.915 2.984 0 1.886 1.576 2.454 3.008 2.899 1.575.49 2.676.498 2.676 1.582 0 .986-1.069 1.36-1.819 1.36-1.083 0-1.777-.492-1.84-1.71h-2.238zm11.59-1.275h1.815c.948 0 1.721.408 1.721 1.436 0 1.041-.868 1.407-1.762 1.407h-1.774v-2.843zm-2.172 4.392h4.206c1.927 0 3.856-.69 3.856-2.83 0-1.252-.816-2.111-2.278-2.365 1.344-.422 1.909-1.211 1.909-2.196 0-1.872-1.601-2.66-3.4-2.66h-4.293v10.051zm2.172-8.46h1.612c.77 0 1.653.324 1.653 1.281 0 .845-.732 1.309-1.488 1.309h-1.777v-2.59zM89.09 9.933c-.098-2.03-1.736-3.236-4.042-3.236-3.111 0-4.87 2.098-4.87 5.279 0 3.405 1.619 5.208 4.87 5.208 2.293 0 3.921-1.241 4.02-3.23h-2.283c-.216 1.056-.875 1.526-1.836 1.526-1.858 0-2.478-1.801-2.478-3.476 0-1.759.718-3.589 2.604-3.589.964 0 1.595.713 1.66 1.519h2.355z" fill="#05192d"/>
</svg>
