<svg xmlns="http://www.w3.org/2000/svg" viewBox="0 0 41.533 16.438" xml:space="preserve">
  <path d="M3.269.229H0V3.3h3.269V.229zm-.081 15.999V5.169H.093v11.059h3.095zm20.568.11v-2.71c-.454 0-.838-.022-1.117-.066-.625-.093-.932-.361-1.059-.962-.133-.657-.046-4.187-.07-4.94h2.245V5.169H21.51V.852h-3.106v10.699c-.135 3.828 1.741 4.936 5.352 4.787zm17.777-.11V0h-3.106v16.228h3.106zM15.415 6.251c-1.667-1.773-5.578-1.819-7.178.295l-.175.208V5.169h-3.06v11.059h3.083v-5.89.404-.197c-.159-2.799 3.049-4.031 4.817-2.317.446.504.68 1.234.675 2.142v5.847h3.129V9.945c.012-1.574-.43-2.82-1.291-3.694zm21.406 4.426a5.76 5.76 0 0 0-.442-2.24c-2.376-5.666-11.778-4.019-11.75 2.262-.008 6.163 8.273 7.37 11.448 3.584l-2.234-1.595c-1.359 1.656-5.516 1.859-6.236-.874l-.035-.098h9.249v-1.039zm-9.226-1.016c.281-2.942 5.962-2.945 6.247-.011l-6.247.011z" fill="#05192d"/>
</svg>
