<svg xmlns="http://www.w3.org/2000/svg" viewBox="0 0 117.105 24.903" xml:space="preserve">
  <path d="M72.083 7.381c-.724.192-1.377.308-2.187.395v.246c.912 0 1.028.102 1.028.856v2.534c-.536-.869-.957-1.129-1.739-1.129-1.55 0-2.636 1.462-2.636 3.548 0 2.086 1.1 3.55 2.68 3.55.826 0 1.39-.376 1.796-1.187.058.55.059.608.204 1.159.594-.189.84-.247 1.695-.348l.217-.03v-.246c-.97-.029-1.057-.101-1.057-.985V7.381zm-39.086.106a11.1 11.1 0 0 1-1.376.073c-.406 0-.623-.014-1.187-.058v.361c.999.058 1.201.203 1.201.87v.088l-.304 7.112c-.029.782-.173.898-1.187.97v.348c.754-.058 1.042-.072 1.448-.072.406 0 .695.014 1.434.072v-.348c-1.014-.073-1.203-.203-1.203-.84v-.13l.29-7.518 2.375 6.417.174.507.204.565.202.566.16.464h.218l.159-.478.188-.552.202-.535.174-.479 2.391-6.46.13 7.504v.072c0 .681-.217.84-1.203.898v.348c.913-.087 1.26-.116 1.811-.116.55 0 .898.029 1.811.116v-.348c-1.043-.073-1.174-.188-1.188-.97l-.159-7.112v-.103c0-.652.217-.797 1.203-.856v-.361a12.55 12.55 0 0 1-1.145.058c-.435 0-.738-.015-1.391-.073l-2.738 7.331-2.694-7.331zm56.351.058v.363c1.043.058 1.188.173 1.188.955v7.026c0 .782-.116.883-1.188.97v.348h3.666c1.072 0 1.651-.13 2.259-.507.725-.464 1.202-1.348 1.202-2.261 0-.782-.333-1.491-.898-1.926-.305-.232-.623-.362-1.145-.464 1.043-.391 1.594-1.13 1.594-2.143 0-.754-.319-1.421-.87-1.84-.492-.362-1.058-.522-1.999-.522h-3.809zm2.405.449h1.231c1.217 0 1.753.593 1.753 1.941 0 .666-.158 1.144-.477 1.521-.319.362-.71.478-1.522.478h-.985v-3.94zm-33.317 2.072-.392.739c-.464-.449-.854-.608-1.477-.608-1.71 0-2.869 1.478-2.869 3.636 0 2.115 1.145 3.535 2.825 3.535 1.304 0 2.13-.841 2.317-2.391h-.594c-.174 1.275-.71 1.913-1.609 1.913-1.115 0-1.679-1.029-1.679-3.057 0-2.072.638-3.244 1.724-3.244.884 0 1.419.608 1.68 1.868h.319v-2.39h-.245zm25.957.044-.246.593c-.492-.333-.912-.463-1.477-.463-1.275 0-2.173.782-2.173 1.927 0 .84.334 1.245 1.391 1.739l.666.303.55.246c.71.319.986.652.986 1.144 0 .739-.638 1.304-1.493 1.304-1.014 0-1.623-.637-1.884-1.955l-.317.014v2.419h.26l.347-.652c.551.435 1.072.608 1.739.608 1.362 0 2.333-.868 2.333-2.086 0-.854-.392-1.319-1.493-1.797l-.608-.26c-1.319-.579-1.535-.767-1.535-1.347 0-.681.594-1.202 1.361-1.202.913 0 1.391.551 1.521 1.709h.334V10.11h-.262zm21.414 0c-.578.203-1.072.319-1.913.434v.246c.073 0 .147.014.19.014.725 0 .81.088.825.682v4.693c0 .623-.144.739-1.028.782v.29a13.598 13.598 0 0 1 1.564-.086c.522 0 .812.014 1.566.086v-.29c-.754-.029-.942-.174-.942-.753v-3.507c0-1.188.521-1.81 1.506-1.81.927 0 1.303.507 1.303 1.767v3.55c0 .579-.188.724-.97.753v.29a13.496 13.496 0 0 1 1.579-.086c.521 0 .812.014 1.58.086v-.29c-.884-.043-1.03-.16-1.03-.782v-3.477c0-.55-.072-.955-.218-1.303-.289-.71-1.042-1.159-1.911-1.159-.84 0-1.435.348-1.957 1.13-.029-.551-.071-.927-.144-1.26zm-55.752.028c-.595.174-1.087.261-1.913.334v.26h.188c.753.014.826.087.84.71v4.737c0 .623-.159.739-1.043.782v.29c.797-.073 1.101-.088 1.623-.088.507 0 .811.015 1.607.088v-.29c-.883-.043-1.028-.16-1.028-.782v-3.028c0-1.435.478-2.346 1.231-2.346.261 0 .436.144.436.347v.13l-.029.146c-.014.058-.028.116-.028.144 0 .29.261.492.594.492.362 0 .608-.276.608-.696 0-.695-.536-1.173-1.26-1.173-.753 0-1.377.479-1.695 1.304v-.16a16.376 16.376 0 0 0-.131-1.201zm-5.427.058c-1.738 0-2.824 1.405-2.824 3.636s1.085 3.535 2.954 3.535c1.419 0 2.347-.884 2.535-2.377h-.579c-.174 1.232-.812 1.898-1.84 1.898-1.318 0-1.897-1.013-1.911-3.274h4.317c-.03-2.229-.942-3.418-2.652-3.418zm67.494.174-.334 1.883h.291c.521-1.304.752-1.507 1.695-1.507h1.78l-3.925 6.461h4.983l.377-2.085h-.304c-.435 1.318-.84 1.709-1.826 1.709h-1.694l3.94-6.461h-4.983zm-66.001 2.723h-3.129c.078-1.193.506-2.521 1.623-2.521s1.506 1.314 1.506 2.521zm16.576-2.897c-1.738 0-2.824 1.405-2.824 3.636s1.085 3.535 2.954 3.535c1.419 0 2.347-.884 2.535-2.377h-.579c-.174 1.232-.812 1.898-1.84 1.898-1.318 0-1.897-1.013-1.911-3.274h4.316c-.028-2.229-.941-3.418-2.651-3.418zm1.493 2.897h-3.13c.078-1.193.506-2.521 1.623-2.521s1.507 1.314 1.507 2.521zm-.001 0H61.06m15.462-2.897c-1.738 0-2.824 1.405-2.824 3.636s1.086 3.535 2.954 3.535c1.42 0 2.347-.884 2.535-2.377h-.579c-.174 1.232-.812 1.898-1.84 1.898-1.318 0-1.897-1.013-1.911-3.274h4.317c-.03-2.229-.943-3.418-2.652-3.418zm1.492 2.897h-3.129c.078-1.193.506-2.521 1.623-2.521s1.506 1.314 1.506 2.521zm0 0h-3.129m25.592-2.897c-1.738 0-2.824 1.405-2.824 3.636s1.086 3.535 2.954 3.535c1.42 0 2.347-.884 2.535-2.377h-.579c-.174 1.232-.812 1.898-1.84 1.898-1.318 0-1.897-1.013-1.911-3.274h4.317c-.03-2.229-.943-3.418-2.652-3.418zm1.492 2.897H98.84c.078-1.193.506-2.521 1.623-2.521s1.506 1.314 1.506 2.521zm0 0H98.84m-29.524-2.405c1.072 0 1.623 1.102 1.623 3.231 0 2.013-.536 3.056-1.579 3.056s-1.593-1.086-1.593-3.158c0-2.1.506-3.129 1.549-3.129zm22.437 1.696h1.377c.768 0 1.202.13 1.535.463.333.333.521.956.521 1.651 0 1.448-.724 2.261-2.013 2.261h-.521c-.768 0-.898-.117-.898-.754v-3.621zm-5.81.574v.749h3.237v-.749h-3.237z" fill="#05192d"/>
  <path d="m12.197 1.243-1.412 10.192-8.124 6.345a11.206 11.206 0 0 1-1.348-5.335c0-6.471 5.442-11.202 10.884-11.202zM.07 12.445c0 4.791 2.708 8.961 6.686 11.046a12.535 12.535 0 0 0 5.779 1.411c2.073 0 4.029-.518 5.766-1.424a12.446 12.446 0 0 0 6.673-11.034c0-4.792-2.708-8.948-6.673-11.033A12.421 12.421 0 0 0 12.534 0C5.019 0 .07 6.18.07 12.445zm12.438 2.072 5.792 2.344 3.732 1.515a11.143 11.143 0 0 1-3.732 3.678 11.125 11.125 0 0 1-5.766 1.606c-2.112 0-4.094-.583-5.779-1.606a11.139 11.139 0 0 1-3.719-3.652M18.3 14.556l-4.004-3.121-1.425-10.192c1.969.065 3.835.634 5.429 1.593 3.252 1.969 5.429 5.543 5.429 9.609 0 1.93-.479 3.73-1.335 5.31L18.3 14.556z" fill-rule="evenodd" clip-rule="evenodd" fill="#05192d"/>
</svg>
