<svg xmlns="http://www.w3.org/2000/svg" viewBox="0 0 103.86 21.989" xml:space="preserve">
  <path d="M103.86 9.947V8.136h-2.268V5.32l-.077.023-2.13.646-.042.013v2.134H95.98V6.947c-.092-1.541 1.259-2.047 2.48-1.421V3.619c-2.193-.762-4.872.679-4.747 3.21v1.307h-1.579v1.811h1.579v7.631h2.267V9.947h3.363v4.849c-.163 2.774 2.394 3.578 4.517 2.665v-1.828c-1.093.722-2.405.279-2.268-1.229V9.946h2.268zm-16.79 6.02c-3.537.205-3.515-6.399-.018-6.22 1.78.019 2.548 1.29 2.539 3.092-.007 1.837-.66 3.113-2.521 3.128zm.101-8.059c-6.562-.368-6.836 10.11-.229 9.897 6.424.33 6.781-10.144.229-9.897zm-8.701 0c-2.897-.181-4.971 2.819-2.751 4.949.432.422 1.987.983 2.524 1.294.441.268.639.441.645.946-.154 1.657-3.129.818-4.068.013v2.165c1.544.712 4.051.767 5.293-.278 1.155-.833 1.385-2.699.477-3.767-.378-.696-2.666-1.403-3.232-1.885-.354-.334-.394-1.087.073-1.4.891-.589 2.382-.14 3.209.429V8.32c-.538-.242-1.562-.416-2.17-.412zm-9.56 8.059c-3.537.205-3.515-6.399-.018-6.22 1.779.019 2.548 1.29 2.539 3.092-.008 1.837-.66 3.113-2.521 3.128zm.101-8.059c-6.563-.368-6.836 10.11-.23 9.897 6.425.33 6.782-10.143.23-9.897zm-8.487 1.863V8.136h-2.24v9.442h2.24v-4.83c-.09-2.02 1.491-3.519 3.297-2.389V8.12c-1.3-.517-2.841.266-3.273 1.651h-.024zm-6.251-1.863c-4.047-.235-6.343 4.253-4.537 7.627 1.19 2.388 4.745 2.838 6.856 1.626v-2.035c-2.094 1.672-5.255.757-5.133-2.216-.136-2.888 3.017-4.09 5.133-2.361V8.406c-.579-.333-1.614-.5-2.319-.498zm-6.679.228h-2.24v9.442h2.24V8.136zm-1.097-4.022c-1.771.007-1.795 2.571 0 2.567 1.799.007 1.789-2.564 0-2.567zm-5.588 3.325v10.139h2.286V4.403h-3.163l-4.021 9.786-3.902-9.786h-3.292v13.175h2.148V7.438h.074l4.121 10.14h1.621l4.056-10.139h.072zm-30.373 3.009H0V0h10.536v10.448zm11.633 0H11.634V0H22.17v10.448zM10.536 21.989H0V11.54h10.536v10.449zm11.633 0H11.634V11.54H22.17v10.449z" fill="#05192d"/>
</svg>
