<svg xmlns="http://www.w3.org/2000/svg" viewBox="0 0 70.071 17.999" xml:space="preserve">
  <path d="M2.958 0h5.45c1.824 0 3.198.464 3.973 1.341.705.799.939 1.94.695 3.392-.541 3.319-2.613 4.994-6.203 4.994H5.147a.75.75 0 0 0-.748.617l-.594 3.634a.749.749 0 0 1-.748.617H.455a.442.442 0 0 1-.449-.505L2.21.616A.749.749 0 0 1 2.958 0zm2.84 6.806c1.445 0 2.939 0 3.237-1.885.109-.662.021-1.142-.265-1.464-.48-.541-1.408-.541-2.392-.541h-.376a.45.45 0 0 0-.449.37l-.577 3.52h.822zM22.09 4.86h2.61a.44.44 0 0 1 .447.505l-1.411 8.611a.749.749 0 0 1-.748.617h-2.351a.443.443 0 0 1-.448-.507l.116-.699s-1.289 1.441-3.613 1.441c-1.354 0-2.492-.377-3.287-1.28-.867-.983-1.222-2.391-.972-3.865.48-2.954 2.943-5.06 5.827-5.06 1.257 0 2.517.264 3.083 1.055l.182.255.116-.704a.451.451 0 0 1 .449-.369zm-3.974 7.299c1.509 0 2.693-.965 2.945-2.402.114-.696-.044-1.328-.442-1.78-.397-.448-.999-.685-1.74-.685-1.486 0-2.69.996-2.925 2.422-.123.699.024 1.327.41 1.768.389.443.994.677 1.752.677zM38.599 4.86h-2.623a.77.77 0 0 0-.627.32l-3.617 5.136-1.533-4.936a.757.757 0 0 0-.727-.521h-2.577c-.313 0-.531.295-.431.579l2.889 8.173-2.716 3.696c-.214.291.002.691.371.691h2.619a.765.765 0 0 0 .622-.313l8.723-12.138c.208-.29-.006-.687-.373-.687zM41.832 0h5.451c1.824 0 3.197.464 3.971 1.341.705.799.94 1.94.696 3.392-.542 3.319-2.613 4.994-6.204 4.994h-1.725a.748.748 0 0 0-.747.617l-.626 3.819a.525.525 0 0 1-.523.432h-2.797a.443.443 0 0 1-.448-.505L41.084.617A.75.75 0 0 1 41.832 0zm2.84 6.806c1.446 0 2.94 0 3.237-1.885.109-.662.022-1.142-.264-1.464-.48-.541-1.409-.541-2.392-.541h-.377a.448.448 0 0 0-.448.37l-.578 3.52h.822zM60.967 4.86h2.608c.28 0 .493.24.45.505l-1.411 8.611a.749.749 0 0 1-.748.617h-2.35a.444.444 0 0 1-.45-.507l.116-.699s-1.289 1.441-3.612 1.441c-1.354 0-2.49-.377-3.287-1.28-.867-.983-1.22-2.391-.971-3.865.48-2.954 2.942-5.06 5.826-5.06 1.257 0 2.517.264 3.082 1.055l.183.255.115-.704a.45.45 0 0 1 .449-.369zm-3.976 7.299c1.509 0 2.694-.965 2.945-2.402.116-.696-.042-1.328-.441-1.78-.397-.448-.999-.685-1.741-.685-1.486 0-2.688.996-2.925 2.421-.121.699.024 1.327.41 1.768.388.444.996.678 1.752.678zM66.651.37l-2.237 13.719a.442.442 0 0 0 .448.505h2.249a.747.747 0 0 0 .748-.617L70.065.505a.443.443 0 0 0-.448-.506h-2.518a.452.452 0 0 0-.448.371z" fill-rule="evenodd" clip-rule="evenodd" fill="#05192d"/>
</svg>
