<svg xmlns="http://www.w3.org/2000/svg" viewBox="0 0 74 15" xml:space="preserve">
  <path d="m0 12.341 10.465-4.323V5.314L0 1v3.244l6.36 2.431L0 9.115v3.226zm10.964-1.972h11.462v3.452H10.964v-3.452zm23.022-1.246c.111.2.167.432.167.695 0 .243-.052.46-.156.649a1.42 1.42 0 0 1-.428.479 1.979 1.979 0 0 1-.638.292 2.993 2.993 0 0 1-.785.099 3.2 3.2 0 0 1-.921-.125 2.174 2.174 0 0 1-.727-.372 1.827 1.827 0 0 1-.498-.619 2.345 2.345 0 0 1-.226-.873H27.9a3.091 3.091 0 0 0 .649 1.902c.2.256.434.481.704.676.27.195.561.358.875.49.314.132.641.23.983.296a5.57 5.57 0 0 0 2.511-.095c.472-.129.886-.32 1.244-.573.358-.253.643-.567.855-.942.213-.375.319-.808.319-1.299 0-.476-.096-.899-.288-1.268a3.255 3.255 0 0 0-.778-.976 4.878 4.878 0 0 0-1.135-.722c-.43-.2-.881-.368-1.353-.505-.306-.086-.6-.181-.882-.285a3.741 3.741 0 0 1-.75-.368 1.943 1.943 0 0 1-.529-.497 1.13 1.13 0 0 1-.202-.672 1.405 1.405 0 0 1 .556-1.147c.174-.137.38-.241.618-.311a2.72 2.72 0 0 1 .778-.106c.326 0 .614.046.863.137.249.091.46.22.634.387s.308.366.404.596c.096.23.157.485.183.763h1.866a3.074 3.074 0 0 0-.319-1.371 3.264 3.264 0 0 0-.842-1.064 3.929 3.929 0 0 0-1.244-.691 4.619 4.619 0 0 0-1.528-.247c-.508 0-.995.071-1.462.213a3.941 3.941 0 0 0-1.228.608 3.031 3.031 0 0 0-.844.961c-.21.377-.315.804-.315 1.28s.105.895.315 1.257c.21.362.485.679.824.949.34.271.726.5 1.159.687.433.187.872.344 1.318.471.332.096.639.201.921.315.283.114.526.247.731.399.205.151.363.327.475.527zm6.811-4.485a3.159 3.159 0 0 0-1.061.949V1h-1.858v11.666h1.858v-5.97c.197-.278.451-.5.762-.665a2.256 2.256 0 0 1 1.073-.247c.269 0 .511.035.723.106.212.071.393.18.54.327.148.147.262.333.342.558.08.225.12.495.12.809v5.081h1.858V7.6c0-.582-.073-1.082-.218-1.5a2.713 2.713 0 0 0-.606-1.025 2.37 2.37 0 0 0-.937-.589 3.64 3.64 0 0 0-1.201-.19 2.86 2.86 0 0 0-1.395.342zm8.851 7.876a4.592 4.592 0 0 0 1.703.304c.42 0 .807-.044 1.162-.133s.675-.205.96-.349c.285-.144.534-.309.746-.494.213-.185.386-.376.521-.573l-1.011-.927c-.249.319-.571.57-.968.752a3.087 3.087 0 0 1-1.302.273c-.337 0-.647-.057-.929-.171a2.322 2.322 0 0 1-1.248-1.181c-.13-.273-.21-.57-.241-.889h5.831V8.36c0-.592-.08-1.137-.241-1.633a3.678 3.678 0 0 0-.711-1.287 3.187 3.187 0 0 0-1.17-.843c-.467-.2-1.006-.3-1.617-.3-.529 0-1.033.099-1.512.296a3.72 3.72 0 0 0-1.26.851c-.36.37-.648.815-.863 1.337s-.323 1.109-.323 1.762v.311c0 .562.101 1.085.303 1.568.202.484.486.903.851 1.257a3.97 3.97 0 0 0 1.319.835zm.755-6.615c.223-.091.464-.137.723-.137.316 0 .592.053.828.16s.431.248.587.425c.156.177.273.378.354.604.08.225.128.46.144.703v.136h-3.942c.052-.319.139-.604.26-.854.122-.251.271-.463.447-.638s.376-.308.599-.399zM61.879 1H57.33v1.511h2.675v8.651H57.33v1.504h7.114v-1.504h-2.566V1zm9.555 0h-4.548v1.511h2.675v8.651h-2.675v1.504H74v-1.504h-2.566V1z" fill-rule="evenodd" clip-rule="evenodd" fill="#05192d"/>
</svg>
