<svg version="1.1" xmlns="http://www.w3.org/2000/svg" viewBox="0 0 159 36" xml:space="preserve">
  <path fill="#000" fill-rule="evenodd" clip-rule="evenodd" d="M8.38 3.458a17.556 17.556 0 0 0-3.11 2.477 17.594 17.594 0 0 0-2.491 3.131l6.136 6.136 5.605-5.605-6.14-6.139zm-7.286 9.155 5.205 5.205-5.378 5.378a17.109 17.109 0 0 1 .173-10.583zm1.42 14.156-.001.001a16.616 16.616 0 0 0 2.521 3.234 16.597 16.597 0 0 0 2.961 2.354l.053-.056 6.368-6.368L8.882 20.4l-6.368 6.369zm14.484 1.748-5.491 5.491c3.519 1.173 7.368 1.149 10.918-.065l-5.427-5.426zm2.616-2.615 5.605-5.605 6.272 6.272c.03.03.06.058.092.085a17.555 17.555 0 0 1-2.48 3.114c-.969.969-2.022 1.8-3.135 2.493a1.677 1.677 0 0 0-.082-.088l-6.272-6.271zm3.022-8.187-5.605 5.605-5.534-5.534 5.605-5.605 5.534 5.534zm5.198-.034 5.435 5.435c1.223-3.557 1.25-7.416.074-10.943l-5.509 5.508zm3.859-9.019a1.572 1.572 0 0 0-.073.069l-6.368 6.368-5.534-5.534 6.368-6.368.018-.018a16.622 16.622 0 0 1 5.589 5.483zM11.922 1.769a17.109 17.109 0 0 1 10.608-.182l-5.395 5.395-5.213-5.213zM52.599 28.084l3.916-11.82 3.88 11.82h4.455l6.18-18.539h-4.742l-3.701 11.677-3.88-11.677h-4.419l-3.88 11.641-3.665-11.641H42l6.144 18.539h4.455zm26.413.216c2.192 0 4.132-1.006 5.533-2.623v2.407h4.743V9.545h-4.743v2.407c-1.401-1.617-3.341-2.623-5.533-2.623h-.036c-4.383 0-7.833 4.24-7.833 9.485 0 5.281 3.449 9.485 7.833 9.485h.036zm1.258-4.743h-.036c-2.479 0-4.347-2.084-4.347-4.743s1.832-4.743 4.347-4.743h.036c2.371 0 4.276 2.12 4.276 4.743s-1.905 4.743-4.276 4.743zm18.617 4.527V13.677h6.683v14.407h4.742V13.677h6.899v14.407h4.742V2.216h-4.742v7.329h-6.899V8.359c0-1.509 1.15-2.012 2.443-2.012.899 0 1.438.216 1.653.323V2.467c-.395-.144-1.473-.467-3.054-.467-3.521 0-5.784 2.659-5.784 6.323v1.222h-6.683V8.359c0-1.509 1.186-2.012 2.443-2.012.898 0 1.437.216 1.653.323V2.467C102.588 2.323 101.51 2 99.929 2c-3.521 0-5.785 2.659-5.785 6.323v1.222h-2.659v4.132h2.659v14.407h4.743zm35.072.216c5.929 0 7.977-4.743 8.156-6.288h-4.742c-.324.97-1.509 2.084-3.414 2.084-2.766 0-4.131-1.689-4.455-3.952h12.863c.036-.359.072-.862.072-1.401 0-5.174-3.773-9.413-8.623-9.413-5.102 0-9.162 4.132-9.162 9.485 0 5.461 3.952 9.485 9.305 9.485zm3.809-11.533h-8.12c.539-1.904 1.868-3.234 4.168-3.234 2.191 0 3.449 1.365 3.952 3.234zM151.283 28.3c4.06 0 7.186-2.228 7.186-6.036 0-2.623-1.797-4.635-5.461-5.497l-2.48-.575c-.97-.216-1.473-.683-1.473-1.437 0-.97.863-1.617 2.228-1.617.647 0 1.15.215 1.581.575.503.431.718 1.078.718 1.689h4.24c0-2.982-2.551-6.072-6.539-6.072-4.024 0-6.898 2.263-6.898 5.497 0 2.659 1.473 4.635 4.922 5.461l2.299.575c1.437.323 2.192.755 2.192 1.689 0 1.078-1.114 1.689-2.515 1.689-.826 0-1.545-.287-2.048-.719-.575-.467-.898-1.042-.898-1.689h-4.312c0 3.018 2.515 6.467 7.258 6.467z"/>
</svg>
