<svg version="1.1" id="Layer_1" xmlns="http://www.w3.org/2000/svg" x="0" y="0" viewBox="0 0 240 240" xml:space="preserve">
  <style>
    .st0{fill-rule:evenodd;clip-rule:evenodd}
  </style>
  <path class="st0" d="M228.982 161.39 120.256 96.152l-.256-.153L0 168.001 120 240l120-71.999-11.018-6.611zm-108.983-29.68-28.793-17.276L120 97.157l28.793 17.277-28.794 17.276zm29.76-16.697 28.791 17.275-28.794 17.277-28.792-17.275 28.795-17.277zm-59.519.001 28.793 17.276-28.793 17.275-28.792-17.276 28.792-17.275zm29.759 17.855 28.793 17.275-28.793 17.276-28.793-17.276 28.793-17.275zm29.758 17.854 28.793 17.276-28.794 17.276-28.792-17.276 28.793-17.276zm.965-.579 28.793-17.277 28.793 17.276-28.793 17.276-28.793-17.275zm-90.239-17.276 28.792 17.276-28.792 17.275-28.791-17.275 28.791-17.276zm29.758 17.855 28.793 17.276-28.792 17.276-28.793-17.276 28.792-17.276zm-.964 35.131-28.795 17.277-28.794-17.277 28.795-17.277 28.794 17.277zm.965.579 28.792 17.275-28.795 17.277-28.792-17.275 28.795-17.277zm.965-.579 28.792-17.276 28.792 17.276-28.792 17.275-28.792-17.275zm58.549.58 28.795 17.278-28.792 17.275-28.795-17.278 28.792-17.275zm.966-.58 28.794-17.276 28.796 17.277-28.794 17.277-28.796-17.278zm29.759-17.855 28.794-17.276 18.007 10.805 10.788 6.473-28.793 17.276-28.796-17.278zm-177.759-.473 28.004-16.803 28.792 17.275-28.795 17.277-28.792-17.274.791-.475zm88.482 54.039 28.795-17.277 28.796 17.277L120 238.842l-28.796-17.277z"/>
  <path class="st0" d="m134.74 140.985-29.453 17.77-.425.257-13.62 8.218c-1.416.808-2.478 1.297-3.581 1.201l-.011-.011-.019-.021-.04-.047c-.657-1.02-.797-2.106-.841-3.912v-30.521c7.706-6.333 13.53-16.689 14.954-26.719l47.226-28.492c4.65 7.405 14.07 9.591 23.64 3.814 10.69-6.452 18.9-21.114 18.9-33.716 0-15.773-13.17-23.419-26.65-15.288-9.46 5.708-16.97 17.841-18.58 29.289L99.021 91.3c-4.588-7.3-13.807-9.527-23.24-4.053-10.948 6.381-19.283 21.189-19.301 33.955-.14 9.572 5.434 18.09 15.046 18.558l.224.134.004 25.028c.078 4.667 1.289 8.615 3.307 11.652l.638.894c2.409 3.151 5.767 5.165 9.633 5.78l1.075.133c3.881.349 8.214-.671 12.584-3.308L149.3 149.72c.148.096.913.549 1.08.649 2.1 2.435 4.83 4.073 7.94 4.764l1.22.219c17.528 1.791 31.96-20.757 31.93-36.853 0-15.773-13.17-23.419-26.65-15.288-10.107 6.133-17.716 19.227-18.77 30.949l-10.89 6.569-.42.256zm37.83-94.624c1.353-.778 2.198-1.128 3.16-1.135l.01.02c.06.079.13.195.2.354 2.718 7.974-5.935 23.815-14.25 25.215l-.03-.003-.01-.019c-3.055-7.727 4.343-20.471 10.92-24.432zm-94.418 75.174-.001.001-5.326 3.196h-.001c-.12.022-.229.036-.342.047a1.932 1.932 0 0 1-.233.005l-.03-.003-.015-.019c-3.346-7.79 5.788-24.209 14.011-25.571l.068.004c2.785 6.626-2.83 17.443-8.131 22.34zm95.728 6.984c-2.674 5.302-6.756 10.8-11.95 11.985-.1.007-.18.008-.24.005l-.03-.003-.01-.019a1.754 1.754 0 0 1-.2-.355c-2.761-7.661 5.88-23.862 14.25-25.215l.03.003.01.019c.06.079.13.195.2.355 1.393 4.002-.121 9.02-2.06 13.225z"/>
</svg>
