<svg version="1.1" xmlns="http://www.w3.org/2000/svg" viewBox="0 0 240 240" xml:space="preserve">
  <path fill-rule="evenodd" clip-rule="evenodd" fill-opacity="0.6" d="M228.982 161.39 120.256 96.152l-.256-.153L0 168.001 120 240l120-71.999-11.018-6.611zm-108.983-29.68-28.793-17.276L120 97.157l28.793 17.277-28.794 17.276zm29.76-16.697 28.791 17.275-28.794 17.277-28.792-17.275 28.795-17.277zm-59.519.001 28.793 17.276-28.793 17.275-28.792-17.276 28.792-17.275zm29.759 17.855 28.793 17.275-28.793 17.276-28.793-17.276 28.793-17.275zm29.758 17.854 28.793 17.276-28.794 17.276-28.792-17.276 28.793-17.276zm.965-.579 28.793-17.277 28.793 17.276-28.793 17.276-28.793-17.275zm-90.239-17.276 28.792 17.276-28.792 17.275-28.791-17.275 28.791-17.276zm29.758 17.855 28.793 17.276-28.792 17.276-28.793-17.276 28.792-17.276zm-.964 35.131-28.795 17.277-28.794-17.277 28.795-17.277 28.794 17.277zm.965.579 28.792 17.275-28.795 17.277-28.792-17.275 28.795-17.277zm.965-.579 28.792-17.276 28.792 17.276-28.792 17.275-28.792-17.275zm58.549.58 28.795 17.278-28.792 17.275-28.795-17.278 28.792-17.275zm.966-.58 28.794-17.276 28.796 17.277-28.794 17.277-28.796-17.278zm29.759-17.855 28.794-17.276 18.007 10.805 10.788 6.473-28.793 17.276-28.796-17.278zm-177.759-.473 28.004-16.803 28.792 17.275-28.795 17.277-28.792-17.274.791-.475zm88.482 54.039 28.795-17.277 28.796 17.277L120 238.842l-28.796-17.277z"/>
  <path fill-rule="evenodd" clip-rule="evenodd" d="M19.164 125.314c-8.609-5.166-8.609-17.644 0-22.809l55.894-33.537 14.981 8.988-59.922 35.953 59.921 36.209-14.78 8.868-56.094-33.672zm201.671 0c8.61-5.166 8.61-17.644 0-22.809l-55.894-33.537-14.981 8.988 59.922 35.953-59.922 36.209 14.768 8.861 56.107-33.665zM89.959 186.006l14.996 9.015L149.96 42.003l-14.963-8.998-45.038 153.001z"/>
</svg>
