<svg version="1.1" xmlns="http://www.w3.org/2000/svg" viewBox="0 0 240 240" xml:space="preserve">
  <path fill-rule="evenodd" clip-rule="evenodd" fill-opacity="0.6" d="M228.982 161.39 120.256 96.152l-.256-.153L0 168.001 120 240l120-71.999-11.018-6.611zm-108.983-29.68-28.793-17.276L120 97.157l28.793 17.277-28.794 17.276zm29.76-16.697 28.791 17.275-28.794 17.277-28.792-17.275 28.795-17.277zm-59.519.001 28.793 17.276-28.793 17.275-28.792-17.276 28.792-17.275zm29.759 17.855 28.793 17.275-28.793 17.276-28.793-17.276 28.793-17.275zm29.758 17.854 28.793 17.276-28.794 17.276-28.792-17.276 28.793-17.276zm.965-.579 28.793-17.277 28.793 17.276-28.793 17.276-28.793-17.275zm-90.239-17.276 28.792 17.276-28.792 17.275-28.791-17.275 28.791-17.276zm29.758 17.855 28.793 17.276-28.792 17.276-28.793-17.276 28.792-17.276zm-.964 35.131-28.795 17.277-28.794-17.277 28.795-17.277 28.794 17.277zm.965.579 28.792 17.275-28.795 17.277-28.792-17.275 28.795-17.277zm.965-.579 28.792-17.276 28.792 17.276-28.792 17.275-28.792-17.275zm58.549.58 28.795 17.278-28.792 17.275-28.795-17.278 28.792-17.275zm.966-.58 28.794-17.276 28.796 17.277-28.794 17.277-28.796-17.278zm29.759-17.855 28.794-17.276 18.007 10.805 10.788 6.473-28.793 17.276-28.796-17.278zm-177.759-.473 28.004-16.803 28.792 17.275-28.795 17.277-28.792-17.274.791-.475zm88.482 54.039 28.795-17.277 28.796 17.277L120 238.842l-28.796-17.277z"/>
  <path fill-rule="evenodd" clip-rule="evenodd" d="M186.241 92.528h-.01c-.851-31.114-36.448-47.605-66.375-47.25-29.503-.285-64.198 15.43-66.338 45.75h-.027v.769c-.014.57-.014 1.142 0 1.712v66.019c4.192 29.872 37.03 43.779 65.638 43.997 28.952.246 62.503-13.532 67.112-43.747l-.01-67.25m-32.143 24.114c-13.418 7.783-32.29 10.066-47.919 7.201-16.633-2.569-37.154-14.043-37.678-30.553v-1.274c.55-16.86 22.871-31.738 51.365-31.738 28.852 0 51.375 15.254 51.375 32.375.052 9.218-6.724 18.077-17.143 23.989zm-27.494 54.898c17.412-1.385 32.46-6.637 44.647-16.936v1.674h-.01c-.846 21.831-30.323 32.578-51.375 32.25-21.042.246-49.748-10.074-51.365-31.616v-2.29c15.039 12.974 37.282 18.408 58.103 16.918zm-55.071-46.265c27.425 20.378 73.519 19.849 99.718-2.47v1.723h-.01c-.054 6.447-2.996 12.097-8.123 17.191l-1.566 1.451c-3.791 3.361-9.031 6.435-14.143 8.485l-2.36.905c-14.283 5.469-35.264 5.569-49.666.248l-2.207-.813c-5.656-2.166-11.503-5.572-15.581-9.349l-1.413-1.359c-4.7-4.822-7.441-10.131-7.681-16.125v-2.339c.967.84 1.992 1.667 3.032 2.452z"/>
</svg>
