<svg version="1.1" xmlns="http://www.w3.org/2000/svg" viewBox="0 0 240 240" xml:space="preserve">
  <path fill-rule="evenodd" clip-rule="evenodd" d="M228.982 161.39 120.256 96.152l-.256-.153L0 168.001 120 240l120-71.999-11.018-6.611zm-108.983-29.68-28.793-17.276L120 97.157l28.793 17.277-28.794 17.276zm29.76-16.697 28.791 17.275-28.794 17.277-28.792-17.275 28.795-17.277zm-59.519.001 28.793 17.276-28.793 17.275-28.792-17.276 28.792-17.275zm29.759 17.855 28.793 17.275-28.793 17.276-28.793-17.276 28.793-17.275zm29.758 17.854 28.793 17.276-28.794 17.276-28.792-17.276 28.793-17.276zm.965-.579 28.793-17.277 28.793 17.276-28.793 17.276-28.793-17.275zm-90.239-17.276 28.792 17.276-28.792 17.275-28.791-17.275 28.791-17.276zm29.758 17.855 28.793 17.276-28.792 17.276-28.793-17.276 28.792-17.276zm-.964 35.131-28.795 17.277-28.794-17.277 28.795-17.277 28.794 17.277zm.965.579 28.792 17.275-28.795 17.277-28.792-17.275 28.795-17.277zm.965-.579 28.792-17.276 28.792 17.276-28.792 17.275-28.792-17.275zm58.549.58 28.795 17.278-28.792 17.275-28.795-17.278 28.792-17.275zm.966-.58 28.794-17.276 28.796 17.277-28.794 17.277-28.796-17.278zm29.759-17.855 28.794-17.276 18.007 10.805 10.788 6.473-28.793 17.276-28.796-17.278zm-177.759-.473 28.004-16.803 28.792 17.275-28.795 17.277-28.792-17.274.791-.475zm88.482 54.039 28.795-17.277 28.796 17.277L120 238.842l-28.796-17.277z"/>
  <path fill-rule="evenodd" clip-rule="evenodd" d="m120.088 203.73-5.564-50.45 1.345-2.22 45.961-76.77c7.51-11.98 23.88-18.54 40.82-8.04 12.53 7.73 20.29 23.65 10.82 39.04-9.48 15.78-46.09 76.65-46.09 76.65l-1.28 2.13-46.012 19.66zm10.37-46.97 2.705 24.59 22.337-9.54c6.921-11.522 23.163-38.507 31.91-53.06-1.721-8.957-16.767-17.085-25.17-15.04l-31.782 53.05zm40.872-68.24c9.151 1.56 19.601 7.522 25.29 14.92 1.47-2.45 2.72-4.53 3.7-6.15 6.11-9.98-4.4-16.97-5.76-17.87l-.04-.03c-4.73-2.92-14.14-5.58-19.5 2.98l-3.69 6.15zM119.85 203.7h.053v-.17l-.053.17zm-.414.05-22.399-14c-16.493-.03-34.056-2.05-41.087-8.01a6.716 6.716 0 0 1-2.72-5.14c-1.079-7.75 4.711-8.31 13.472-9.16 17.191-2.148 40.436-4.572 39.786-26.24-2.154-14.581-13.767-21.081-26.901-20.7-10.278 6.19-19.325 11.76-19.325 11.76 28.673-2.404 41.755 14.008 13.77 18.64-16.025 3.117-35.332 2.879-36.273 26.37-.026 6.225 3.423 12.334 8.176 16.26 12.887 12.179 50.769 12.921 73.501 10.22z"/>
</svg>
