<svg version="1.1" id="Layer_1" xmlns="http://www.w3.org/2000/svg" x="0" y="0" viewBox="0 0 240 240" xml:space="preserve">
  <style>
    .st0{fill-rule:evenodd;clip-rule:evenodd}
  </style>
  <path class="st0" d="M228.982 161.39 120.256 96.152l-.256-.153L0 168.001 120 240l120-71.999-11.018-6.611zm-108.983-29.68-28.793-17.276L120 97.157l28.793 17.277-28.794 17.276zm29.76-16.697 28.791 17.275-28.794 17.277-28.792-17.275 28.795-17.277zm-59.519.001 28.793 17.276-28.793 17.275-28.792-17.276 28.792-17.275zm29.759 17.855 28.793 17.275-28.793 17.276-28.793-17.276 28.793-17.275zm29.758 17.854 28.793 17.276-28.794 17.276-28.792-17.276 28.793-17.276zm.965-.579 28.793-17.277 28.793 17.276-28.793 17.276-28.793-17.275zm-90.239-17.276 28.792 17.276-28.792 17.275-28.791-17.275 28.791-17.276zm29.758 17.855 28.793 17.276-28.792 17.276-28.793-17.276 28.792-17.276zm-.964 35.131-28.795 17.277-28.794-17.277 28.795-17.277 28.794 17.277zm.965.579 28.792 17.275-28.795 17.277-28.792-17.275 28.795-17.277zm.965-.579 28.792-17.276 28.792 17.276-28.792 17.275-28.792-17.275zm58.549.58 28.795 17.278-28.792 17.275-28.795-17.278 28.792-17.275zm.966-.58 28.794-17.276 28.796 17.277-28.794 17.277-28.796-17.278zm29.759-17.855 28.794-17.276 18.007 10.805 10.788 6.473-28.793 17.276-28.796-17.278zm-177.759-.473 28.004-16.803 28.792 17.275-28.795 17.277-28.792-17.274.791-.475zm88.482 54.039 28.795-17.277 28.796 17.277L120 238.842l-28.796-17.277z"/>
  <path class="st0" d="M102.555 41.588c27.111 14.693 48.676 50.162 48.676 80.197 0 11.22-3.036 20.738-8.715 27.505l20.27 28.691-12.858 7.797-19.634-27.792c-10.146 3.853-22.447 2.232-34.887-4.509-27.111-14.693-48.676-50.162-48.676-80.196 0-15.789 6.012-28.206 16.938-34.334 10.707-6.005 24.483-5.033 38.462 2.414l.424.227zM71.007 52.029c-5.75 3.225-9.276 10.507-9.276 21.251 0 24.477 18.505 54.914 40.823 67.009 9.936 5.385 18.539 6.035 24.401 2.747 5.75-3.225 9.276-10.507 9.276-21.251 0-24.477-18.505-54.913-40.824-67.009-9.936-5.385-18.539-6.035-24.4-2.747z"/>
</svg>
