<svg xmlns="http://www.w3.org/2000/svg" viewBox="0 0 240 240" xml:space="preserve">
  <path d="M228.982 161.39 120.256 96.152l-.256-.153L0 168.001 120 240l120-71.999-11.018-6.611zm-108.983-29.68-28.793-17.276L120 97.157l28.793 17.277-28.794 17.276zm29.76-16.697 28.791 17.275-28.794 17.277-28.792-17.275 28.795-17.277zm-59.519.001 28.793 17.276-28.793 17.275-28.792-17.276 28.792-17.275zm29.759 17.855 28.793 17.275-28.793 17.276-28.793-17.276 28.793-17.275zm29.758 17.854 28.793 17.276-28.794 17.276-28.792-17.276 28.793-17.276zm.965-.579 28.793-17.277 28.793 17.276-28.793 17.276-28.793-17.275zm-90.239-17.276 28.792 17.276-28.792 17.275-28.791-17.275 28.791-17.276zm29.758 17.855 28.793 17.276-28.792 17.276-28.793-17.276 28.792-17.276zm-.964 35.131-28.795 17.277-28.794-17.277 28.795-17.277 28.794 17.277zm.965.579 28.792 17.275-28.795 17.277-28.792-17.275 28.795-17.277zm.965-.579 28.792-17.276 28.792 17.276-28.792 17.275-28.792-17.275zm58.549.58 28.795 17.278-28.792 17.275-28.795-17.278 28.792-17.275zm.966-.58 28.794-17.276 28.796 17.277-28.794 17.277-28.796-17.278zm29.759-17.855 28.794-17.276 18.007 10.805 10.788 6.473-28.793 17.276-28.796-17.278zm-177.759-.473 28.004-16.803 28.792 17.275-28.795 17.277-28.792-17.274.791-.475zm88.482 54.039 28.795-17.277 28.796 17.277L120 238.842l-28.796-17.277z" fill-rule="evenodd" clip-rule="evenodd"/>
  <path d="M187.292 73.331C188.804 48.727 170.35 26.768 142.628 27a46.068 46.068 0 0 0-23.71 7c-15.136 9.32-22.001 13.37-27.505 16.62-4.422 2.72-8.302 5.11-15.244 9.27-13.163 7.708-24.951 13.579-36.039 23.69-6.524 5.72-9.616 15.1-9.616 30.26-.013 2.315.009 34.632 0 35.77l59.385 35.755-.001.095.08-.047.028.017c1.228-.769 13.753-8.052 15.352-8.99l.004-.186L120 167.506V203.4l15.461-9.28v-35.852L187.3 127.29c.014-7.893-.088-11.578-.064-35.923l10.768-6.447.047 17.95 13.83-8.47.046-35.87-24.635 14.801zM45.853 139.282c-.035-5.864.121-13.212.121-25.442 0-12.422 3.121-18.848 8.302-23.386 12.45-9.199 32.397-4.345 35.351 22.869l-43.774 25.959zm13.764 9.813 30.432-18.047a12574.27 12574.27 0 0 1-.066 36.409l-30.366-18.362zm112.222-30.515-66.403 39.687c-.751-31.08 6.24-69.984-23.367-83.908 19.62-12.07 20.026-11.796 44.904-27.129a31.332 31.332 0 0 1 16.001-4.69 31.288 31.288 0 0 1 16.141 4.18c6.741 3.85 12.724 16 12.724 25.28-.016 3.722-.026 7.26-.032 10.635L149.978 95.75l-.093 17.98 21.92-13.124c.012 7.682.034 13.741.034 17.974z"/>
</svg>
