<svg version="1.1" xmlns="http://www.w3.org/2000/svg" viewBox="0 0 240 240" xml:space="preserve">
  <path fill-rule="evenodd" clip-rule="evenodd" d="M228.982 161.39 120.256 96.152l-.256-.153L0 168.001 120 240l120-71.999-11.018-6.611zm-108.983-29.68-28.793-17.276L120 97.157l28.793 17.277-28.794 17.276zm29.76-16.697 28.791 17.275-28.794 17.277-28.792-17.275 28.795-17.277zm-59.519.001 28.793 17.276-28.793 17.275-28.792-17.276 28.792-17.275zm29.759 17.855 28.793 17.275-28.793 17.276-28.793-17.276 28.793-17.275zm29.758 17.854 28.793 17.276-28.794 17.276-28.792-17.276 28.793-17.276zm.965-.579 28.793-17.277 28.793 17.276-28.793 17.276-28.793-17.275zm-90.239-17.276 28.792 17.276-28.792 17.275-28.791-17.275 28.791-17.276zm29.758 17.855 28.793 17.276-28.792 17.276-28.793-17.276 28.792-17.276zm-.964 35.131-28.795 17.277-28.794-17.277 28.795-17.277 28.794 17.277zm.965.579 28.792 17.275-28.795 17.277-28.792-17.275 28.795-17.277zm.965-.579 28.792-17.276 28.792 17.276-28.792 17.275-28.792-17.275zm58.549.58 28.795 17.278-28.792 17.275-28.795-17.278 28.792-17.275zm.966-.58 28.794-17.276 28.796 17.277-28.794 17.277-28.796-17.278zm29.759-17.855 28.794-17.276 18.007 10.805 10.788 6.473-28.793 17.276-28.796-17.278zm-177.759-.473 28.004-16.803 28.792 17.275-28.795 17.277-28.792-17.274.791-.475zm88.482 54.039 28.795-17.277 28.796 17.277L120 238.842l-28.796-17.277z"/>
  <path fill-rule="evenodd" clip-rule="evenodd" d="M56.731 61.8c0-8.27 3.736-15.01 10.464-18.08 6.226-2.84 13.826-1.98 21.301 1.99 13.814 7.33 24.735 23.89 24.735 38.1 0 8.28-3.736 15.01-10.464 18.08-6.226 2.84-13.826 1.98-21.301-1.98-13.814-7.33-24.735-23.9-24.735-38.11zm41.5 22.01c0-8.4-7.66-20.02-16.765-24.85-3.681-1.95-6.538-2.28-8.044-1.59-.425.19-.734.48-1.002.96-.421.76-.689 1.91-.689 3.47 0 8.41 7.66 20.03 16.765 24.86 3.681 1.95 6.538 2.27 8.044 1.58.425-.19.734-.48 1.002-.96.421-.76.689-1.91.689-3.47zm-41.772 8.98c-4.975-2.84-11.207.75-11.207 6.52v59.52l15 9.09v-55.37l44.729 26.86v55.31l15 9.29v-68.85l-.001-.12a7.485 7.485 0 0 0-3.641-6.31l-59.73-35.85-.15-.09zm127.217 14.18c4.975-2.84 11.358.66 11.358 6.43v45.4l-15 9.01v-41.16l-30.053 17.89v41.41l-15 8.92v-54.58l.001-.12a7.485 7.485 0 0 1 3.641-6.31l45.053-26.89zm-9.234-38.28c5.659 2.58 8.789 8.2 8.789 14.94 0 11.05-8.352 23.68-18.995 29.31-5.925 3.13-12.068 3.82-17.216 1.48-5.659-2.57-8.789-8.19-8.789-14.93 0-11.06 8.352-23.69 18.995-29.31 5.925-3.14 12.068-3.83 17.216-1.49zm-7.032 13.64c-.853.1-1.936.45-3.174 1.11-5.926 3.13-11.005 10.81-11.005 16.05 0 .44.04.81.108 1.1l.014.06.019.07.01.03.014.04h-.043c.174.02.408.02.699-.01.853-.09 1.936-.45 3.174-1.1 5.926-3.14 11.005-10.82 11.005-16.05 0-.45-.04-.82-.108-1.11l-.014-.06-.019-.07-.01-.03-.013-.04h.042a3.327 3.327 0 0 0-.699.01z"/>
</svg>
