<svg version="1.1" xmlns="http://www.w3.org/2000/svg" viewBox="0 0 240 240" xml:space="preserve">
  <path fill-rule="evenodd" clip-rule="evenodd" d="M228.982 161.39 120.256 96.152l-.256-.153L0 168.001 120 240l120-71.999-11.018-6.611zm-108.983-29.68-28.793-17.276L120 97.157l28.793 17.277-28.794 17.276zm29.76-16.697 28.791 17.275-28.794 17.277-28.792-17.275 28.795-17.277zm-59.519.001 28.793 17.276-28.793 17.275-28.792-17.276 28.792-17.275zm29.759 17.855 28.793 17.275-28.793 17.276-28.793-17.276 28.793-17.275zm29.758 17.854 28.793 17.276-28.794 17.276-28.792-17.276 28.793-17.276zm.965-.579 28.793-17.277 28.793 17.276-28.793 17.276-28.793-17.275zm-90.239-17.276 28.792 17.276-28.792 17.275-28.791-17.275 28.791-17.276zm29.758 17.855 28.793 17.276-28.792 17.276-28.793-17.276 28.792-17.276zm-.964 35.131-28.795 17.277-28.794-17.277 28.795-17.277 28.794 17.277zm.965.579 28.792 17.275-28.795 17.277-28.792-17.275 28.795-17.277zm.965-.579 28.792-17.276 28.792 17.276-28.792 17.275-28.792-17.275zm58.549.58 28.795 17.278-28.792 17.275-28.795-17.278 28.792-17.275zm.966-.58 28.794-17.276 28.796 17.277-28.794 17.277-28.796-17.278zm29.759-17.855 28.794-17.276 18.007 10.805 10.788 6.473-28.793 17.276-28.796-17.278zm-177.759-.473 28.004-16.803 28.792 17.275-28.795 17.277-28.792-17.274.791-.475zm88.482 54.039 28.795-17.277 28.796 17.277L120 238.842l-28.796-17.277z"/>
  <path fill-rule="evenodd" clip-rule="evenodd" d="M135.678 35.822c-12.288 6.029-21.947 20.411-21.947 33.163 0 5.053 1.529 9.532 4.391 12.838l-29.793 55.523c-3.071.257-6.254 1.182-9.402 2.726-12.288 6.029-21.947 20.411-21.947 33.164 0 7.434 3.31 13.624 9.303 16.667 5.62 2.854 12.516 2.382 19.25-.922 9.849-4.832 18.008-15.03 20.86-25.454l56.545-4.628c.807 5.998 3.946 10.89 9.04 13.494 5.608 2.868 12.49 2.395 19.199-.921 12.213-6.034 21.803-20.415 21.803-33.154 0-7.424-3.284-13.608-9.248-16.658-5.608-2.868-12.49-2.394-19.199.921-8.409 4.155-15.574 12.265-19.222 21.073l-59.043 4.833c-.821-2.295-2.05-4.337-3.657-6.034l29.482-54.944c3.313-.153 6.773-1.1 10.19-2.777 12.288-6.029 21.947-20.41 21.947-33.163 0-7.435-3.31-13.625-9.303-16.668-5.564-2.825-12.379-2.391-19.048.823l-.201.098zm12.459 12.453c.238.121.414.294.586.616.306.573.508 1.46.508 2.677 0 6.822-6.235 16.106-13.553 19.697-2.81 1.378-4.858 1.518-5.852 1.013-.238-.121-.414-.294-.586-.616-.306-.573-.508-1.46-.508-2.677 0-6.822 6.235-16.106 13.553-19.697 2.809-1.378 4.857-1.518 5.852-1.013zM91.973 153.141c-.172-.322-.348-.496-.586-.617-.995-.505-3.043-.365-5.852 1.014-7.318 3.59-13.553 12.875-13.553 19.697 0 1.216.202 2.103.508 2.676.172.322.348.496.586.616.995.505 3.043.365 5.852-1.013 7.318-3.591 13.553-12.875 13.553-19.697 0-1.217-.202-2.103-.508-2.676zm104.931-18.126c.227.116.397.285.568.606.307.578.509 1.472.509 2.696 0 6.836-6.192 16.122-13.447 19.706-2.767 1.367-4.766 1.505-5.726 1.014-.227-.116-.397-.285-.568-.606-.307-.578-.509-1.472-.509-2.696 0-6.836 6.192-16.122 13.447-19.707 2.767-1.366 4.766-1.504 5.726-1.013z"/>
</svg>
