<svg version="1.1" xmlns="http://www.w3.org/2000/svg" viewBox="0 0 240 240" xml:space="preserve">
  <path fill-rule="evenodd" clip-rule="evenodd" d="M228.982 161.39 120.256 96.152l-.256-.153L0 168.001 120 240l120-71.999-11.018-6.611zm-108.983-29.68-28.793-17.276L120 97.157l28.793 17.277-28.794 17.276zm29.76-16.697 28.791 17.275-28.794 17.277-28.792-17.275 28.795-17.277zm-59.519.001 28.793 17.276-28.793 17.275-28.792-17.276 28.792-17.275zm29.759 17.855 28.793 17.275-28.793 17.276-28.793-17.276 28.793-17.275zm29.758 17.854 28.793 17.276-28.794 17.276-28.792-17.276 28.793-17.276zm.965-.579 28.793-17.277 28.793 17.276-28.793 17.276-28.793-17.275zm-90.239-17.276 28.792 17.276-28.792 17.275-28.791-17.275 28.791-17.276zm29.758 17.855 28.793 17.276-28.792 17.276-28.793-17.276 28.792-17.276zm-.964 35.131-28.795 17.277-28.794-17.277 28.795-17.277 28.794 17.277zm.965.579 28.792 17.275-28.795 17.277-28.792-17.275 28.795-17.277zm.965-.579 28.792-17.276 28.792 17.276-28.792 17.275-28.792-17.275zm58.549.58 28.795 17.278-28.792 17.275-28.795-17.278 28.792-17.275zm.966-.58 28.794-17.276 28.796 17.277-28.794 17.277-28.796-17.278zm29.759-17.855 28.794-17.276 18.007 10.805 10.788 6.473-28.793 17.276-28.796-17.278zm-177.759-.473 28.004-16.803 28.792 17.275-28.795 17.277-28.792-17.274.791-.475zm88.482 54.039 28.795-17.277 28.796 17.277L120 238.842l-28.796-17.277z"/>
  <path fill-rule="evenodd" clip-rule="evenodd" d="m170.01 14.56-19.097 38.171-10.146 20.279 6.942 30.133-15.056 25.2c-4.453-.489-9.028-.74-13.671-.74-18.088 0-35.14 3.817-47.986 10.616-13.857 7.335-22.264 17.854-22.264 29.884 0 12.03 8.406 22.549 22.264 29.884 12.846 6.799 29.898 10.616 47.986 10.616 18.089 0 35.14-3.817 47.986-10.617 13.858-7.334 22.264-17.853 22.264-29.883 0-12.03-8.406-22.549-22.264-29.884-5.495-2.908-11.76-5.271-18.547-7.023l11.624-19.455 30.054-6.872 39.137-54.389-37.46 8.152 9.119-15.262-12.877-7.693-9.94 16.636-8.068-37.753zm11.223 76.949-10.539 2.41 10.541-17.643 12.994-2.828-12.996 18.061zM166.782 71.22l-2.499-11.69-4.121 8.238-3.567 7.13 2.224 9.652 7.963-13.33zm-48.562 81.281 6.285-10.52a113.293 113.293 0 0 0-5.397-.128c-15.885 0-30.674 3.309-41.375 8.97-9.689 5.126-14.75 11.456-14.75 17.405 0 5.948 5.061 12.278 14.75 17.404 10.701 5.662 25.49 8.971 41.375 8.971 15.885 0 30.674-3.309 41.375-8.971 9.689-5.126 14.75-11.456 14.75-17.404 0-5.949-5.061-12.279-14.75-17.405-5.597-2.96-12.311-5.278-19.715-6.815l-6.594 11.036c6.605 2.494 10.911 6.581 10.911 11.2 0 7.593-11.64 13.75-26 13.75-14.359 0-26-6.157-26-13.75 0-7.441 11.176-13.502 25.135-13.743z"/>
</svg>
