<svg version="1.1" xmlns="http://www.w3.org/2000/svg" viewBox="0 0 240 240" xml:space="preserve">
  <path fill-rule="evenodd" clip-rule="evenodd" fill-opacity="0.6" d="M228.982 161.39 120.256 96.152l-.256-.153L0 168.001 120 240l120-71.999-11.018-6.611zm-108.983-29.68-28.793-17.276L120 97.157l28.793 17.277-28.794 17.276zm29.76-16.697 28.791 17.275-28.794 17.277-28.792-17.275 28.795-17.277zm-59.519.001 28.793 17.276-28.793 17.275-28.792-17.276 28.792-17.275zm29.759 17.855 28.793 17.275-28.793 17.276-28.793-17.276 28.793-17.275zm29.758 17.854 28.793 17.276-28.794 17.276-28.792-17.276 28.793-17.276zm.965-.579 28.793-17.277 28.793 17.276-28.793 17.276-28.793-17.275zm-90.239-17.276 28.792 17.276-28.792 17.275-28.791-17.275 28.791-17.276zm29.758 17.855 28.793 17.276-28.792 17.276-28.793-17.276 28.792-17.276zm-.964 35.131-28.795 17.277-28.794-17.277 28.795-17.277 28.794 17.277zm.965.579 28.792 17.275-28.795 17.277-28.792-17.275 28.795-17.277zm.965-.579 28.792-17.276 28.792 17.276-28.792 17.275-28.792-17.275zm58.549.58 28.795 17.278-28.792 17.275-28.795-17.278 28.792-17.275zm.966-.58 28.794-17.276 28.796 17.277-28.794 17.277-28.796-17.278zm29.759-17.855 28.794-17.276 18.007 10.805 10.788 6.473-28.793 17.276-28.796-17.278zm-177.759-.473 28.004-16.803 28.792 17.275-28.795 17.277-28.792-17.274.791-.475zm88.482 54.039 28.795-17.277 28.796 17.277L120 238.842l-28.796-17.277z"/>
  <path fill-rule="evenodd" clip-rule="evenodd" d="M58.852 88.579C75.11 77.684 96.82 71.53 119.872 71.53s44.762 6.154 61.02 17.049c16.913 11.335 26.87 27.111 26.87 44.326s-9.957 32.991-26.87 44.326c-16.258 10.895-37.968 17.049-61.02 17.049s-44.762-6.154-61.02-17.049c-16.913-11.335-26.87-27.112-26.87-44.326-.001-17.215 9.956-32.991 26.87-44.326zm133.91 44.326c0-24.831-32.148-46.375-72.891-46.375-40.742 0-72.891 21.545-72.891 46.375s32.148 46.375 72.891 46.375 72.891-21.545 72.891-46.375zM83.327 106.117c9.817-5.828 22.794-9.087 36.526-9.087 13.731 0 26.709 3.259 36.527 9.087 10.581 6.282 16.974 15.256 16.974 25.288s-6.393 19.006-16.974 25.288c-9.817 5.828-22.795 9.087-36.527 9.087s-26.709-3.259-36.526-9.087c-10.581-6.282-16.974-15.255-16.974-25.288s6.393-19.006 16.974-25.288zm75.026 25.413c0-10.323-16.717-20.25-38.501-20.25-21.783 0-38.5 9.927-38.5 20.25s16.717 20.25 38.5 20.25c21.784 0 38.501-9.927 38.501-20.25zm-55.4-.5c0 5.247 7.611 9.5 17 9.5s17-4.253 17-9.5-7.611-9.5-17-9.5-17 4.253-17 9.5z"/>
</svg>
